<mxfile host="app.diagrams.net" modified="2024-03-04T19:34:06.511Z" agent="Mozilla/5.0 (Windows NT 10.0; Win64; x64) AppleWebKit/537.36 (KHTML, like Gecko) Chrome/122.0.0.0 Safari/537.36 Edg/122.0.0.0" etag="YLBxXM-UagyOakfFMmkO" version="24.0.1" type="github">
  <diagram name="Page-1" id="ad52d381-51e7-2e0d-a935-2d0ddd2fd229">
    <mxGraphModel dx="2474" dy="1615" grid="1" gridSize="10" guides="1" tooltips="1" connect="1" arrows="1" fold="1" page="1" pageScale="1" pageWidth="1100" pageHeight="850" background="none" math="0" shadow="0">
      <root>
        <mxCell id="0" />
        <mxCell id="1" parent="0" />
        <mxCell id="2c924340bb9dbf6c-1" value="&lt;span&gt;Lenzing &amp;amp; SÃ¶dra&lt;/span&gt;&lt;div&gt;&lt;span&gt;OnceMore(R)&lt;/span&gt;&lt;/div&gt;&lt;div&gt;&lt;span&gt;REFIBRA&lt;/span&gt;&lt;/div&gt;" style="whiteSpace=wrap;html=1;rounded=1;shadow=1;comic=0;labelBackgroundColor=none;strokeWidth=2;fontFamily=Verdana;fontSize=12;align=center;arcSize=10;strokeColor=default;verticalAlign=middle;fontColor=default;fillColor=default;" parent="1" vertex="1">
          <mxGeometry x="150" y="-40" width="100" height="80" as="geometry" />
        </mxCell>
        <mxCell id="2c924340bb9dbf6c-2" value="Existing Projects" style="ellipse;whiteSpace=wrap;html=1;rounded=1;shadow=1;comic=0;labelBackgroundColor=none;strokeWidth=2;fontFamily=Verdana;fontSize=12;align=center;fillColor=#fff2cc;strokeColor=#d6b656;" parent="1" vertex="1">
          <mxGeometry x="260" y="110" width="120" height="80" as="geometry" />
        </mxCell>
        <mxCell id="2c924340bb9dbf6c-3" value="&lt;span&gt;Existing industrial projects and implementations&lt;/span&gt;" style="ellipse;whiteSpace=wrap;html=1;rounded=1;shadow=1;comic=0;labelBackgroundColor=none;strokeWidth=2;fontFamily=Verdana;fontSize=12;align=center;fillColor=#ffe6cc;strokeColor=#d79b00;" parent="1" vertex="1">
          <mxGeometry x="650" y="110" width="120" height="80" as="geometry" />
        </mxCell>
        <mxCell id="2c924340bb9dbf6c-4" value="Textile Recycling" style="ellipse;whiteSpace=wrap;html=1;rounded=1;shadow=1;comic=0;labelBackgroundColor=none;strokeWidth=2;fontFamily=Verdana;fontSize=12;align=center;" parent="1" vertex="1">
          <mxGeometry x="530" y="260" width="120" height="120" as="geometry" />
        </mxCell>
        <mxCell id="2c924340bb9dbf6c-5" value="&lt;span&gt;Partner&lt;/span&gt;" style="ellipse;whiteSpace=wrap;html=1;rounded=1;shadow=1;comic=0;labelBackgroundColor=none;strokeWidth=2;fontFamily=Verdana;fontSize=12;align=center;fillColor=#dae8fc;strokeColor=#6c8ebf;" parent="1" vertex="1">
          <mxGeometry x="630" y="420" width="120" height="80" as="geometry" />
        </mxCell>
        <mxCell id="2c924340bb9dbf6c-8" value="&lt;span&gt;JR Labor&lt;/span&gt;&lt;div&gt;&lt;span&gt;Polycotton&lt;/span&gt;&lt;/div&gt;&lt;div&gt;EREMA, Miettex, Starlinger&lt;/div&gt;" style="whiteSpace=wrap;html=1;rounded=1;shadow=1;comic=0;labelBackgroundColor=none;strokeWidth=2;fontFamily=Verdana;fontSize=12;align=center;arcSize=10;strokeColor=default;verticalAlign=middle;fontColor=default;fillColor=default;" parent="1" vertex="1">
          <mxGeometry x="90" y="70" width="100" height="100" as="geometry" />
        </mxCell>
        <mxCell id="2c924340bb9dbf6c-9" value="&lt;span&gt;tccv2&lt;/span&gt;&lt;div&gt;Area 3: Biobased Materials and textile circularity&lt;/div&gt;" style="whiteSpace=wrap;html=1;rounded=1;shadow=1;comic=0;labelBackgroundColor=none;strokeWidth=2;fontFamily=Verdana;fontSize=12;align=center;arcSize=10;strokeColor=default;verticalAlign=middle;fontColor=default;fillColor=default;" parent="1" vertex="1">
          <mxGeometry x="130" y="190" width="100" height="110" as="geometry" />
        </mxCell>
        <mxCell id="2c924340bb9dbf6c-10" value="&lt;span&gt;SCIRT&lt;/span&gt;&lt;div&gt;&lt;span&gt;natural / synthetic / blends&lt;/span&gt;&lt;/div&gt;&lt;div&gt;&lt;span&gt;focus on downcycled streams, EPR, True cost model, consumer behavioural fow intervention&lt;/span&gt;&lt;/div&gt;" style="whiteSpace=wrap;html=1;rounded=1;shadow=1;comic=0;labelBackgroundColor=none;strokeWidth=2;fontFamily=Verdana;fontSize=12;align=center;arcSize=10;" parent="1" vertex="1">
          <mxGeometry x="320" y="-80" width="140" height="140" as="geometry" />
        </mxCell>
        <mxCell id="2c924340bb9dbf6c-11" value="&lt;span&gt;Andritz:&amp;nbsp;&lt;/span&gt;&lt;div&gt;&lt;span&gt;tailored preconditioning&lt;/span&gt;&lt;/div&gt;&lt;div&gt;&lt;span&gt;&amp;nbsp;equipment&lt;/span&gt;&lt;/div&gt;&lt;div&gt;&lt;span&gt;mechanical (shredders, mills) chemical thermal&lt;/span&gt;&lt;/div&gt;" style="whiteSpace=wrap;html=1;rounded=1;shadow=1;comic=0;labelBackgroundColor=none;strokeWidth=2;fontFamily=Verdana;fontSize=12;align=center;arcSize=10;strokeColor=default;verticalAlign=middle;fontColor=default;fillColor=default;" parent="1" vertex="1">
          <mxGeometry x="630" y="-140" width="100" height="180" as="geometry" />
        </mxCell>
        <mxCell id="2c924340bb9dbf6c-14" value="&lt;span&gt;Andritz &amp;amp; Sundsvall; Infinited (flagship), CIRC (Virginia)&lt;/span&gt;" style="whiteSpace=wrap;html=1;rounded=1;shadow=1;comic=0;labelBackgroundColor=none;strokeWidth=2;fontFamily=Verdana;fontSize=12;align=center;arcSize=10;strokeColor=default;verticalAlign=middle;fontColor=default;fillColor=default;" parent="1" vertex="1">
          <mxGeometry x="770" y="-120" width="100" height="160" as="geometry" />
        </mxCell>
        <mxCell id="2c924340bb9dbf6c-27" value="" style="edgeStyle=none;rounded=1;html=1;labelBackgroundColor=none;startArrow=none;startFill=0;startSize=5;endArrow=classicThin;endFill=1;endSize=5;jettySize=auto;orthogonalLoop=1;strokeColor=#d6b656;strokeWidth=1;fontFamily=Verdana;fontSize=12;fillColor=#fff2cc;" parent="1" source="2c924340bb9dbf6c-2" target="2c924340bb9dbf6c-10" edge="1">
          <mxGeometry relative="1" as="geometry" />
        </mxCell>
        <mxCell id="2c924340bb9dbf6c-28" value="" style="edgeStyle=none;rounded=1;html=1;labelBackgroundColor=none;startArrow=none;startFill=0;startSize=5;endArrow=classicThin;endFill=1;endSize=5;jettySize=auto;orthogonalLoop=1;strokeColor=#d6b656;strokeWidth=1;fontFamily=Verdana;fontSize=12;fillColor=#fff2cc;" parent="1" source="2c924340bb9dbf6c-2" target="2c924340bb9dbf6c-1" edge="1">
          <mxGeometry relative="1" as="geometry" />
        </mxCell>
        <mxCell id="2c924340bb9dbf6c-29" value="" style="edgeStyle=none;rounded=1;html=1;labelBackgroundColor=none;startArrow=none;startFill=0;startSize=5;endArrow=classicThin;endFill=1;endSize=5;jettySize=auto;orthogonalLoop=1;strokeColor=#d6b656;strokeWidth=1;fontFamily=Verdana;fontSize=12;fillColor=#fff2cc;" parent="1" source="2c924340bb9dbf6c-2" target="2c924340bb9dbf6c-8" edge="1">
          <mxGeometry relative="1" as="geometry" />
        </mxCell>
        <mxCell id="2c924340bb9dbf6c-30" value="" style="edgeStyle=none;rounded=1;html=1;labelBackgroundColor=none;startArrow=none;startFill=0;startSize=5;endArrow=classicThin;endFill=1;endSize=5;jettySize=auto;orthogonalLoop=1;strokeColor=#d6b656;strokeWidth=1;fontFamily=Verdana;fontSize=12;fillColor=#fff2cc;" parent="1" source="2c924340bb9dbf6c-2" target="2c924340bb9dbf6c-9" edge="1">
          <mxGeometry relative="1" as="geometry" />
        </mxCell>
        <mxCell id="2c924340bb9dbf6c-31" value="&lt;div&gt;&lt;br/&gt;&lt;/div&gt;" style="edgeStyle=none;rounded=1;html=1;labelBackgroundColor=none;startArrow=none;startFill=0;startSize=5;endArrow=classicThin;endFill=1;endSize=5;jettySize=auto;orthogonalLoop=1;strokeColor=#d6b656;strokeWidth=1;fontFamily=Verdana;fontSize=12;fillColor=#fff2cc;" parent="1" source="2c924340bb9dbf6c-4" target="2c924340bb9dbf6c-2" edge="1">
          <mxGeometry x="0.0023" relative="1" as="geometry">
            <mxPoint as="offset" />
          </mxGeometry>
        </mxCell>
        <mxCell id="2c924340bb9dbf6c-32" value="relation" style="edgeStyle=none;rounded=1;html=1;labelBackgroundColor=none;startArrow=none;startFill=0;startSize=5;endArrow=classicThin;endFill=1;endSize=5;jettySize=auto;orthogonalLoop=1;strokeColor=#B3B3B3;strokeWidth=1;fontFamily=Verdana;fontSize=12" parent="1" source="2c924340bb9dbf6c-4" target="2c924340bb9dbf6c-3" edge="1">
          <mxGeometry relative="1" as="geometry" />
        </mxCell>
        <mxCell id="2c924340bb9dbf6c-33" value="Partner" style="edgeStyle=none;rounded=1;html=1;labelBackgroundColor=none;startArrow=none;startFill=0;startSize=5;endArrow=classicThin;endFill=1;endSize=5;jettySize=auto;orthogonalLoop=1;strokeColor=#B3B3B3;strokeWidth=1;fontFamily=Verdana;fontSize=12" parent="1" source="2c924340bb9dbf6c-4" target="2c924340bb9dbf6c-5" edge="1">
          <mxGeometry relative="1" as="geometry" />
        </mxCell>
        <mxCell id="2c924340bb9dbf6c-45" value="relation" style="edgeStyle=none;rounded=1;html=1;labelBackgroundColor=none;startArrow=none;startFill=0;startSize=5;endArrow=classicThin;endFill=1;endSize=5;jettySize=auto;orthogonalLoop=1;strokeColor=#B3B3B3;strokeWidth=1;fontFamily=Verdana;fontSize=12" parent="1" source="2c924340bb9dbf6c-3" edge="1">
          <mxGeometry relative="1" as="geometry">
            <mxPoint x="774" y="40" as="targetPoint" />
          </mxGeometry>
        </mxCell>
        <mxCell id="2c924340bb9dbf6c-46" value="relation" style="edgeStyle=none;rounded=1;html=1;labelBackgroundColor=none;startArrow=none;startFill=0;startSize=5;endArrow=classicThin;endFill=1;endSize=5;jettySize=auto;orthogonalLoop=1;strokeColor=#B3B3B3;strokeWidth=1;fontFamily=Verdana;fontSize=12" parent="1" source="2c924340bb9dbf6c-3" target="2c924340bb9dbf6c-11" edge="1">
          <mxGeometry relative="1" as="geometry" />
        </mxCell>
        <mxCell id="MKfo8vcPE9JE-lZwbTAb-17" value="" style="edgeStyle=orthogonalEdgeStyle;rounded=0;orthogonalLoop=1;jettySize=auto;html=1;" edge="1" parent="1" source="2c924340bb9dbf6c-51" target="MKfo8vcPE9JE-lZwbTAb-16">
          <mxGeometry relative="1" as="geometry" />
        </mxCell>
        <mxCell id="2c924340bb9dbf6c-51" value="Supplier" style="rounded=1;whiteSpace=wrap;html=1;shadow=1;comic=0;labelBackgroundColor=none;strokeWidth=2;fontFamily=Verdana;fontSize=12;align=center;" parent="1" vertex="1">
          <mxGeometry x="810" y="300" width="120" height="60" as="geometry" />
        </mxCell>
        <mxCell id="2c924340bb9dbf6c-53" value="&lt;a href=&quot;https://www.repanet.at/themen/textilsammlung-und-verwertung/#TEXTILSAMMLER&quot;&gt;Re-Use Austria - Textilsammlung und -verwertung (repanet.at)&lt;/a&gt;" style="whiteSpace=wrap;html=1;rounded=1;shadow=1;comic=0;labelBackgroundColor=none;strokeWidth=2;fontFamily=Verdana;fontSize=12;align=center;arcSize=10;strokeColor=#666666;verticalAlign=middle;fontColor=#333333;fillColor=#f5f5f5;" parent="1" vertex="1">
          <mxGeometry x="810" y="200" width="200" height="50" as="geometry" />
        </mxCell>
        <mxCell id="2c924340bb9dbf6c-54" value="&lt;span&gt;SALESIANER Miettex&lt;/span&gt;" style="whiteSpace=wrap;html=1;rounded=1;shadow=1;comic=0;labelBackgroundColor=none;strokeWidth=2;fontFamily=Verdana;fontSize=12;align=center;arcSize=10;strokeColor=#666666;verticalAlign=middle;fontColor=#333333;fillColor=#f5f5f5;" parent="1" vertex="1">
          <mxGeometry x="1000" y="280" width="240" height="40" as="geometry" />
        </mxCell>
        <mxCell id="2c924340bb9dbf6c-63" value="" style="edgeStyle=none;rounded=1;html=1;labelBackgroundColor=none;startArrow=none;startFill=0;startSize=5;endArrow=classicThin;endFill=1;endSize=5;jettySize=auto;orthogonalLoop=1;strokeColor=#B3B3B3;strokeWidth=1;fontFamily=Verdana;fontSize=12;exitX=0.5;exitY=0;exitDx=0;exitDy=0;" parent="1" source="2c924340bb9dbf6c-51" target="2c924340bb9dbf6c-53" edge="1">
          <mxGeometry relative="1" as="geometry" />
        </mxCell>
        <mxCell id="2c924340bb9dbf6c-64" value="" style="edgeStyle=none;rounded=1;html=1;labelBackgroundColor=none;startArrow=none;startFill=0;startSize=5;endArrow=classicThin;endFill=1;endSize=5;jettySize=auto;orthogonalLoop=1;strokeColor=#B3B3B3;strokeWidth=1;fontFamily=Verdana;fontSize=12" parent="1" source="2c924340bb9dbf6c-51" target="2c924340bb9dbf6c-54" edge="1">
          <mxGeometry relative="1" as="geometry" />
        </mxCell>
        <mxCell id="2c924340bb9dbf6c-66" value="Value Chain" style="edgeStyle=none;rounded=1;html=1;labelBackgroundColor=none;startArrow=none;startFill=0;startSize=5;endArrow=classicThin;endFill=1;endSize=5;jettySize=auto;orthogonalLoop=1;strokeColor=#B3B3B3;strokeWidth=1;fontFamily=Verdana;fontSize=12" parent="1" source="2c924340bb9dbf6c-51" target="2c924340bb9dbf6c-5" edge="1">
          <mxGeometry relative="1" as="geometry" />
        </mxCell>
        <mxCell id="MKfo8vcPE9JE-lZwbTAb-3" value="relation" style="edgeStyle=none;rounded=1;html=1;labelBackgroundColor=none;startArrow=none;startFill=0;startSize=5;endArrow=classicThin;endFill=1;endSize=5;jettySize=auto;orthogonalLoop=1;strokeColor=#B3B3B3;strokeWidth=1;fontFamily=Verdana;fontSize=12;exitX=0;exitY=0.5;exitDx=0;exitDy=0;" edge="1" parent="1" source="2c924340bb9dbf6c-3" target="2c924340bb9dbf6c-10">
          <mxGeometry relative="1" as="geometry">
            <mxPoint x="699" y="123" as="sourcePoint" />
            <mxPoint x="680" y="89" as="targetPoint" />
          </mxGeometry>
        </mxCell>
        <mxCell id="MKfo8vcPE9JE-lZwbTAb-4" value="&lt;a href=&quot;https://www.repanet.at/themen/textilsammlung-und-verwertung/#TEXTILSAMMLER&quot;&gt;Re-Use Austria - Textilsammlung und -verwertung (repanet.at)&lt;/a&gt;" style="text;whiteSpace=wrap;html=1;" vertex="1" parent="1">
          <mxGeometry x="930" y="-170" width="360" height="40" as="geometry" />
        </mxCell>
        <mxCell id="MKfo8vcPE9JE-lZwbTAb-6" value="Studien &amp;amp; Policies" style="ellipse;whiteSpace=wrap;html=1;fontFamily=Verdana;rounded=1;shadow=1;comic=0;labelBackgroundColor=none;strokeWidth=2;fillColor=#f8cecc;strokeColor=#b85450;" vertex="1" parent="1">
          <mxGeometry x="300" y="410" width="130" height="80" as="geometry" />
        </mxCell>
        <mxCell id="MKfo8vcPE9JE-lZwbTAb-10" value="ÃGUT&lt;div&gt;aktuelle Verwertungswege in Ãsterreich&lt;/div&gt;&lt;div&gt;Good practices EU&lt;/div&gt;&lt;div&gt;Herausforderungen und Potenziale&lt;/div&gt;&lt;div&gt;&lt;br&gt;&lt;/div&gt;" style="whiteSpace=wrap;html=1;fontFamily=Verdana;rounded=1;shadow=1;comic=0;labelBackgroundColor=none;strokeWidth=2;strokeColor=default;align=center;verticalAlign=middle;arcSize=10;fontSize=12;fontColor=default;fillColor=default;" vertex="1" parent="1">
          <mxGeometry x="80" y="400" width="135" height="160" as="geometry" />
        </mxCell>
        <mxCell id="MKfo8vcPE9JE-lZwbTAb-13" value="&lt;div&gt;&lt;br/&gt;&lt;/div&gt;" style="edgeStyle=none;rounded=1;html=1;labelBackgroundColor=none;startArrow=none;startFill=0;startSize=5;endArrow=classicThin;endFill=1;endSize=5;jettySize=auto;orthogonalLoop=1;strokeColor=#B3B3B3;strokeWidth=1;fontFamily=Verdana;fontSize=12;entryX=0.992;entryY=0.344;entryDx=0;entryDy=0;entryPerimeter=0;" edge="1" parent="1" source="2c924340bb9dbf6c-4" target="MKfo8vcPE9JE-lZwbTAb-6">
          <mxGeometry x="0.0023" relative="1" as="geometry">
            <mxPoint x="549" y="298" as="sourcePoint" />
            <mxPoint x="374" y="187" as="targetPoint" />
            <mxPoint as="offset" />
          </mxGeometry>
        </mxCell>
        <mxCell id="MKfo8vcPE9JE-lZwbTAb-14" value="&lt;div&gt;&lt;br/&gt;&lt;/div&gt;" style="edgeStyle=none;rounded=1;html=1;labelBackgroundColor=none;startArrow=none;startFill=0;startSize=5;endArrow=classicThin;endFill=1;endSize=5;jettySize=auto;orthogonalLoop=1;strokeColor=#B3B3B3;strokeWidth=1;fontFamily=Verdana;fontSize=12;entryX=1;entryY=0.5;entryDx=0;entryDy=0;exitX=0;exitY=0.5;exitDx=0;exitDy=0;" edge="1" parent="1" source="MKfo8vcPE9JE-lZwbTAb-6" target="MKfo8vcPE9JE-lZwbTAb-10">
          <mxGeometry x="0.0023" relative="1" as="geometry">
            <mxPoint x="551" y="365" as="sourcePoint" />
            <mxPoint x="439" y="448" as="targetPoint" />
            <mxPoint as="offset" />
          </mxGeometry>
        </mxCell>
        <mxCell id="MKfo8vcPE9JE-lZwbTAb-19" value="" style="edgeStyle=orthogonalEdgeStyle;rounded=0;orthogonalLoop=1;jettySize=auto;html=1;" edge="1" parent="1" source="MKfo8vcPE9JE-lZwbTAb-16" target="MKfo8vcPE9JE-lZwbTAb-18">
          <mxGeometry relative="1" as="geometry" />
        </mxCell>
        <mxCell id="MKfo8vcPE9JE-lZwbTAb-21" value="" style="edgeStyle=orthogonalEdgeStyle;rounded=0;orthogonalLoop=1;jettySize=auto;html=1;" edge="1" parent="1" source="MKfo8vcPE9JE-lZwbTAb-16" target="MKfo8vcPE9JE-lZwbTAb-20">
          <mxGeometry relative="1" as="geometry" />
        </mxCell>
        <mxCell id="MKfo8vcPE9JE-lZwbTAb-23" value="" style="edgeStyle=orthogonalEdgeStyle;rounded=0;orthogonalLoop=1;jettySize=auto;html=1;" edge="1" parent="1" source="MKfo8vcPE9JE-lZwbTAb-16" target="MKfo8vcPE9JE-lZwbTAb-22">
          <mxGeometry relative="1" as="geometry" />
        </mxCell>
        <mxCell id="MKfo8vcPE9JE-lZwbTAb-25" value="" style="edgeStyle=orthogonalEdgeStyle;rounded=0;orthogonalLoop=1;jettySize=auto;html=1;" edge="1" parent="1" source="MKfo8vcPE9JE-lZwbTAb-16" target="MKfo8vcPE9JE-lZwbTAb-24">
          <mxGeometry relative="1" as="geometry" />
        </mxCell>
        <mxCell id="MKfo8vcPE9JE-lZwbTAb-16" value="Pretreatment" style="whiteSpace=wrap;html=1;fontFamily=Verdana;rounded=1;shadow=1;comic=0;labelBackgroundColor=none;strokeWidth=2;" vertex="1" parent="1">
          <mxGeometry x="810" y="440" width="120" height="60" as="geometry" />
        </mxCell>
        <mxCell id="MKfo8vcPE9JE-lZwbTAb-30" value="" style="edgeStyle=orthogonalEdgeStyle;rounded=0;orthogonalLoop=1;jettySize=auto;html=1;" edge="1" parent="1" source="MKfo8vcPE9JE-lZwbTAb-18" target="MKfo8vcPE9JE-lZwbTAb-29">
          <mxGeometry relative="1" as="geometry" />
        </mxCell>
        <mxCell id="MKfo8vcPE9JE-lZwbTAb-18" value="Mechanical" style="whiteSpace=wrap;html=1;fontFamily=Verdana;rounded=1;shadow=1;comic=0;labelBackgroundColor=none;strokeWidth=2;" vertex="1" parent="1">
          <mxGeometry x="810" y="580" width="120" height="60" as="geometry" />
        </mxCell>
        <mxCell id="MKfo8vcPE9JE-lZwbTAb-20" value="Rohstoffliches Recycling" style="whiteSpace=wrap;html=1;fontFamily=Verdana;rounded=1;shadow=1;comic=0;labelBackgroundColor=none;strokeWidth=2;" vertex="1" parent="1">
          <mxGeometry x="960" y="580" width="120" height="60" as="geometry" />
        </mxCell>
        <mxCell id="MKfo8vcPE9JE-lZwbTAb-22" value="Enzymatic" style="whiteSpace=wrap;html=1;fontFamily=Verdana;rounded=1;shadow=1;comic=0;labelBackgroundColor=none;strokeWidth=2;" vertex="1" parent="1">
          <mxGeometry x="1100" y="580" width="120" height="60" as="geometry" />
        </mxCell>
        <mxCell id="MKfo8vcPE9JE-lZwbTAb-24" value="Microbial" style="whiteSpace=wrap;html=1;fontFamily=Verdana;rounded=1;shadow=1;comic=0;labelBackgroundColor=none;strokeWidth=2;" vertex="1" parent="1">
          <mxGeometry x="1240" y="580" width="120" height="60" as="geometry" />
        </mxCell>
        <mxCell id="MKfo8vcPE9JE-lZwbTAb-27" value="&lt;span style=&quot;color: rgb(0, 0, 0); font-family: Verdana; font-size: 12px; font-style: normal; font-variant-ligatures: normal; font-variant-caps: normal; font-weight: 400; letter-spacing: normal; orphans: 2; text-align: center; text-indent: 0px; text-transform: none; widows: 2; word-spacing: 0px; -webkit-text-stroke-width: 0px; white-space: normal; background-color: rgb(251, 251, 251); text-decoration-thickness: initial; text-decoration-style: initial; text-decoration-color: initial; display: inline !important; float: none;&quot;&gt;&lt;span&gt;&amp;nbsp;&lt;/span&gt;(&lt;/span&gt;&lt;a style=&quot;font-family: Verdana; font-size: 12px; font-style: normal; font-variant-ligatures: normal; font-variant-caps: normal; font-weight: 400; letter-spacing: normal; orphans: 2; text-align: center; text-indent: 0px; text-transform: none; widows: 2; word-spacing: 0px; -webkit-text-stroke-width: 0px; white-space: normal; background-color: initial;&quot; href=&quot;https://nachhaltigwirtschaften.at/resources/nw_pdf/schriftenreihe-2023-04-textilindustrie.pdf&quot;&gt;SekundÃ¤rrohstoffe fÃ¼r die Ã¶sterreichische Textilindustrie (nachhaltigwirtschaften.at)&lt;/a&gt;&lt;span style=&quot;color: rgb(0, 0, 0); font-family: Verdana; font-size: 12px; font-style: normal; font-variant-ligatures: normal; font-variant-caps: normal; font-weight: 400; letter-spacing: normal; orphans: 2; text-align: center; text-indent: 0px; text-transform: none; widows: 2; word-spacing: 0px; -webkit-text-stroke-width: 0px; white-space: normal; background-color: initial; text-decoration-thickness: initial; text-decoration-style: initial; text-decoration-color: initial;&quot;&gt;)&lt;/span&gt;" style="text;whiteSpace=wrap;html=1;" vertex="1" parent="1">
          <mxGeometry x="45" y="570" width="170" height="40" as="geometry" />
        </mxCell>
        <mxCell id="MKfo8vcPE9JE-lZwbTAb-32" value="" style="edgeStyle=orthogonalEdgeStyle;rounded=0;orthogonalLoop=1;jettySize=auto;html=1;" edge="1" parent="1" source="MKfo8vcPE9JE-lZwbTAb-29" target="MKfo8vcPE9JE-lZwbTAb-31">
          <mxGeometry relative="1" as="geometry" />
        </mxCell>
        <mxCell id="MKfo8vcPE9JE-lZwbTAb-29" value="Faserherstellung" style="whiteSpace=wrap;html=1;fontFamily=Verdana;rounded=1;shadow=1;comic=0;labelBackgroundColor=none;strokeWidth=2;" vertex="1" parent="1">
          <mxGeometry x="810" y="720" width="120" height="60" as="geometry" />
        </mxCell>
        <mxCell id="MKfo8vcPE9JE-lZwbTAb-31" value="&lt;span style=&quot;font-family: Helvetica; text-align: left;&quot;&gt;Lenzing Aktiengesellschaft&lt;/span&gt;&lt;br style=&quot;font-family: Helvetica; text-align: left;&quot;&gt;&lt;span style=&quot;font-family: Helvetica; text-align: left;&quot;&gt;â¢ Lenzing Fibres GmbH&lt;/span&gt;&lt;br style=&quot;font-family: Helvetica; text-align: left;&quot;&gt;&lt;span style=&quot;font-family: Helvetica; text-align: left;&quot;&gt;â¢ Evonik Fibres GmbH&lt;/span&gt;&lt;br style=&quot;font-family: Helvetica; text-align: left;&quot;&gt;&lt;span style=&quot;font-family: Helvetica; text-align: left;&quot;&gt;â¢ IFG Asota GmbH&lt;/span&gt;" style="whiteSpace=wrap;html=1;fontFamily=Verdana;rounded=1;shadow=1;comic=0;labelBackgroundColor=none;strokeWidth=2;fillColor=#f5f5f5;fontColor=#333333;strokeColor=#666666;" vertex="1" parent="1">
          <mxGeometry x="610" y="685" width="120" height="130" as="geometry" />
        </mxCell>
        <mxCell id="MKfo8vcPE9JE-lZwbTAb-33" value="" style="edgeStyle=orthogonalEdgeStyle;rounded=0;orthogonalLoop=1;jettySize=auto;html=1;exitX=0.5;exitY=1;exitDx=0;exitDy=0;entryX=1;entryY=0.5;entryDx=0;entryDy=0;" edge="1" parent="1" source="MKfo8vcPE9JE-lZwbTAb-20" target="MKfo8vcPE9JE-lZwbTAb-29">
          <mxGeometry relative="1" as="geometry">
            <mxPoint x="880" y="650" as="sourcePoint" />
            <mxPoint x="880" y="730" as="targetPoint" />
          </mxGeometry>
        </mxCell>
        <mxCell id="MKfo8vcPE9JE-lZwbTAb-34" value="" style="edgeStyle=orthogonalEdgeStyle;rounded=0;orthogonalLoop=1;jettySize=auto;html=1;exitX=0.5;exitY=1;exitDx=0;exitDy=0;entryX=1;entryY=0.5;entryDx=0;entryDy=0;" edge="1" parent="1" source="MKfo8vcPE9JE-lZwbTAb-22" target="MKfo8vcPE9JE-lZwbTAb-29">
          <mxGeometry relative="1" as="geometry">
            <mxPoint x="1030" y="650" as="sourcePoint" />
            <mxPoint x="940" y="760" as="targetPoint" />
          </mxGeometry>
        </mxCell>
        <mxCell id="MKfo8vcPE9JE-lZwbTAb-35" value="" style="edgeStyle=orthogonalEdgeStyle;rounded=0;orthogonalLoop=1;jettySize=auto;html=1;exitX=0.5;exitY=1;exitDx=0;exitDy=0;entryX=1;entryY=0.5;entryDx=0;entryDy=0;" edge="1" parent="1" source="MKfo8vcPE9JE-lZwbTAb-24" target="MKfo8vcPE9JE-lZwbTAb-29">
          <mxGeometry relative="1" as="geometry">
            <mxPoint x="1170" y="650" as="sourcePoint" />
            <mxPoint x="940" y="760" as="targetPoint" />
          </mxGeometry>
        </mxCell>
        <mxCell id="MKfo8vcPE9JE-lZwbTAb-37" value="" style="shape=image;verticalLabelPosition=bottom;labelBackgroundColor=default;verticalAlign=top;aspect=fixed;imageAspect=0;image=data:image/png,iVBORw0KGgoAAAANSUhEUgAAAowAAAH9CAYAAACQpS0vAAAAAXNSR0IArs4c6QAAAARnQU1BAACxjwv8YQUAAAAJcEhZcwAADsMAAA7DAcdvqGQAAP+lSURBVHhe7J0FfBwF2offxt3TNHV36khx98Pd5XAOd+6OD3cOvcM53KW4Q6GFQt3d27i755vn3Z12m0vatE3aTfI+/Ibu7rhk5j+vdqp3EMMwDMMwDMNoggDvv4ZhGIZhGIbRKCYYDcMwDMMwjM1igtEwDMMwDMPYLCYYDcMwDMMwjM1igtEwDMMwDMPYLCYYDcMwDMMwjM1igtEwDMMwDMPYLCYYDcMwDMMwjM1igtEwDMMwDMPYLCYYDaMZVFdX62AYhmEYHRETjEaHpLa2VtasWSOrVq3y/tI0FRUV8t5778nkyZO9vxiGYRhGx8IEo9HmKCwslIULF6qQ21aY95VXXpGnn37a+0vTlJaWygsvvCC//vqr9xfDMAzD6FiYYOzA1NfXbxiwuPGv+zvf6+rq9Du40/nS1G+N4U7LwHLd6Rp+94XfGm4HrFixQq6++mpZvXq195eNNLU89zvjWGZISIgcdNBBctRRR+nvLu74xrbHMAzDMDoqgf/n4P1sdDCWLl0q8+fPV7fsTz/9JCkpKWp5w/X6yy+/yKJFiyQwMFDi4+OlqKhIJk2aJJGRkToQzzdjxgz9PTk5WZeXk5Mjf/zxh3Tu3FkFmUtVVZUuExE2d+5cmThxohQUFEhSUpIsX75cvvnmG3UPR0dHS1RUlE6XkZEhv/32m1r12A6WFxMTo79/9dVX8uWXX0q3bt2ksrJSEhISJCgoSFauXCk//vijTJ06Va2CLD84OFi34dtvv5Xy8nL5/fffZebMmTJgwADd9oiICOnSpYsuh2357rvvZPr06ZKZman7zXjmwyXdt29f2W+//XR5hmEYhtGR6OQ8nM2U0kH5xz/+IS+99JIMHTpUwsPD5aqrrpIlS5ao6EpMTFQLHgISty2C7ayzzpKLLrpILrjgAhVUfC4pKdHpEWxvvvmmPPDAAyq6EGEuCEkseQjLgIAAFZss+/jjj1eRhkWPfw877DC5+eabVeQ9++yzKlARsQjaTp06yYMPPqju6Lvvvlv+/PNPGT9+vOyyyy5y5ZVXqvi74447dH2I3LS0NDnllFPksssu0+XFxsZKv379JC4uTreNZdxzzz1SU1Mjr7/+ugpn9pPlI4inTZsmBx98sDz88MOSm5srJ554olokOWaGYRiG0dEwl3QHBzF17rnnyr///W8ZM2aM7L///ir6EEp33nmnWgcRZ1jrhg8fLgsWLFCRheDDNYywwuqHhW7ChAmyxx57bLA4NqSsrExuv/12FYO9e/eWjz76SI444gh5/PHH5cILL1SrZnp6uopPxNojjzwiDz30kG4H82IZHDt2rFx//fXStWtXueWWW1RgYglkOoQiou+pp56S008/XQWs67bGShgWFqbLYt8Qjr4gkC+++GL517/+pePPOOMM+eCDD9RSaRiGYRgdHROMHZyRI0eqJa5Hjx7q2kXIISIRgghCxFt+fr4KLKx5X3/9tX5nfM+ePdVah7t53bp1Oj1CDeHWGNddd53stttu0qtXL11v9+7d1fKIa3nUqFEqThGjWDNxGRNPiAt52bJlOj/WztDQUN1OthGRx4CoYxrmwZ2MSxorZl5enqxfv17nZborrrhC9tprL12fr8scELnsD5ZJLJvsIyKVZRiGYRhGR8cEYwcHQYgIAwTSG2+8oVY7soKxACIEARF44IEH6rSIssWLF8sBBxwgxx57rLqgZ82apbGHgwcP1ukbA5GHaxlwTbsDuL8DwhA3MRa/5557Ti19myt/gzuaeYip/Pzzz3Ug7vHMM89UUQqsm/hId30NwSV9ww03yK233qqWSWInWaY/snbtWj0eCHRiRolFRTTPmzdPv7siGRDOiGmEN5birKws/Z1zxTkkdnTOnDk6DrHsJhgxHzGhLA8BznxuQhDhA6wDazPzcY3gyuclgmvDV2Rj2SVudcqUKRrugCWadRPSwPwcd+YpLi72zmEYhmH4IyYYjQ3wEH/11VfVCoiL+rHHHpNx48Z5x4pa4HBNk3SCSMBKeOihh6powB09evRoteRtL8QM4hpm2QhGXMS4opuCZBiELOIVd7c7kM9F3OKWwKqJ6KVUz6OPPqrzXnrppZqE449w/BG2xGFyfLDccoyefPJJdcnfd999kp2drdN+8cUX6rr/7LPPdBzzuMIQUY57/z//+Y+GBTCO88o4kqAIH+C4PP/88/LPf/5TBSRW4P/+979y7bXX6voIG8DNz7Svvfaa3HvvvfLiiy9qbCsDLx7PPPOMbjPbwUsIy0BAEobAfO++++4mItcwDMPwP0wwGhvAikicHw9vLEaIDaw/LriljzzySHnnnXfUojVw4EAViVicEAIITSyW2wsCDuGCgCWbGrHz888/e8dutE5+//33al0jk5kEGsQJ2dAIIqxtiFhXOG0JLGdYJVkfljvmxS3tj2Dtw2p4ySWXaKIP5wsrIUlLlBsiFhTrIZbXv//97xones0118htt92mMZ3vv//+hjhULK/Mc+ONN6q1EdGMVZAEI14IEM6IQ+JUP/zwQx3HcUIMMo5tQFySNIWF9vDDD9ckKEQ/54BxJ5xwgiZIsTysxRxXLIokQ5133nk6X58+fbx7ZxiGYfgjJhg7MCSOIPpcyEgm2QM35GmnnaZlbfbcc0/9HRBpCAJEIhnKxAIST3j55Zeru5ppG4tfREQOGTJELYEuxEzivnanx108bNgwFazERWK5whXK9uDqJDbSTaahvM3RRx8tb7/9tlq3cIEiXNg2rGRYGhEzCCfX1U2MJJnSLqwX6yMD20cWNLGcWOsQXmwDCUDEOjKeTHL211/gWJBgRDwoyUpsL0lJxHGy3QhC12rHd0odIcp23313/R0rX2pqqma+cx44H7iKsSKSeIRY53hiUeYYYWlGUOKqxgJJLCjHdNCgQRr3ymcs0FwXI0aM0GUhSBlwSRP7yksIlmDEOVCiiLAGts0NizAMwzD8Eyur04HB+sbD3xWEgNBAMBC/x+9YEhFNrqvZFSK4axGLXD5Y5bA4MX3DZBJAIGAxZBkIQ0DkEc+GWEC8sT62ByGEaGQcVi1+R6hh2WLZiE5EINvFdmIhQ/jyL/NgtWJbsDr6ChGEC9nUrmhlv7GCsf1MB1i9WCfzsn8sCxHE+hBQWNFYxs6GckCIeWpRwl//+lc9NoQRsA+IZizBnB/iOLHQIuo4lriuOV9YJlkOYpJp2ddzzjlHjjnmGC0fhFWQWE7En2txxDKIC5lSRYhUPnNesRKef/75ui7EIa5uXiJ48cAdjQXTPW6cf4QtFmniRAkBcK8JwzAMw38xC2MHBnHmKxYBaxrWJixViCusUL5xiYzHqoUYAcQUYoB5GhOLgCBkHl9hwPws27UwIhJZBv8CQo95sGAxH9uKhdC1GFIrsX///joNYhGYB3HJPCzL12rFdL4WTqylLNMVi4BIZL9ZBtNiyWR/2UZEqT+Ixa2BhB+EIPGCiHaEIslJWJU3Z9HjmHAuiU1FhCOsCU1geZubryEcX5bDfFgS9913X7XUuufLBaslCTCEAvBCYhiGYfgfJhgNo42BmMUF7YL4xnUMCGqENcIOgYsVkLqUf/vb39Tqh/g/7rjjVAgznSvQEdAIRZaNQCemkcQjrIkMvFgQFoDYQwi6dSwR04xzXwYYz3L5HTf2Pvvso8XOb7rpJrWEYuEkGx/BzzazvXwngYbkF9ddbRiGYfgX5pI2jDYGsYRY4rCAAgkwCD8sefzOeMQiAxZC4hIpw4PIxIKKWMMlz2+IO0QkMY1Y+BBxDMyHu5llYwlm2QhTBB1JTsyHUHSXj9hkPKECuO+ZBxc+3ykDxHIQmVh/WR8hCQhFLLeU2yEphzqZxKa6VmfDMAzDfzDBaBjGToVyPAhKrJAWz2gYhuGfmGA0DGOnQvkfXNP+WvfSMAzDMMFoGIZhGIZhbAFLejH8BmLaiGezNnGGYRiG4V+YYDT8BpIl6ExCUoVhGIZhGP6DCUbDbyDDl4xaMm+N7Yci5GQpA9nNFn1iGIZhbCsmGI0tgtCgfzEdVCjiTEYr1kC3yDL/0nWF5AVECl1V6A4ClGuhPAs9n5m3YZ093NCUZaF7DAWcfWF6lufCeigF44ogQFxSRoblU5jahW3mO9ZKRChdTlzYTvpN8y+lZPy1Z/T2cu+992rnFfb9vffe26QvuGEYhmFsDZb0YmwRRB7Fnyn2TPcPRBh19y666CI55JBDVHg9/vjj2tVj0qRJWhrl1ltv1W4r//nPf+Tnn39W4UjdPtrI0aOYwtKIROajEwnz0IZuwoQJ8uqrr2rPYwpHIw5xUwOtAyki7fauZhyFoH/66ScVm9QlpEg0tf4QSpRpYdvY7iOOOELnpX4gfY1pX0fdwJkzZ8rYsWPliSee0HW0J/bee2+566679FjSm3u33XbT42AYhmEYW4tZGI1mMXXqVBV/iKuHHnpIxR+9iN0i0lj4EHgHH3ywFmGmSPSzzz4r33zzjVx77bXaU3jw4MEq6BCIWAZfe+017Td8ww03aBeQ2bNnqwXRBesfgwuic8aMGdruDt544w3tSUwfYwQtgpP5sX5efPHF2mXkxRdflNtuu02ef/55ef/99zf0kP7www/VeokYPe2003R5bRHEPPvD8cfy21jCEEW9zz33XNljjz30u1uUm3Z8WIMZ+I1jgxUZiyzjEOiuK7uwsFAtsRz7hQsX6jjOB5baxYsXqzXXfffkeqAwNwlMXB9YmxnH9PzO9i5atMiSmwzDMNoQJhiNZoGYQAxipdtrr73UuogQmD9/vncKUcshLegQanTreOedd1TMHXvssTJ69Gi1DGLV+/3331VgICaZ9rDDDpPjjz9ehV2fPn28S9s8iA9EKMvGaomQxaLIsqZNm6YudD5juaR/8ahRo+SXX35RQQRYIxG2bPP48eP1t7YG52TixIly9dVXq0A+8cQT5ZZbbtkgqF3YZ479F198oe5pzssZZ5yhv+26666y3377bRDnDzzwgFx44YV6fs855xz57bffVEz++9//lrPOOksFP8ebzy+//LJcd911ctJJJ+l14QpMLL68BHAt8CLwwgsv6Hq5VlgnHV0Y2B7DMAyjbWCC0Wg2ERER6nYGhJ/bCs6lX79+G9q6IR6wKg0fPly/A+Ktf//+aqkidnHWrFm6DCxg9DKmnZzbo3hLYPFCMPXq1cv7y0awYCFQEFNYFRlod4eFk/UA68Gt3pZBFGPtxXKItRZrKi72Dz74wDuFB46Ta/3DwodV9tJLL5WXXnpJXdS04+NY8DvhBrj5EYOIasQeghEhiFXwoIMOUqHOef7000/lqquukscee0wtksyLWH3uuec0LAC3P0KW+EnXcozVkXOG9ZmwAsMwDKNtYILRaDaIDndARGDlQ0Q2BsKS7h0IN1esIDqYD7EWHBysnT2IPXTdnr7CxsVdX8PxCBaW7/ubOx3LZv1HHnmknHzyyTpgGbvkkku0v3FbR4+FM6xavUZWOkLs8GNOkrrwJIntMVRG7b6vfPHND7Iur1yqa+ulvGrT7GiONS5j4jrpNU0sKUKd3xCbxDsi8gcOHKjWV0IROM+AJRLByDh6S2O1JS4S6y7fmQ7BSGwqrup3331XXwr4jMAHLJpYnelp3dYFu2EYRkfCBKPRbH744QcdyIj+7rvvNAYQodAYXbt2leTkZLXuYV1CSGDxw12MlZHkE1zGxC0Sf4c79JVXXtnExY2wJMYRqxTjSZBxs6+xTGKpIjZx3rx5unzcpywPyxiWRObFehkTE6PCknldC2hbZlVOuUyYmSPfzkqTguIK+X1lqUxfUyLz0sqkuDZECspq5M9VJVJUXiPTVhfLvPUbrcCIac7L//3f/6kLn3jPo446So+Le3wQ4gx89j1evBwgNDm2/I7YZDq+u5ZbjnNiYqLssssuGlNKUhTnFZEJnHfrF20YhtH2MMFoNBvcmffdd5+6Id9880212OF6dEFMuCDSbr75ZpkzZ47Gq5H4wrwkXyAisPQhVEiYYByxdyRT+IqJ4447TjOtWQ8xcQhUhIm7HpJuEEDExbEMvpMVjeXrhBNOUIHpLpt4RcRueyDAEWnYDJO79ZBI5zjPmzZJKivKJTc7Qz8P33Ufz4QOjvyT0KBO3m+ec4jV98wzz9Tjj2gkbpTzgahDcOPqJmyAWFPc3W4YQnPg/GFpRDjuueeeOj8vCFwPDSHZhlI/WDcNwzAM/8bK6hhbBDcmSQ5Y9RAZZNhixRszZoy6NXEzU8YG6xHiwLU24W5GMBLfhkjBIojLk+mAOEYEClZFsqoRn7gvsU6xLoQHmb8IF9bDvIhKXKZMz/JZNutg+fzOvIgWhCNiBOsmljN3e3GDkgVM7Ue++5O1CzdzWWWtBAZ0kvCQpi2hBWXV8uOiAmf/q+SHD1+VL9//r3Tu2kMqystkwID+cun1/5Sw6ES58swj5NwrbpUj9t9dbrryAhWJ++67rwrwyMhIPV4c+8SkznLqpTdLztql8tRDdzmCPHDDOUT0U57n0UcfVcF+//33q1Xxxhtv1HNAljnZzmeffbaKehKIyF7H8oslk9sLlkniGjkXb7/9tr5wYJkmjpGsd7Lr2R7DMAzDfzHBaGwRVzD27t1bi0FzySAoEA7NwY0zbGoelt/UOOZjftf12RhNLd+dl39dV6u/gUisqqmT3OJqWZxVLqWOYBzUJVz6J4c3ub+1zj4VltVKRGig1NZUyfKlS9QiiLV18JAhEh3jCHLnr3rp0sWSlNxZEuLjZJUjkIkZRVxTHgmXNOcTUY319dxbn5A+A4ZIcW6GBJSmS0pMmAwe2E/jGzl2WB0R+Fh8AdHN7wg/zh8CnFJLvAwg9LEeIvbZB+IVeVlAuLMcwhX4jNhEwGMBxr1tGIZh+C8mGI0tgiC48847VRyQ9Wq0DIVl1bI2r1JySqokzxGALklRQTKud4xEbMbKuK0Qe3r77bdr/ChZ7fPnL5BJU2fJX297TOKTUrxTicRHBErfpHBJiQ1Vl3ZLim1uOYQiEN+K1RPrr2EYhuHfmGA0tgiXCK5iEkhIaDC2j7KKGpm1plgTUiqq66R/l43u2ABHlyEYx/R0BGNoywtGXPXffvutuvKxvsbFx8uI3faR8OQ+kl60aSxhUIBIcnSIDOgcLknOvy0F1xOlj6jFiZXTN/bVMAzD8E9MMBrGDoA/szrnL21Vdpl8OSdX5qeXSWlVnSPGwmR492gVip2jg6W/I86iw4IkNDhAk1taAyzGJJqwTbiVAx3BVl1TL3ml1bIyp0Kyi6uk1ueuEOFsS4+EUN22EEdF+qNr39g6OPec47S8clmRWS77D9sxL4K0FnV7t3PtDRkyREMU7JoyDP/HBKNh7AByHBH2w/xc+XpBvlTXeX90GN8nSnbtEyv9HDGWEBnsFw9OtnX++lIpqqjVWo7i3aSYsAB1lcdFBHt+MNokJFZRmmnionyZvqZYdukaKVcf9r8F8FsDQiGIVyUznzJYPH7eeuutDWWXDMPwXxqPqjcMo0VZm1chk5cXbRCLMaEBslffGDludLKM7RUtiVGeQuf+AO7nPfrFytCuEY443OgWr6iqk0pftWu0KTh3c9cWy/vTMuXpH9fJ5JXF4rwT7HDIpH/iiSfkk08+0UQqrI4udBOi/BVikvAJwCI5efJk/QxuySfmxVpOjVbm+fXXXzXUARFK1QTqs/7444+aie+2BDUMY9sJ/D/SJQ3DaFWiwwIlvbBS0gqrZGiXcDl5XIocMDhekmJCJQB/tJ8RFNjJEYtBkhTlsSbml9VI3+Rw6ZlIG0dzH7Y1VmWVyXuOUPx+Yb4sSC+TipqNjqXw4E4SHx4oGQWV2zVkO9c2183mYm8puUTcKj3kKcdE+0g6CFEO68svv5S77qKsU5D+TqkuOgtRjokyTtRwBUpr/fOf/9S2lmTnU/qJ+GqaAlAzlEx+2lFStgnxSJtLRCb1WakkYBjGtmEuacOvoIvMqaeeqjd86vy1F/gzS8uvkLW5FTK8R7REOg9Vf7Ao0mWHvtJPPfWUDB061PvrptTU1klZVZ2EOGKA2EqLN2sbVFbXyuqcCvlxYZ7MXFfinMN6LfjeEGJUO8dsf1JTREgnOWp4oozs9b9F2l1wSVM/lXaSJF9RC5Te5NRypdg+NTrpMU4WPdclApPSTLT35DeYMmWKXHTRRTo/rSvfeeedDbU8EYx0L6KY/+mnn66C8+eff97QH53uQ4ZhbBvmkjb8CoQVlof29h6DyOqWEC57DIiXqLAgvxFdZEpzvKmL2BRBgQESEx4kYSH+WcvSaJzMwkr5YFqmTFlVLKVNiEXoHhssZ+zaebuHE0YnS6+kLfdqp14nBf6pCzp48GD9l9ae9BtHFH744YfqpqYGKG7nzUF9T6ahlicWSq5lKjq47UQ//vhj/ZfC/+aWNoztwyyMhl/BzZ5uMtz8eWAYzQOrTWlpqVpZsNICx8/XBUdbQFxzdLehPBKuPx7QdGnBykOBbSw0dGYBRCQDD3QexCybGDHixnjoIx7XrFmj43kgu+vCWkT8GfPQ7YXxCFN+YxqWwbxsn5XUaT0o8I5Fe87aEpm0tEDSihtvwRgc0Eniwre/hFNkSCc5blSyjOsX5/3lf8HCuP/++6sb+euvv1bXMkkvXL94FoiQcovDk0VNcsz69evVwog1kRaTvhZGCr8vX75c3n33Xe1VT4MBrmPakVIY3l0WIE7dLlOGYWw9JhgNv6KtCkb+jEgKCQzsJMHO0NKWOPfPlP83/ItlTTNnzpSPP/5IxRrFuSmbc8opp2iRbgQeD2fa+mGNYVmXXXaZtgjEJY1gfOyxxzSxAGF39dVXa29pXH1Yeq677jp56aWXtIMLD2Ue7iwbYfr999+rILzqupuk14h9pHt0rbzzxqvy0UcfqWDE5XjHHXfog5t1EHPGA55zi0ilBaTRulTX1GnJpF8X58svywqloLxWSzy5DO8SLmfttf1/a5SBigsP2mwMoysYb731Vn3Boe3kGWecoULvpJNOkgsuuEC/A3U6uT6IYTzxxBM1JpH2oVxHhKxMmjRJr2XiF7neaS7A9Oedd566pM855xw59thjVXhyLXKdcl0bhrFtWNKL4VdwY8fiQAcQbvBthXV5FfLixPWyPq9SuieEbrYXdHOodZ7oZLWWVNRKsTNQ4ob6iPmlNbIqp0LW5lfI+oJKHYocAbBk2XJ54l+PSN9Bw+Xu+x+RgYOHyIP33yfHOQ9M2vRhySE+7IEHHlCrDdaXI488UteF2+6YY45RIUjmKjFkPIj//e9/q1Vm2LBhKu6wNpLdynm5++67VQzSZnDVqtXy+Y+Tpefw8fL519/J7D8myjNPP61ClPgxrJC77rqritbPP/9c20teeOGFapVsqv2h0XLQm5wwiKHdomR3OggFddJrqqzKIxx7xYfKocOTNOxgewbqhwZT7X0zIPLoMEQMI9ZsLNC//PKLHH744Xqd0XOc/uZkPZP4gsDEiog7meuR7GiuU4Tf8ccfr/cKXmbIhKbH/XHHHadxilxXiEpepLBEkhDD9WoWRsPYdkwwGn5FWxSMJBe8+2emTFtbqoWv+T5qM4H/TYFILHAEYRpCML/SEYWVsiK73BkqZJ3zObOoWjKLq6XQediXVDpi0jvkOvMsXbFGpvz0tRx9/vXSKTpVOoVFyy/ffS69Bo+SWXPmSlF+jlx77XXOAzNG475w4RFHhmsZwfiXv/xFW/QhGPkX1zFWXhIRkpKS9HemOfjgg9ViQ8wZlsg+zrRLliyTqTNmy+i9DpLpk3+Q5Qtmqet75swZ2rsaYYAIRSyQDYsFCEuQicUdT3hooAzuGqXde6Kdz9RkjHH+3X0zbuSWBFFIcpX7t92tWzcZM2aMCkesh3vttZe2IGUaXNSIRa4fpiHLed9991X3NJZJrNSIQ6blmuZaZTrqPPIb05I4xzXHyxGf7ZozjG3H/noMYzv5Y2mhTF1drJ+pVpKylRmnCMzlWWXy+/JCbRc4b32pLHNEYnphlXaDaeCB3izBIaG6DSVV9SpAV+dVyLK0fCmuCpA5znKzi6ocMRiiD07ceL7woMYSSO26WbNm6UOdh7jrXkco8pkYR7pz4ApkDFV2Qug37WxpZUWZSFiMFAYnS3hidzn//PPV0shDHLAMWdzizofklL+MSpbLD+guBw3ZcWEBvIxw7bhg8eMac+NmGY8YRDgiAt1rhfjZPfbYQ0aPHq0vG8yDkCSmESF5wAEHaPFvfgP+ZX7c35TwQVxy/RqGse2YYDSMbaSuvl4LIU+YmyNVtY6gcoTTIYNiZb/Bm38AM1+5M8Oa3Ar5YX62fDM/T+asK5Ws4mopqazd0JYPIRbqCLHIkACJCQuUpMgg6RITLINSwmVo6sahb2KoFtjGG7hu2QKpKS+W9FVLpLqqUiKj4yQptbusWrlcZsxfKj/Oz5B/f/Cj5BSWSs++g1RUuiAAsSLiNn7//ffVHb2l3uEISPRkfESQjO4VK9179JSIqBgZMW5vGbLX0bLLnofJqDFj7WHth9DmsXtCmAzpHuX9xTAMo2lMMBrGNlJYWiM/LMyXTG/26YDkMDl4WOJmg/6xJs5dUywfTM2UR79ZI5OXF0tNnSeZBRCdiK8e8aEqDMf1ipa9B8TJQUPiZd9B8bJn/zgZ1i1KBqduHHB/j+wR7aw3SOb9/JFMeO4e+eG95+TgA/eX8WNHyLjd9pRBu4yVVx79h7z93CPy7svPyLBx+0heSDdZnl2u2wSIP+K8evbsKcuWLdPkI9fCg5hkaArm7ZkUIWcff7gkx8XKBy/9y1nPE3Lf/ffLZz/8LlXedRj+h2tBNgzD2BwWw2j4FW0lhpGSJb8tLZCflxRou7+o0AA5blSSxoeRLdoQLHnrcirk89k58jUWxbQyKXdmTIwMks4xoVoUu09SmPRLDpfeiWHSMzFcUmJDNVkBS9CWHupr166Vzz77TG655WZJiIuR3XcdKxeef54M6JEsXZNiZdyY0RIdEyvVnUJkyOg9ZO9Dj5fgsEgpqXIEapce0qPvYOmSEC3RUZGaIEDpHTJWiWXEOoh7b+TIkepC5DdcfAhLXM2cJ2LTKGfStUuKDBoyRCokRMrKq6RHv8GS0H2QhEVEy5C+XWUXR5DikrRYMsMwjLaFldUx/Iq2UlYnt7hK7vxsleSVeayLuKJPH5+q4s4X/rwKnGkmLc6XiY7AzC6pUZcz8o/yO/v2j1HLYXJ0iISHBGiR7G2B3rvUppswYYLGgYGvKGM7qp0VF5dXS1pBlazNr5LKmo3xkWwPSRCxnYrl8nNPlptuulGTC7YFXO6llbUycWGOVNV7rK2413skhMou3aL+5xgZhmEY/o/duQ1jK8GFO2Fm1gax2CM2RI4f2/l/hFBZZY3MWVMsD3+1Wt6dkSMZxR6xGOUIw9HdI+WyfVPlrD27St/OERIdHrTNYhHIJqUNGskBCMWGFjwslGxfYrQj2npEy8FD4qRfcpjEhgWqmEM4Fjkib9LcVZLYa4iM2+uATeIbtwYsrJRY2XtQkiREBKkY5bU00Pl9C4ZSw2h1qO9IqaeGSV/tBVoj8uLdGlDSiF7eNAFoCHVa8XRsqTuPv0CZMGp8bq7LVXPhWqK0Ex6y9owJRsPYShasL5Fpqz1txkIDO8lhwxMkyhF8LljzsEB+PitHXpyULmsKqrxjPEWSz9g9Rc7fp6uM6xvriMSWUVCUyHnyySebbZUNCQ6U4d2jZGzvaC2xQnIN9BowVC6+7RFZnNdJVmSXbYhv3BZiwwNldM8oSY0N1pjMgSkRErwdothoGYgn3ZmOJQQNNTkfffRRefvttzUjHyGyo6Du4+OPP95uH+7//e9/tQc3IgZPDceY4v0tAUKUvt0I7oZkZ2fLI488IgsWLPD+4t8Qp33PPfdo/c6srCzdL2rWbgs0POCYf/PNN95f2id29zaMraCyqlbFYnFlnX4f0S1SRvWM3iRucV1eufz7p/XyzcJ8yS/33KijQwLkuBEJKhRJYomPDN7pyQbamSMiWAZ1iZDd+kRrBrZLWVWdLEwvlxmri6WKrJxtgP2LdZY/oke0I04jN5sMZLQ+tbV1sth52Xn25/UajrAzoM3f9ddfr2KRVpFuKAW1QLFQ7QjoULRo0aJ2a2GkjzaCDi8D1lSOeUu8ICCKaMuIRa6xF1PO39y5c7UGa1uA6486sRUVFbpvHDO6D20LlHGifNObb77ZqPW1vWBJL4Zf4e9JL3TNwCIX5rxq1To34SOGJ0jPJE+7sYrqOpm+olCe+Tld0gqrxHk+azLLEEeQXbxvqowfGC9RjmgKwAfsR7A9ESGB0i0u1Pk3QIs5V9bWaxcQCoOvy6uUmPBACQvGfb31245VcXvc7ca2g1DguqSn9Ht/Zspb07JlXUGV7DcwTs8vwrHhwCnmOm8ILQaJTW1sHgZeLJqaFxAUWHSwJj7//PPaxYUwCqxfdGuh/iJJVQg6HuJYgLD8kKmvNT+dhfM7bk9aTBYWFmr9RsYjUhBGtMak3SXjCM9w+5v7Mn36dO2hTqcY5seFyjwsl/sP87FM1oeAQEi466OOKMtENGEpZXsQn4gEEsAYfF8E2VesVkzPOpie2pEIOVpksk7OEfc65kPE8hvjmIb9zsjI0GPHdjEtRfOx5pGYxva6ywH2h+Q3tpFY8Li4OK1ZSVcl5mE7EUocW7aJZZLUxnZiaVuxYoVaETkHCE7W4cJxwlpJsXW3gL977JiXc0BbUgqm082Hc8GyWBf949kmjg/bwT6wbIQa2+5uC/uPm5hjwbLZd5aDCGa7mYdzw3zsC8tmHe61wWfqdALXFdZOlst4zgP7R9cgjhP7iEWQ9pHsE4l9vXv31uUzH+tgW5iO8862A/vCetlnxnGNsF0ML7/8suy+++5a07Y9Ykkvhl/BH3xbSHqpc562heXVjgD0tEMrKq+R7+blyk+L86WgwmO9SYwIkr37x8gRuyRt4rL2d4rKqmXuek9dSPfmgJDsTwZ3UpijQur05szDjJur4Z8QTrAss1xmri6WKSuLnOtyo1tyXA9HKDQh7A4eEi9Duv/vy9rS9BL5el7T1pMw5+9gH0eIDu7WeF1HhA3dW+j5zN+4Cw9nWkXedNNNMm7cOPnHP/6hYgRhgQihewutLHkgY4mkbSDijQc3mfz0mSbZi5aTWHkQBQgpLJm0vGwoGmk/yPSvvvqqCglcuLQPRBBwXZPsRbF5hArT0I6Q3xEahxxyiLbYJI7voYceUiGGmETMUCScFpy+5acQPH/72990XkQRApll4/5EECI6EHV8R2SwbyyXxzJCh/3Dhc4yOQYcF9d1yndafSJ++R2RRo9ujh8C5+mnn9ZpmBYh88ILL2i7RJLi+A1BRJ93jtlPP/2kIh6wEnL82A63rzdwvK+55hpt48gLPftDxyh6fCPSEGF//PGHrgvRiHD99NNPdVmIP9bLtnFvZz9pMwosk33HdsU5p8c9XaRYH/u65557qmBkGTfeeKN27eG4sX1sK8eP64awHM4tXanYHvbxiCOOUJHL+aLVJLCdHFeE+7XXXqsvK1xbXCsvvviiVoNAOLKfiEGuJ65b+u9zzNgGto39wkJ+/vnn63HmmLNcBCjnuD1ir/2GsQ1glYuPDFGxWFJRI2/8li5fzc/bIBbpz3vm7p3lmNHJbUosAgk4o3t5YhvJ5AZ1UWeUydx1JbJ23Xp555131MLCTfPXX3/Vz9sKWdU1mGONFqWwrEZ+mJ8r3y7kJWbTGDbaWP6xuqTRgX7ljcHyGpveHWY410ZeadOxiIg8RAYPY18QXZRaQlQB4ot2lMTD3X777doP2u0VjRg4+uijtbc5FsIPPvhArVVYprgW6VH91FNPqbWSPuasryl4+E+ePFnFIiIAsXH66aer4EEE0soSYXnOOeeoKKKlJdc9VidAqGGVYr4rrrhCxRHb2Bi8WCHgEMZfffWVbjPWVkQawvSLL77Q3+jNjkDmd8Qcy6e7DVZR/sY4RghsutsgZIgFve6663QbECpupxtffF39WGwpzk9fbtox0tUJMcwxYF2IOEIEsErS9ckXzgv77lrPsAxy/BFHzIdgdmEcx4qOPawLQcU+cEwRdmw7FmGshIg+fmc7EHnsA/3ugWuG40F8NtuD0ETEYclEBHKMWDdCnulY3tSpU3Vezj/rQngjBBHGHCfOdWMWQCySbpgC54RpeAlBvHIdcG556WH5vBhwjmhswLXGv7yYkHzItdNewx1MMBrGNoLQySiokJd/SZMpq4qloqZe0FejukbIZft3k7F9YiU0uO3F7WF1wUU9ODVSxvSM0sQeoCzPqtxK+X1xpixYuMh54y9XiwA3cywA2wJCEQvYzDUl2v3GHB4tR0JUsJwxPlXO3aOzpEYHS7CPRfHkUYly5rjkRoceiR7XW0NSeQlqZHp3OGFkkvRMbLq4OxY8153oC98ZuO4AQUlfaOp60g6Q71xfiIz58+drnVASDBAvuAbdmDksQ7i5mQ/Bw/SIHCxL999/vw7ErLmwTkQfogI3IqKVFoMIFsQZD35Ew2677aZ9qBElWK5YpwsWQ4QWLlqELyKmMRBpQ4YMUZf7xIkT1VqGtQ8BzHFBRGK1QkS5fd0RivTBZttwGbPfbBOihd/4znYhynr06KH92rfUmWm//fbT6WijSB1VjhHHHQsl4hqhw98gy8EC5wvjONauKEUU8h2hyDHk2LslvXBTI04ZxzZiJWQcwp9zw7HmXCAWOSYIYc4topJ9occ90BOc4872UusVIee6+RnH9YG45F+mOe6441QcIhw57yeddJLeo3Ads32cT4Qny9oceLewXHMtYb3kOmJg3zkO7rHiO/vHdY0Ln2PGvrCN7RETjIaxDXBTXZFZJs9PTJM/HbFDPFh4sKeu4kWOWOzuPDibcvm1NDx8sE648ULcrHgYcqPkQevGQLlws+NtmWm5CfIWzwPSfZDzLzf7qspy6RYfJgNiq6QgY5XkZKx3BF6N5JRUS2ZRtcasEfvz8MMP68ONN3Tmw9LDg4+buq+Fh8/Eg/GQZvz6tAyZuSpf1uRVytr8SpmzrkQtmUbLQNxoUkyIHDQ8Sf7v2D5y0uhE6Z8UpnG1h4xIkiNGJTc69Ejy9HVuSLeE8EandweW2T3RE8/bGG78H4LHhb8jhAcPdB68iBeuP/fFgX8ZmA+xwAOZBzgi6ZRTTlGXMWIFmIYHN8vg4e1aeRAnXKcMuC9dWA9WLVeogrsM/oZYr2/YBdP7bpsv7m+umGoIv7v7xrIRT+wDAxYv/obYFsa5MXiukGP7EcNYQ3EdI5QQRyyLbXNd4Oyz7740BtvBMt1jxDLc9WBtvPvuu9WtjPXW3Q4XpmddzAP8yzkBd3nu+vns4rtNrB/rMYINcYi19NBDD1UBzL4RD4pIduPX2T93e/kXONYIQlzLnC933YzHysq9jPam3BcR9IxnwO0M7vSbg2W558x3Wn7j3vXYY4+phRgxi1Ub2C7ucVg02a72iAlGw9gG1udVyJt/ZMqS7Ar9Hh4cIIcPTZCTxqVoZvCOZPbs2Rq7dMMNN2g8EJYKbr4PPvigurhwlxE3xMOIGy0uossvv1zjg3DnEKPFgwKxB4hI4sxci86dt98on7zwoHz0wkOyaLbH3YOwW5RRKtm5BRo4zgMf4UmMEuvlAYi7iLd8bqLcvHnzJzuWuCseku+9/75k5+Tq8mB9QZXMW1+yzVnZRtNEhgXJESOT5dL9u8op45IlaAe9zPiC1Qb3HS5fLEtcL7xU4F7GooXlCRCQWN64pubNm6cvQsTnIbIQLDzEsRKNGDFCl+kKusZgHKIBtzIDVjUXxmH148WJlxj+PhAxPOyZDoHJut1xf/75p4oC2me64CLFykb2MOIJIbc5EBO8XCGaXQsq+4Y4w6qGlRI3M38v/P1hhUNoY6Hj7/TDDz9UkcJvzMdLIaKLvzEEJS+HWwvrQgRxblg2MXl8biiqEGiIPaYFXNpYR7n/sH5CU1zrKyKXcRwXhDD3Ec41wpfji1DmeOLeZZ3EC+KWZ/s5t644bAzGcezYb15AuV9hueQ88DvXBOEMXB8cU7aZ48r2cY6Yj+tvW2AfWD5WYGIeibdERAIvKNxfuW42d022ZUwwGsZWkpFfIa/+niFLvWIRThmbJEeMSJLYyB3/ZslDg/gpHn633XabxvggFHnoXXzxxRrbg1gjyJ4HHKUfcN0QT8VDmpsqMUHuTRS3GlYGHszE8PCQu/mGa+Wqi86SlNiNLkesjH8sy5XFS5aqG4abMRYfbqqnnXaaPhhxHfKdGzsuOKwJxAThWktNSZY9h/aQpKiNN1dEI5ZGE40tD3G3XeLC5JBhiRtiU3ckiBwSUfgX6yBuXCxZXK/EKvIgBoQJ4si9RnEj8vDH9UsSA5Yd4tFwH9933316XW8LCCIsWwjRSy+9VBM1eNHBFYkbHFGDKHPH8VKFixNB4PK+89KD4OFFje1x96EpWCdxksDfAutALBFvR/wbyST87bIsrGX8TTIPbnFECGKNfQe2CYHK3xrT33zzzSrcthZEOPcAxDnxosT5EceIsPKF+wDuYkIBXCspYpzzwfpJLsG9DLiJSWzCEodbmm1EzCFEgRhMhCSeDo6xG5PJct34xabgeLBe7jecK64jYkwRbFw7LIvjxnFiWu6DJO/wIsu2cA4RudsC5xdRiNjlpfyvf/2rJk3hwWF/sJC6Fu92ifPGZBh+g3NDrHf+4OudN3vvLzuPurq6+vT88vqvZmfVL80orS+rqHH+Lan/58fL6s98Yb4Ol7y2sP77eTn1NbV13rl2PBMmTKg/4YQT6rOysnSbHfFX79yY65966qn6d999t955qNY7N/p65yZa7zz06p234nrnpqfTuoPzwK4/+eST6wsLC+uvuuqq+oceeqjeeWDouXAe3humq66prf/w+6n1x59zZf0zn/xR//xXs+vPuPBv9b//MVXPnXOzrHdupDqtIwrrb7jhhnrn5lzvCNB65wZeP3Xq1Pr09HTdXudhq9tfXlVT/9uy/PqPZ2TVfzjdM/y+rKC+pKJal2O0HzifzsO1fvny5fXOQ1f/dR60G87z2rVr9ZqZMmVK/fTp0+sXL15c74ggHe/Oy/UzceLEekfc1DtiUX8vKyvT3xkPRUVFej26333hGnfHufOyHZMmTarPzMysd0TLhvU5oqTeETL1kydP1r8vR5To72wbfxv8zrYuWbJkw3b64m6vI4o3jONfvs+fP7/+l19+0X2sra3dMI57H39zbBPbAs4LWb0jLOv/8Y9/bLIctn3GjBm67e7ftPMCWZ+RkaHT8Bv7yu/sN/vHPkBubq6O45ife+659Z988omOc0RcvSNW6x9//HGdzoVtccRkvfMSqvOyTPaZ48O+cMxZL9vKOAb2nb9556Vxk/PMv+wngzut81K54R7GwPY2PKe+56e4uFivAfbfPb4cx9dff13vNcuWLdPfgH8doavHld9ZJtvOvnMM+c76WQ7L4BjwO/iOe+KJJ+rPO+88Hcex4ng4LzE6nvvuYYcdptvcXjELo2E0AWFJf64olDf+zJZnflwrn87MkvemZsnyHE/cTkxYoBw/Kkn2GhC3w+IVmwIrAS4grILEEGLBw1qApQZXM2/iWAhwA+KecV177oCVBJcOb83EMvHdhbgvdzri4vqnhEtkWIC2/IOy6npZnl2htfh8l+kOwDKIs6QUBlYhvrtZmNR3pMd0amzIhmVSx3Le+lJdptF+4HrAJYl1ivPPv+5168Jn3HxYxrGg+V6rzEusI9Y1LElYtPgdqyW/u7FjxMDhFnW/+0IcpDvOnZftwNqHlQ9Lnrs+tgOLFy5hXLC4Q/ndhW3DSon1zN1OX9ztxfLljuNfvhOLiBWMfcQS5o7DioWrmm1yXZskkThCRC2svsth27Hks+38XfMbLlg3aYTf2Fd+Z7/ZP9fdixvcPQ6sHw8AFkGS2LDWubF5LmwL20WMIB4Dlsk+c3zYF4456+U+wzgG9p2YU6x8vueZf9lPBndarJccY/c729vwnPqeH2ISuQbYf/f4YnXknse1w7bwG/AvFmo3BIBlsu1YrzmGfGf9LIdjgRWZ38F3HPctwgQIreFYET7AOeR3Sj6RWMM+tFdMMBpGE5RW1sj3izzuruzSWvlxcYEsyvS4fGgbfcLoJNl3kCO+QvwrE5obFkHl1H/jpkasIgM3QW6iuJRwIZOkws0fgTl48GC96VGrjYcI7m1u8NyccRUB0zE9hbiTooIl0RlcMhyBt8AReE2BgOUGzYMX9xUxktyEXaLCgmS4IxpTfLrN4J6mjM/2tCc02haIBEQR16A/w/bhXkdw7AgQR7i9SQhpaRCOxDTjLkZYIe5uueWWDS90viBuCXPhXuGPIIbJBD/rrLNUuLY01IDk2CAmuTfiaud4sC5EOy/mm4u/bOtYpxfDr0CU+EOnl7r6evlhXq5MXbNRBFXXiRaypjzJ6eM6y4FDE/yibA6B5lggiIVC5PHQJcicWEVuXtQ4+/7779VigEWGeEdKchDMT6A54hIhSTwRCQk8mHgT5/hjdaR+HMH/xFbx4MIqsHDBfDl0392ltr6TzJ41U3r2Gyy1QeHyx4+fypFHHSm9nbd5gtGxcvKQ4+2cGCdihwjOJ4sR6wdv++4NNsRR4cnRwVoQ3c2WLq6olXJHMCJOrVtM+weLHi8SXGeudcgf4Xrm72ZHbScCjb+jhtbYloC/P/6msdRhLcUiiDXOtW76wm9YPtkefzw/WAd5+UXQu1bblgShyMs0MaUMJEC5FlV+99fj0lKYYDT8Cn8RjJkFlfLmn1lS2qDMC9nQBw2KlcN2SfSbGouu2wzLADd015LHQ4CMaR5qfMfCiIsH4chDguNLth/uNNwuBHMj8K688kqdlxsuwtH3M4H63DQRpf369pGuidFSXhss0Z27S0RktMQldZGBg4ZI187xKvBYN9tGUD/ZrwSIn3vuuWrhpBMEQehuoDwwD+KwzFHntKFDoOPtT4wMkXA/s+QaLQ8PW641f3/o7ujtbO31ucvnvrCl9fjz+dkRx4mB48Tgux5/Pi4thbUGNPwKLFk7uzUgxaQ/n5Utn87Jk6rajX8eJJbu1TdGTtktReJ2QjZ0a0KGH3E5WCpxYzeswdYU3D4Kympk1tpiyS/zuI5DgzrJiG5R0j1hozWEuKjXX39ds2GxZtKOq6qqSh5//PFG11VcUSPz15dqy8VRPaPV8tjeb8aGYRj+jAlGwy/AZYqYQERQbJpYGSxn1AxsGHzdmvDnkFNUJS/9mi7zMsq8v3oY2TVczt+7mxZDbm/gPqbVFcedOJ3G3FFNwTGjJdyUFUVSWeO5ndBXeL9BsdoxBqFHwD4uckoAYQHFdcN6sG7yZt4YdH6prK6T2AhPkLvRfvB97LjnlphaPjd1PbQErNddd8P1+I5jO9rbNce+1dXVNXp8W2JfSZQhqQ7vg5uo4q+4xwIrYVvA92/DvUZha88b82IcKCsr0xf1rZ3fXNKGX0BsDm5LGu1Ti4sCrmTq0vTdzVbbEdTW1cvvy4vkp8UF4uuM7hEXIpfs3006xzbeNq2tw/HHbU1dxq19YHPTQRgmRQRLelGlcwydh4dzHHOKq6WzI66JTcT9zfI5pyS9jB8/XrM5N3fDIrmGhKKtvakZ/g3Z8oQ+UMuOBCyuDWICzz//fM3oJ4autSDkhdqivCARc+YLGbYkY5EFyza0FTHRXKiHSg1CXgoplE6LQoQIn7f3bwzxxUs/HgP+tglF8WfIpKbZAUkqbQESa9avX6/Z37/99pv+3RDruy0vV8S00wuba7y5niSX1nuVM4ytgHIJuKJJhADclmRL+sa37QhItpi6olC8hjIlJTpYTtutsyRHt0+x2FLERgbJoJQIR+h5vhdV1MrijDK1EhoGkFhFcXkeWCQ+YdUmqQrLMzGuWD5aEywsrAvB2NFAHDLgxcHKRJcVREhLQMFwynERR+2vGdS+8HKAgG5rcP7cxgqI9K2FFwM3OYfER5a3NZhgNPwCXBgkVFDPC8jYo0n+jnjLx/WZW+yprbgyq0yW5Wzs4BIREiCHDomTIV2jnLc5s3RtDmpREreYGhOq9RTR3NRTTC+sdG5uPgrc2OksWFcsvy3btg4p2wouy9dee03jZKnHSVtKYlvp1NGYCxNRg4ik5h8PeF+IdaY6AMlTLkyDIEUIIGB8QSAS6uI7fXNwt4FllpZuWjaKcYRasH3uOB7iuGUZ3HVSaaCxBzPbiLUVqyddVdxlMB/rZB/xtvjCb+62sL+UuXKPDesgcY11sx0sn5JYTN9QXGABxLpG5jXzkRznbg/z+B4/zhsiG3HpDg23i3Vy7LFa4a1wl8W84H5nXe5n/qXcFsew4fI2B/vIcfVdPiIY6zTnl2U21v2HdXMsOIYNzwff3XPpztvw+HK++e5uK/+yTsazLbzs8G9j1yvnlHVznNlmpvO9npiXcWwH+8Ix5hpouBzCtAjlccv3sAyWzbFk+Wy7774xjv11zxvjMcpgkEF0sq6twQSj4TdQyoHenLyl0j4OV0lrg8Xht6UF8ti3a2XKknz5eEa2ls9x2bNPjOw7OEHdqsaWCXWO0/BukVqnEapr62X2uhJNjGlJOG+ZWvuxRCqsTuMW4XiVVdbKorQSeeq7NfKvH9bLwvTWteY1hAcXVsWrrrpK45KxcvC3Tt08X9cY20qbOiol0K+Xgcx63HA8QBGZZPcTruK2BuRhT3/yo48+WsedffbZKioQShSjpxUhA+Nwh28JtgERx3pZJttAL2q2i2XSAo7vlLJiHOvDYsMDmISuyy67TB/srJP2h/RbbyhS2K7zzjtP3Y1UJuABznDBBRfoPAjpu+66S+dDUND+Dq8L49guSlSdcMIJul62l+PAMaCANL2qqUXoHj8Eui+ILlr64ZZGVND3nXJaHB8G6jJyTBFJJKuxTo4D7mbOFyW5fHEFDi0VsWIRWsQ2Ip6A+GXqwrIuXNfsN231ED5sH7HqiJ7NwXhaj3JcqX9I3Uh6RnPM2VbaGTLQUvGDDz7wzuUBMXbttdduuDYoH+bCNhGZh8GC/WQfaZWKqCNMAssp0K+aY4CFDzh/7COikWXj4sbIwTni2HPOOHccC7fVI8eO80MbR44/opNj/NRTT2nrQraTfvyE7jA9x4wXCl84BuwfxwPr/BVXXKHHk33jb4LrgmuU3tmEIHB8WS8hQR999JGKTgwyCHwTjEabhXgM94ZPuZUdFbv2yu+Zsjq/Sp6flCEZRRv/gPokhspJu3a2ci5bAeeMuMNRPaIk2Lm70KkFN//M1UVS3UJdW5xno+QWV8vERfny5Zwc+W1JgWa2G41TWlEjc9eWyH8npckjzovRH6tLpNxbtig9v6LFBkpRIUqbgochD2di6Ny/bf7l7973b50HJLFwVEn46quvVGTyUOXhiCWLOqLXXXedxmLxQCXG+ZNPPlHRQqkmVyzwL8uiaD2WLyovMB/CdUvwMMZd7i6bhzz19hAaCDPKQ7HNH374odYypVwV5cB4ALOtCD8ExLfffqv1+qhh2tCKxrTsA14Veq5TfgrhgmBByCGMEVpY/HAf0w8ekYGYQZBQJoukMQQY60RQcwxGjhyp87IP7777rm4/L+O+IDA5NmwDn7FUIe7YToTprFmzdCCWnON2ww036Hmgww69sKmf6gviijhUEl6AfeVcu5ZNto/1sS7WOWXKFD0uiDFEF6KUdW0OhDHHn+PK8SEWlb7XiHfWw/oIYWJ/EdK+cBx4UeB8UQXC19JMP3B67FMnln8pyM462AeuQc4vwg8BhqWVdWMl5Np069WybyyfZXDd0Mua48f09CCnLzrL4bpBVHOOeSFxraLsG/HjzDNhwgR55pln9NphvoYvGpxXBvczghRhiBhkW3g54XzynZhHjjGGGEQiQpTrluuVWN2GFswtYYLR8Cswl3PTJJN2R1BYtvEmXlVXLyXVHtdpeFAnOXFMknYgMbae6PAg6REfKsszS2XmmmL5yRF1vy7Jl+oWEHa1zsPhjxUFMs1ZLuEDn87JlanLC71jDReO9azVhfLmlAx54dc0+W1lsVT4BOcSX0o1gJYa3vg9Xc93UyAWmgPCEusgViQebHRTwZpHUhzCYMSIEWpl4UHvCk4efggrLI6Uh8ItiQBB3GERwhJIMWesU1h7AIGEJc0dfB/MCByEJdPzgGfgYYvbD9GKNQ2LFEWsEW58RtS5D+CDDjpILWDEZtMBBOtUwwc/IJ552CNMeMgjvBBTWAoRUQgRtoP9495IGzo8LwgJ5sFyhNjgmCEcEGz8jqhhuRQXR4gi8rYE+4d4RbiwX248KccXkYdlivsywrlhqBDiCsHI0Bworo1hACszVjnOI8cUkc+5wOKKQHPh2CHCONYcT4QR55FrgxAHF6yWbLuvxZp5OR6cIwQ2gprp3HEIYayCFOFme7DsIT65fhCeHFfOO+eXdSLA2FbOE1Y7F44xx5vlc644nwhCrLm0DGTbeXFxB4QiFmuswYQtIKARkVwzCFGSArn+thQTynlzr0WuU14c+DtB1LJ/XMucL8IQ3ARSltncc+WLCUbD7+APZUdRVtm4gKH+4p8riqTIEZTNfdAZm9I/JUK6x4dJekGVrMqtlK/n5crS9NLtPp7ESo7tEyshzt2rxDl/OaU18s70LJnuiEg69BgeVmeXy0fTs+U35zrOL/9fsVJYUSuLsspbbEC805mnKRAzxLfx8HWvAf51BxcednxHoLhgOUK4IFaw/pxxxhlqacS1R1wZwhCrF8KQhyxJNYgClsE6mQ9YhvsyygOUB7k7+Fo5WT9xlW5fYMYxvZuUx8MekcTvTMvD17cUlSuo3P3w3RdfeICzfSzHfcC724NYwb2NuMKSxD6w/cBymYfOLAgCRCPWSIQk62IcQtGF6bcE28x8HB9XTLAs9pN2eBxbLJhsW8OYU+ZFVDK4sE7fwRd3XfzOceM7A4KO5SOAeFlw4ZpAjHMO3OPMvxwP3+OOkGyIu3733IF7PbjXmq8oYxy/MY7jy3nB8sg0XHdcv3znmkT4ubjbwfzuZ64Tzp37TGO5gMWX6xURipjlJaB///66LuZ1r1F32zcH6+PYcSwYeMlgGfzOSwfnDasr7n83iZSXAd9z1VxMMBodmqZcmdTr/mV5sbz8S9omVkij+WCdPWJ4ouzSNUKTYNKKauTT2TmS5eP23xZ40HSJDZVz90yV7nHOw9H5Lbe0Vl79PVMmL86XqhZyfbd1+neJlBsO7yUnj0mWvomhGiLgS1xEkAxNjWixYaDzghATvvHh3RDKgGAdfPjhh9X1hvWFhy+uN193JA86LEQ8TLG8IAh58BHTx4MRAcPD79JLL1XLG24/+h7zsMS6w3S4/IiPRGDwwMUq5HYyoiwJsA6sSe7gijFwRRfuQdaPlQ9XMOIOMYUAwBpE7Bzjcf+5rfsAaxiWL/aREi5sn6+waQxEA8kIbAeWLCxvuBQROqzPTcrgmGDd4l/2kWNK/BsCB5cx+4XlDVcyx4Zji9u6ubDfDOCuj7g6LLcMWLIaihiEL+IIq5r7HUHCccMax7HyhfPOueCcIHYRgwhEzh/ngrg7xKMLAhWRxbRY5bDycoxdt/Hm4Lhj3cMlzPYQu4drGlguwprjw/HlxQOLI8vkeuW4Y8XF9c0LD+cYSyBCHjHJ9dUQ3+PHMjinWEtZNolaWM85pwg5rg3EHC83HDPOG9ZNrI4cm+nTp+u+bi0IQvaVeE3iPPmbwxrqXuNYpBGlvtd8c7A6jEaHBivM5BX/W2KDP/chKeFyxIhE6ZW09aZ7wwOiMTYsUOauK5VKR4VnldRIiHNwh/fY/raPCJ7U2BBZk1up1rLymnrnc4XEhAY452zH1e70Z2hfOdARjgg6Mv4pcUS5Ix73e/SNkasP7iH7DIxrkWF8v9jN1inlwY3bj4cgYgYXM4KMhxeuVh7ijCd+mYcZ7knEHQ9UhAiWRaxpxLHx8Odhy/RYFLEEYqmhTzkDCQkIMFx0LIvYMtaLaxgRxPpGjRrl3TIPWHdwPyIIEZw8wNk+tgGLEsKJBBWEDMtE6DKO/UAMnH/++SoQEHOuG5P5SBBhHOVMfB/QxN4xLVZBBATrZbnE2yGWmZcYR1ywWJ8QEe+9957uN/FzuLxxsyPM2D+EFkIaEFfEyxFLiQBCDCFw2B/EKMeGY8jxw9LFvrguU44D5wfLJseP6RAvWD+ZDrHPseP4uDCO2DnEFMeA/SD5gt/YF84xQhbrIS5TYkI5pxw7BgQirtXGsuVdOEbsB8eAZfISwDHg+LEs9o0Y+MY8VOwHx4FjiuhkGzhuF154obrgOV/Ev3K8qQ9KXCXXAOcLix3xs6wHQY7oe+WVV/ScInBZDtco7nziBIHxCE2OL9uG9ReBzPHgWuVa4BgR98o1Tdwk4hN3NOKV6biOeSHivHFtI2J58eDaZru4Lrh+sGASAsFLDi81CE7c/czPd44b54JrhnPNeeCc8nJDKbumrN+NYZ1ejA4NmdFP/5Lu/eYhMjhA9h8YK/sNipeuCTsmlrI9gxV3woxs+Xh2rn6PcoTLLYf3lN6dt1+I1zoidHF6qTz/S5rkeDOx48MD5YK9usjo3ju2hqe/Q0xjVmGVI95LNDwA0f7Xfbp6x+44eOgjorC+8ZDEisaDkgc1AgirGQ9RrFJY6bAqIlAQTViisNAg/hAGPKB5kGJdQwRgfULYYTXiYY0w4gHKwxpLIA9qHvBubKQviB7EAKIFgcG6WB7xkIgj4g2xrjGe7WNa9oOHN8t1LW9Y4dhGsryx8jAOy5SvwAIsfywb0eG6gFku62S/2Sf2A5HAMWB6BC/iC3GCZZGHPvtGjCeJEggawPKGsGP7XAGMhQwBwn5gxWU9HDsEDHGeuFwRe6yXcZwT1ofwRKwzLZYy4kQROsTruXDM6dTF+UBIYWHjfHCecBMjstkmBAvCjGOErYprgHPOfKzftcw1BtuFxRTxwzXE8eY4IIAQTewb57wxqx/zzp8/X48H1wTr5DhideO8YwVlX91t9LUWMx3CjP3l2mTdHFvENccIgc02cXwQ3YCo53rl2GJ5ZXrONdNwvbPNCNGTTz5ZBSFZ6lxHXD+ce5bHtlBNgO3hb4Hzx3XJPnCc+J1lcp0ienkh4zxyDSESWSYvU4hqrh2sxLxQENtKiAHXAbGimxPpDTHBaHRovpqZLW9Oz9bPIYHOH2FymJy1e4oKxaCA9tcebGdRUFYt//lhnczP9GT3je4WKZcc0K1FkoqIW1yeWSbP/pwmmSWe8IHEiEA5dVyy7NovTjvGGBuhmxE9uonP7ZW8c6znPHYY+Ptq6m9sc9PwkOcB2/B3pkccILB8ac76moLlNTVfw3E8vBFDuD3vv/9+FUts59bgbis0XG/D/WD9L7zwglqMsGL5xvA1nHZrYV4sjewHCUhYLb/++mu1NpJ57htjiGjCTYt4ZXoECzR27LAkU0YGIYoA29rtc/drW46rS2Prc5e7tdvTHBpbNtZfSuKQ0e6bPAPbuy1Y0Vk254yEHq5HrNCUaUIwc44oo4Qg3Zrlm0va2CHwVt/YDX5n8/OifFlbUCnd4kLk4MHxcub4LpIcE6qJFf62rW2ZEEe0xYQHyuL0MimvqZNCR7BEBQdKb0egb29BdM5TfESwxjOuyatUl2tZdb3kOuJxMHF1zjhjIwHO8aJUVFzkzjsunDN3aIrNTdPUvYTfGhMSm1vWltjcfA3H8ZDHooT1EyvV1rj7XNxlNlw2NPyd+yquaqxdWNd8973htFsL82ERwxqGpRALHhZI3KdY6HyXy3qx2CIQsay51tTG1k98HdOTCYylc2u3r7FlNgd3vqbm3dL47aGxZSPqsKriPm5o5Wts+q2B44rVEWslLnjc4oRTYGnGqov1lBjZrb0+zcJotCqY3d955x2Np+AtChM8QbyY7rESMA6zPqbzncHrv67X2Lp9BsVJ3+QICbYC3a0GNfo+np4p3y0qEPJSeieEyoX7pErvpPBtvjH6gut7YVqpvP57phSUV8sRwxLkkOGJVhrJMAyjBbCno9Fq8LZJYDKFUhGIuIlwRxBoSxwGMRoEGxOvsbNAUJy+RxdNDDCx2LpEhAbK/oPjpXO05612TX6lTFpS0GJZzUGBATK0W5RcvG+qnDAySQ4fYXU0DcMwWgp7QhqtBhZEgr8J8iVegow0suQoAeFbI2xn0iU+TCIdUdESFi5jy3RLCJfTxyVLoHO4aS/9zcICTVppKQgloJzM4aOSrUOPYRhGC2IxjEarQUYdGXFkJ5ItRhkBYitwU2NxJBqCIGqCcInhIMCabDWmdbMGyU6jZAUZbrivKfXAcsgOo0QCZR7IDiMWZFvihYwdT2J0iKzKLpeMYk+CSn5JlYzpFW39ug3DMPwYE4xGq4HAQ/BRloAgZzK2EIt///vf1dKI8EMwUj8L1zSlGSiASzkGarEhImkThSikLhVlLPidYGE6PNB1AOFI706yAylP0VjAu+FfkOPiqc1YovGjJVW10jkq2GondgD42+blj79hBsrOEMPcMKvZMAz/w56uRqtBjSfqglEvjLpPJL0Qt0hNKMowuJAEQ8N7yixQO4oSEQhNQBQS70gNKUQjmXgURaUGFeUrmIe6UnxGjBr+D+5/2gbuPSBWXdPl1fXaa3p9brlanVsTlp9bXCUL1hdrEk5HzfmjtM7O4G9/+5ucddZZct111+lw2223qQfBMAz/xwSj0WrgIsZdjPWANP6mrAhYESnMi8WRivUICkpFuOC+pjsBpRoo0EoRVJr00wnijTfeUAsmIhRrhdE2CAsJlPF9Y7VTCyzPrpA/VhZrcenWpLyqVj6aniVP/rBOvpuX2+HaCJJJvj6vXH5btnNEGmVgKO9BkW4GkuKwMPKyx98w/xL3TJcU35dK5nMLZfP3TkIdA4WcEZwrVqxQbwMvpBTqposKA79Rg46wGO4Z7gsCpV0If2G5LiyPZTOwLga2gcFdNyVJmM7FbffGQOkSlk/sNuujDA1WVNYFFHxmG1yYnm1jG9huPlOgmZdkF44Hv3Nvo5g2x8j3hZu6j+yHuw7DaE1MMBo7HbeiPlClv6Fbme8IT+Dmys2YGyU3a4rIUhsMF7VvIVnD/+meGCbj+0SrlZHe3VNWFEpm4fb1md4SfywrlMnLi6Skql6+dATjjwvymuwn3p5AyGQVVsqnM7PlhV/S5Iu5ed4x/gF9genXS2Hhe+65R6666iotxQWIIcJO6Id77733qrcCQcnLI0Wr6TBCQt2///1vdXljuWRZhL4gTmmP9tprr2m1BoQZ8NKJddNXlDKOlnXcS5jv8ccf13sMoTV4MB566CG54IILVLgBIo5pWR/b/eKLL+q2ElvN9tNOju3iX8JtaB/HNlKnEdFJjDcFrFkHYTl4Udjuq6++Wtu/AZ07LrvsMq19SL9h2gaSNIhQBgTxE088oaLSMFobE4zGTgfRx82ahxqWAt7QfTsW+IKVEXc0PUtxb3Gzvvbaa/UG7XYXMNoGlME5cGiCxi9CelG1/Lwwr1XdxMO6R0nPuBDtFV5aXS+fzslVSyM9lltzvTsD9qfGUeL5JdXyzexsuffL1fKZIxSX5VQ6+1srS9NLdSgq94ionKJK/b4qu2yD5TUjv0J/I1yg2vmN+VY74/kt3RkHZRU1siKzTJZnlEphmWdZm4N4ZcQXAy3UgLCU999/X1vIEVbPS+Drr7+u+0AMM8lziCZa1GGBw7vAfQJBhaC78cYbtRKDW6iYz5dccokKSwpE09YNUYbQ4l7z6quvbkjEc2FdCE6E6g033KDCFCslQhMBedNNN20IhaH9Gr9zv0LgMj1t23iZ/c9//qPt3hCkdNtAKNKjmHAahKBrVaRnMLDvCGHKjbEcqkrQSYVlYWGkbzJ9iQnFodgyYhfrJfvPtiJcaRtnGK2NCUZjp8PbP31QeTDwEOFGTmP1xsACyc2Tmy0PDR4Qv/32m755u9YDo+0QHR4sJ45JkmDnToRc+3FpoaTleYRIa5AcE6ItCYenhqtls7iyTj6ZlStfz81Rd3V7oqCsRr6YlS13fbZS3piWI7mlNVKNKdchu6RG7vxitQ5LMzzuzJ+WFOr3Z35Ok+Jyj+Xt81k5+tv707KktLJW8p1lPDcxTX/7bKbHyrXWOV9P/LhOHvlurcxfV6K/bQ4qIPA3zuDbX5mEtvPPP197BBPvjBjibxoLIV4GxBZik5dJ2py5IMoo/E/oCtY7PA2EtTAd1RN4kaQTCuN//vlnFZyItsMPP7zRJDliLBFmCDzWhxjDfc68eDaIr8a9jFgkfpoYbYZjjz1WBSovwMccc4wKSPaJXtIIPDq/cP+ifR7TYKkkBAfBhxscsUqlCCyOfEcsAsthm1iO2yN74sSJuq8cI8J5qDRhGK2NCUaj1eCmTa9Qmpy7LmVumLx982avyQ/9+6tLicbv9NTkRokVgZs1MC3tjFx4wHDzJJkGwfjyyy+rtcA35tFoWwzpHiWDUzzCocbRbN8tyFdrVmvANZcaHyan7JoiQ7uEey2NdfLVvFz5fn77ck9XOAI4q6R6g0j0FxBvCEMGxI4LQpLz4wsuY0Qj1jQ3vpBqCLiCXWJjY72fnBcQRyQiwLDu4e5FuCEY3W5SCE1eMJkOq2NjsB1uvDUxh1gA3XVzP8OzAYjHhkKNbXXjtoF/qfaAC5oWe4g+eggjOrFSIjSB8e56ELlYNJkemJ/7JrBte++9t4pNGh4QO0nFiYat5QyjNbCyOkarwc2fN2JcLNy0eZvn5o6LiBs4STHUVUQUktTC2zZv6b7lcZgXayP1G4FlckPloYMVgPEHH3ywzouYbPjAMfyf4MAAqXf+m59Wqi0Dy6trZUByuCREtU5dTa6R2Igg6ZsULssySqWgolYwLq7KrZCIoE7aqnB7+1v7A1FhgTK4S4QMSnEEEO7W/ErvGJG48EA5Y7fOMrpHlAxwxlO83pncOSZhMsIR8D0SQ/W8hAV3kgGdw2VY10hJieW3TpLgHLvhXSNkiPNbZ/quO4eqc3Sw81uk9OscIdHhTXfXIUkNi9k+++zj/cUDwgcLG3/H/O0T04h1j3g+xBHWNmIYsdgxL1Y2BBsWOSyKWCTh008/VRF39NFH6/0BK6Ib3kJ/ZzwYJKIgFg899NBNarciTlknooyQF8QebmGm52XWXbc7Di8HApF7F/Oy/XzHlY6oo4wYSTJvvfWW3vO4Z7HNWExZJveuI444QuMbqQyBW/r444/XdSCkuZ8Ro4hlk9hJ4NrlZfvzzz9XN3dKSoqce+65VoPW2CGYYDRaDW5u3Hx9E1l4E8bFww2X3xjHzQ5ByBu177TAzd4Vi74wD+KTefiXxBkTi22TAOe8xThqJd0RNGlF1VJSWSdBjmAblBLeau0auVainXUO6xalsXj55bVSUVMvy7LKtQVNj8QwCXKUUFu+pth2iqEnOWJuZM9oGdczSqocMc7xpU3jRft2kz6OMI90PjNtfGSwfu+ewL4H6G9J0SH6G2KR48H56OaM5zfc+0wTFhygx6unI7Rpxbi5Y4bAI4yEWowkhyB6EH8IKyyDhJvw90+mNLF6JHrwckkcoOsKJhaR2EVeLEkcSU1NVREHZAxjWcSKh6gi9pHxxB7y0soyyHYmHhLvhu+2IvqIf+T+hJjjHoUbm1qxLAdrI5/JZEagct8h0QXXNNvHPmHFJEv7vffeU1H45ptvSteuXXU/uJexbPZ7+vTpcuedd6rgYyBO8auvvtJjgGhlGrYBwcpxOP30071bKXo/xK1Ngg7xk0OHDt3sMTeMlsIEo2EYOx3a+NXU1cnCtFKprhMpqaiRgY5gTIgKbrWHIctF4AzuEqmJG+sLKqWitl7WOQKyZ3yYdIlrHy8h7AMW0zhHEI7sES0DkkKdF7dAGdo1Sse5++h+3txvDYfGptkcWBcRaggxBkJP+I4IQtjxnWXwoom7FqGHZRArHhDfN2jQILX2IQCZh0QZRCUuXhJO8EhgETzllFO0BA2hK2eccYYKUcQd5WzOO++8DZZHX3gBZXuwUjI923HIIYfoCynLR/xhucTLgQVx9OjROh9xl3hHGI8lkWXgYsZieuqpp26Iq8Q6yDEgpMa1VPI7Qpl9YfvYH7wmzMOLMW5s1uWCyxvxinDF9d7YC7VhtAad6ttbaqBhGG2SUke0PfbtGlmc5Ul6OWJonJy6exe1drU2mY5YfOnX9bIos0LG9IySk8Z2lm4J7ddqTYxoa1lvdxaUtLn00ktVTFE5ASiNQww0woo4SMQfbmAsjG5cdVuDZBfivLk2EcaGsaMwC6NhGH4B7tPI4E5awBvW5lXK+L4xagVsbXDLDkyJkKigTnL0qKR2Y11sisB2EKPZEASgGydItjLuXSx1JMlhIcTih4Xy5JNPVqtlWwWXN+WBsGha7VljR2IWRsMw/Iaq6jp56KtVsshrZTx8SKycsWdXjXM0DMMwdh7tyydhGEabJiiokxw4JF5CSb11mLO+TN3FhmEYxs7FBKPhN+BKIguSll9GxwRLYt/kcOmT6GkXmV1SLVNWFEltnTlCDMMwdiYmGA2/gZIXZD/SFcHouCTHhMqufWIkLLCTZkzPXVcimYU738pIuzza7HWE3tOGYRgNMcFo+BUWUmuQkLFLN4pCe4oRr8qrlHnrS3aqUGPdvy3Jl5d+WS+L0krtOjUMo8NhgtHYIjwcKeWAy5hOBtQ247sLba3IPqROmZvBx3Qu/EbGIg33G8Ntv9UQ1sG8vrBsCuy6uOtm+Xz2hfVR+Jbxvg94tpNervzLeMpxGP4FhaJHd48Ucl2qautl1upiKduJvZ5nrSqSD2fmyKy0Mnnzj0xZ34r9rg3DMPwRE4zGFkGIPfLII1rzi2b7lKqg9RYdFxBl9D+95ZZb5J///Kd2JLjooou0EwNijJ6v1EGjRRfFaelOgFBDwFH6gn6yFLGlQwIttNz4RVqBUWvsjjvu0O+AUGX9dFQA1kt9NVoL0k+Vbgp0iGB7acpPwVzaf9GV4bHHHtsgPmnDRQsuym1QhPfDDz/U3w3/ITAwQA4ZniARwZ7kl/mZ5bIqe+eJtKjwICmv8bx0rC2okhcnpUtWYaVZGg3D6DCYYDSaBe20aLlFn9MXXnhB23nRlorOBK6Vjy4LCLCbbrpJOyY8+OCD2uaKf+mvitCkHdbvv/+uovHll19WYfnAAw9oIV36piIygQcxy/S1PFJ4F2uka718++23tdUYwvLVV1/VbWJ+2oMhRBGS7777rtx///3y9NNPa5sulsG6//zzT+2QgAhmPsP/iIsMkfG9Pd048Eb/sCB3pyW/9O8SIefs3lniIzw1IZc74vXV39LV0lhnotEwjA6ACUaj2WBVvPzyy7WRPpZEXLk03Hc57bTT5LLLLlOLHj2j6btK03w6K9D39cILL9R2XrNnz1YLIs37sQBiHTzmmGPkkksu0b6qzYF10/KLdZ599tnad/XKK6+UXXfdVXuvIgyPO+44Fa5YOGmvhUhELALfr776ahW4bnsvw//Yo3+chAd5rIwLMssls2DnWBmDAgJkt36xctTweIkMCRAk4ty0Mvl0Zo6UVOw8V7lhGMaOwgSj0Wxotk9vVTpg0PeULgP5+fnesaK9UemoAJTHwfKIMKNfKtB4v0+fPjqO+EQa8LNM5qFLA90XwsPDddotwfy4pOk36y6fvqv0av3xxx9l/fr12j8WVzjDjBkzNunckZycrP1Z23M3j8bAcjtv3jxtnYbQxqq7bt06jQvlvNx3332yZs0a79Q7n9S4UBmc4rkmqmrq5bdlhTvNDRwWHCj7DU6QwwbHCVcNxs6pa0rk42mZmkFtGIbRnjHBaDQbN+kFiDXEyofgc6FZvyvAEG589k0oQZTQ+B8rIhZIpmF5WAMRAcRD8hkQfwyuRRAQiW5iC8tmnmXLlm34jX9ZBxbDbt26qesbochA/CMucLdRP/OzvR0NLLsPPfSQngf67s6dO1ctv0uXLtXjP3HixE1eAnY2tAUc3StGQgI7Sa0j0GatK5X0/J0XyxgeEign7NZF/jI8XoKdy6faUY0/Li2UD//MlLJKszQahtF+McFoNJuff/5ZfvjhBxVfuJMRc1gaGwPBxkAMIXGOZCX/9NNP+nngwIFqbSTRhZqLuLWXL18u3377rWZBA2KyZ8+eKmgQMwzPP//8hqQYhCrWS9zeCxYskKysLBU7WM8GDBig03zyyScqkNhO1kFsY0cGQY0VkWO81157yS677KJ1L++9917p16+fdyqPFZLYUZKEXAGPEEew89LAuXTPA7/zneld4d6SUGJnSJdw6ZXgKbGTVVwtizPKnHXt3LjBg4Ylyvg+CFlPfOUvywvlh/k5Ur4TM7kNwzBaExOMRrPB8nT33Xdr/OJ///tfjR90xVlDoqOj5brrrtN4RbKRyVgm+YUsZxJnsPSdeOKJKvbOO+88ufjiizWxJi4uzrsEkaOOOkotlLhOGRAwvu7na665RkUMCS5s09///nf9PnbsWDnnnHM0Q/vkk0/WdbL8SZMm6bwdFayKiO6pU6dq1jjHi3JEr7zyyiaWYDLZTznlFB2YHiswgvyuu+7SBCXO5UcffaQikex5vjMt14RvOaWWIik2VHonhomjHaWsuk7mrS+V4oqNpZV2BglRwXL82M6OmI3Q78WVdfL78iIpKGv5/TcMw/AHOtXvrIAgo82AlQnRhzURkYilDotU//79VfghErDgYTXE3ey6pbE+MS1CEItU3759ZdCgQRviHJmPeDmsgl27dlWLJNYqYgtZFutlPFZGLIpkMxObyHi+s3y+L1q0SAUP8YxYJXF38x13NetHRA4ePFjFLTGYZFIjftkHpu0ocLwpN3T77bdrkhEDnHvuuVpqiGOGsOb8Uc6IDHbc15RPQqDjuibG9MYbb5Tu3bvLV199JTNnztTkIc4TJY4QmCQZtTQrs0rlX9+tl7zyGk2Cue7QHjI4lTqNOy8GlVtndlGVPD8xTQrLq+W40cmyW99YCQ6y93DDMNofJhiNLeIKxt69e2uJGqPtgoAmdpHsdSy8iHmst76CEcsjVmDEO5nmWHKJC0UwYmHGnY3gJqSA0kXjxo3TZSNEKXHE8lsaOq089f1amb62VL//ZVi8nLx7FwnA7LiTySuukrzSaunTOUJd6IZhGO0RexU2mgXWRN84N6P9gnUXsMZiWfR9p0xMTNR/eYlQC1t29oYYUwTl0KFDdXxLExQYIPsM2Jhg9fvKYqnaia0CfUmIDpH+XSJNLBqG0a4xwWhsEbKJr7rqKo0HNNo/xCsiCBGDWB2JR20IZZAYDjroII0VpdPPDTfc0CruaJcBjiiLD/PcsnLKamRZhsfaaBiGYbQ+JhiNLUKcGHULfUvoGO0T4ksJO/jXv/6lXXmotYnbuSEkJ9Gdh+4+zz33nLz//vv6L1nwrUVESKDs1X/jNfjzogJ1VRuGYRitT+D/OXg/G4bRzsGNjGWQkjqdO3fW77id6ZDD73TiIX6R7HYSmOi+QyIRkCBELKNby5Ii7ExDb2/6gpMIw3KaW3x9ayG/hdaAc9aVSFVtvQ7Du0ZIbIT/Ji5xfIvKa6Squk5Cgz0Z/oZhGG0RS3oxDGMTuCVQxJtQhOZkkZN9zUDtzNYuhp5dVCkv/5omc9PLJdTRXyeOSZYjRyZ7x/ofafkV8smMbO1BfczoZIkM8/SiNgzDaGuYS9rwK4idIzuXf42dAyEIuKabW3KI6UiQ2RGdc+Ijg2VQl0jtskJjlUUZZZJfUuUd618UllbLMz+uk99XFcvXC/Plu/m51kLQMIw2iwlGw6+gPzRlXfjXMBpCtvTwbpGSEOmx1K3MrpC1eZVqFfU3goM6Sc/EMGfbcKWLfDQrV35ckCfVJhoNw2iDmGA0/AqKcdMD2iyMRlP0cERYtzhP8ff8ilpZkVMuNTSa9jMiQoPkhDHJMizV0w2Gboafz8mVqSsKTTQahtHmMMFoGEabguSRMd0jxa16uCStVCr8VIAlRofImbt3lqFdPIlABY7AfWdqlsxYRZ9uCx83DKPtYILRMIytAutvRUXFTrUCj+kTK2FBHsk4J6NcMgv9M44xoFMn6ZkUISePTZa+iR6raF65Ixr/zJSlmaVSh9nRMAyjDWCC0TCMrYLC3rQSJM6UHuH0nC4sLPSO3THERATLoOQw7zeRBetKvJ/8kwGpUXLGbimSEuWJvcwuq5U3fs+QJVZ83DCMNoIJRsMwtoqCggL5448/pKioSNLT04VSrnPmzPGO3XHs2nfTVoHVfl7Ee2BqpBw/OlliQz233dX5VTJhZo6k51fod8MwDH/GBKNh+Bm4KSuq66S4vEbyS6slLb9SFqeXytSVhfLTwjz5Zm7OJsOXMzPkhzlp8tuiDJmzLF3S8sqlsKxacguKJTsnV0pKSjZxH5NYVFxcrMIP1zID07iQccx3ajECVkSmZZ66uk1FWWpqqvzzn//UQuCMYz5qMiImsTry2cVdL78zNNyuraVfSoQkRXiKYeeWVsnKzDL97K9QeHz3/rFy1h4pkhQZJDijl+VUaCFyS4IxDMPfscLdhl+RlpYmRx11lHz55ZcqRjoKiMSSylopdERiqfNvXmmN5BRXSU0z/jpXLJwjf078Suoc8VVUkCenX36LFOdmy/SJX0hkaJCESoUcfeyJsvtuu0pAfbV89dVXMnHiRImJidEuLn379pXJkyfL1VdfrS3/EHWPPfaYnHrqqdpHmpZ/iDsKc59xxhkSGBgor7zyilx88cXaGebrr7+WPffcUxISEuTRRx+VHj16aOeXnJwcOeyww+TII4/U2o6cU7rCIBwzMjJ0vWeffba2H9wWSpxj9eaUdPl1ebEEOmLs6F0S5cRxnSUgwE2H8U/oVvOzI/w/npkj+w2MlcNHJEm0FfQ2DMPPMQujYexEsCytyS2XWWuLZcZqz7AgvUwyiponFiEnK02++eC/UlZaLAOHj5XSokKZ8NZzkl9ULCmDxsnsZWly130Pyq/z18vrn3wrjziiLj4+QcaOHavWRQpvv/3229oOEJYsWSKffPKJWhgffPBBWbBggYwZM0bFJYLeF6yPzIcFsqysTHtQv/POO9KvXz9tOfjMM8/IunXrZO3atfLEE0+oqGRZv/zyi1okt6eNYERooPTrHCEhgY4Ic47V0qwybcPn7wQ6gnbvgfHy1327yhEmFg3DaCOYYDSMHQgGfSxM+SXV8suCXE18mL2uVFblVkpeWY0KH8BGFuj8dQYHdpKI4E7SJTpY+ieHyegeUbJ77+hNhoGdw2XEyNHyt6uulZNOPVNKC7IlLzNNBo/cVaJiYmXI6D1k6aJ5smxNukz6Y6aExneTEYecIbvvd7icc94Fsvsee8huu+0mb731lopELIF7OL8hJLE80k8ay+KFF16ofaY3R2xsrFoesRxeccUVMmjQICktLdVEGZa99957y0EHHaQ9p3v16qXTbytYEnsnhEnnKE9Hmuzialmf1zbiAUODA2RUz2iJMrFoGEYbwQSjYewgamvrVNB8OTtb7vl8pTz/W6asza+Qaq9K5I8xJixQUhxxOMARgXv3j5PDhsXL4bskyZ4D4mREj2jpkxwu3RyR5DskRYdIz66dZa/hPWT/oYkyMK5G1iyZI9O+fF1+evMxWT71W+nXf4CK0ML8HElK7S7VgeEyZVWJ/Lm2UtYW1MqxJ56q2c4zZsyQDz/8UM477zzdJqyAWBbdvtJbsgjSIhAXc1BQkLqwIyMj9XfCC3B1P/nkk3LPPfdIZmamjBgxQsdtD92TwqS7cwwgu7RGlmSXO8e5maZZwzAMo9mYYDSMVob4xMyCSvlyTo68+GuavDs9RzJLNrpOsSJ2jwuRoV0jZGyvaNmjX6wM7x4liVHBEhLkSerYGohDxO2LC/izzz6TTz/9TN7/aILsO3awdOucKPnZmVJZUa5iMCM7T6Ytz5Hq6J5SWiUar4jbePjw4RqrSOwh4g4qKyu1z/e2QEwjyyK+ERGJqxvr4/YSFhyoFtYQghgd1uaWS0mF/7ulDcMw2homGA2jlZmyLF/+8/N6+XhWrizLqfT+KhIfFiCHDo2XPfrGyIgeUTIgJULiI4M1xm17GDx4sCQnJ2sCyq+//irfffOVfPHBG9I7IUgO3283Wbdktvz40csy6euP5ONXnpS8rHSpD4uRXkNGy/vvvy/j995XRR1WwfHjx8sdd9wh7777rtx///0ae7gtkDxDxjQJN99//73ce++9WpqnJYp/93cEY6i3iPeSzHIpaAeCsaq6VtLzyqXS+dcwDMMfCPw/iqgZhp+A25JYujPPPFNFRluFmoBrcsrlzd/SZcLcPMn1xidiCesRHyJHDU+Q8/buKn07R0hESKAEBwaoBW5bIC4ScTdgwAB1G0dFRWnWMtnIJK9kZ2drjGLfPn1kQP9+MnLELpK1doWU5KyTvQ88TLr3HSwBQaHO9NUyb+YU2f/ESyQiLkUSYyLkgP32lbq6Wpk2bZqKULKeEZNYH1kfbmfW379/f41HZNyoUaPUSumW4GHcvHnzZPr06WpZPP744zV55tNPP5X99ttvu89znCOyZ6ws1mNcUVMv/ZLCpHfStifT7GwqHJH46cxseWFShlqneyWGS0iQvdsbhrFzsbI6hl/RHsrqlFXWyuSl+fLdgnxJK/LUIcRo2DUmRHbrEy37DorXuEN/AEGS7witJWmF8uJzz8j8WVPlklsfltiEJIkLD5R+yeHSPT7MEYjbZ/V8+OGHVSBi9aQUDxbLmTNnytNPP90i5/nT6Vny3swc/Tyue4Rcc3hv/dwWmbmyQB7/MU1fMIIdnfiXEUly1MhE7aFtGIaxs7DXVsNoQbKLKuW9PzPl/enZG8RiqCO29ukXIxfsnSpHj0r2G7EIZBoTKzmoc7B0iQqUAw47RiKjPZnLBeW1Mnd9qcxbXyJV21lY+rjjjpNx48bJhAkT5KOPPtK6jpdeeqkkJSV5p9g+hnWP8n4SWZhVIRVVbdeVm+oI9EGdPYk81c5h/3Jernw7L69N75NhGG0fszAafkVbtTBSKmdJeql8MD1LlmVXqHUIq2JCeJCct1cXGdglUsJDtt3t3NrgPi4qKpa6gCBZV1gnq3IrxNWIbHGX2BAZkhohMc7+BGzDPrB8yuu43WNwnbuu7ZaguLxaHv5qtazI8yz/5kO6yy69YvRzW4Rs+jd/T5d5GeXiXFpaWunI4YlyqDP483VkGEb7xSyMhrGdYH37eVG+/PundbI4yyMWI4IDZO++0XLrUb1kZM9oLTLtzw95yubExcVKQkyk7NI9SnbtHS3xKg5FW9ilF1bJlBVFstYRknXb8I7J8olVTExM1IEuMy0lFoFs6RE+VsY/VxV7P7VNKJd09p6pMqaHI6qdc1BWXS8TZufIF85QhdnRMAxjB2OC0TC2g6KyavluXq689Uem5Fd4HuRRIQFy0phkOX2PLpISG9rmrEFsbxdnu8c6orFPUphaGKGsqk77Hq/MLpeaWv8SLUGOqurpbKtbXmelI2xLyjf2sW6L4Jo+ZVyK7NI1Qr+77unvFuRpYoxhGMaOxASjYWwjpRU18sWcHPlkdq5UeotFJ4UHyl/3SZUDh8ZLdLinA0lbBNGI+3lIaqQMTfUIFkC0LEgrkxV+JhrZ3pToEEmN8Rxz+nGvz99Ywqit0jUhTM7YvYsMSg7V7xz/z+bkyg/z86zkjmEYOxQTjIaxDeQUVcprv6XLF/Pypdx5ilP1ZGyPSLnx8J4ytneMBNHXrx1AOZcBXSJkjz7REhbUSYVYXlm1uqd/W1boV4kYidHB0jXOI6zyy2tkUUbZNrnP/Y3U+FC5aL9uen1hQC2tqpMPZ+bI787xJ3bWMAxjR2CC0TC2koyCSnlzSoZMXrExTm7PvjFy9vgu0i0xvM25oLcESS5d48Nkl26RUuyIxT+WF8oUZ/hoepZ8NS9Xih1x5g9EhASpYKQUDQk7xF1WOAK3raMhAnEe9/To7pEaItAtLkRbIm5njXfDMIxmY4LRMLYCWvx9OC1TZq4r1e80GDlwUKycvGtnSYrxWLfaKz0cMXzMqCQZ1CVCiirrJKesVj6fk6stD/2hHR8lgvolhUpUqCeZJsMRjPmOwG0vdEsMk9N37yIHDIiRM3ZL8cSXtrOXE8Mw/BcTjIbRBLj7fF2auKHfmpIuf64uUQtWWGAnOXKXRDl5XIrERbTdeMWtgezd03dPkfF9otU9WllTL18vyNfOJP5gaeyV7Cn9A2sdcZ9VXK2daNoLKXGhcsb4VBmUSkkiu30bhrHjsDuOYTTBgrXFMmd1sfb1LXHE0PtTM2X6urINLf4Qi1jcoh2B0lEsPexn55hQFY179otR92i1c0C+nI9ozNrpMY2xjnDv6Y1jRMyuziE5p33F+YWFBKo11TAMY0digtEwmmDqqiJ55fcM+WZernw0I0umrCrR34mRO2RIvBw5IlEf3h2RhKgQOWVcZxnXc2Ptw+8XF8rERfk7PXt3ZPdI7yeR5ZnlKmgNwzCM7cMEo+EX4DakGwj/uoP7fWeApWxlXqXkltbIhNm58tOSQrUsAhnDHVksusQ7ovHU3VIc0egRaAizT+fkyJRlhVpyZ2eduwGpGwXjwqxyqfKzmpGtCb3BZ64uklmrLIPaMIyWxQSj4RdMmTJFLr74Yrnyyitl9erVcsUVV+jnJUuWeKfYseQUV0mJ171aUVO/wUo1qluknLxriro+DZEucbinu8iY7pGasVtYUScfzMiW6auKvFPseBKigqVnrOf8cO5WOaKxI4BAn7O2WF7+NV0e+X69TJiR6TcZ7IZhtH1MMBp+Qffu3WX9+vXyySefSEFBgf5bUlIiSUlJ3il2LJmFlVJZtamFhqixoopaWZ1T4QjIjmO12hJ0szlxbLL0SwzT7/nltfLun1myOrtMv+8MfIuNL8v0ZLS3d7ha/1hWIPnONQqfzcmX9/7M0L7UWB4NwzC2BxOMhl/QpUsXOf744yU+Pl6/d+vWTY477jiJi4vT7zua5Y4oLG2QwMEjd0Vuhbw+JVMWp3viGQ0PZCefPK6zJIZ73PRZpTXy/rRsySneOd1W+nbeKBjnpO084boj4YVmvyEJMqJrhFp7qx2R+OvyInlpUpojmjvGMTAMo/UwwWj4BcHBwXLEEUfI2LFjJSAgQMaPHy/77befBAbu+DjBssoayS6p3hCzCDyAY8MCZY9eUXLBXl2kf+eNcXKGh4GpHtEYFeq5rcxNL5OPZ+RIcfmOL23TNT5U4sM925FbViNZBRX6uT1DBvvA1Ej5675dZe++MRIa2EnLPy3JqpDHvl8rkxfnS7nzErSzYksNw2jbBP6fg/ezYexUYmNjVSxOmzZN7r77bhk2bJh3zI4Fq9jkZYWa8EKtwa6xITK2Z5ScumtnOWR4onbdaC+t/1oSSr0Q00ibxOXZuO3rtXg2wqVf53AJdM7tjgDhRP1MYhcziqv1HPZNCtcaku0d9j08JFBGOtdriLPfdLuhdWWVcy7mri+VvOIq6RwT0qFKQRmG0TKYYDT8ih49emgM45lnnikhISHeX3csa/MqZNLSQokLC5LDhiXosM+gOOkcG2r177ZAoHN8ujrHqaisSlbmVqqVdl1+hfR2xBqxjjsKztKavEpZ5ghXtiEuMlBG9Ij2jOwAcJ32SQ6XpMggTeAqKK+VGuc4UMx8bW6FRAUHOucjxK5nwzCajQlGw68IDw+XcePGSUxMjPeXHU9ReY10iQmRo0cmyaie0ZLsCB2zKDafkOAA6ZkYJvPWFmsLQQpor8uvlHHOsQx1xu0IyxbCNbekWhakebry0C5wRLdIZ9s6TikkjkFqXKgMSgmX8ooaWVdYJXijsZyXVdbKuN7REow52DAMoxmYYDT8DkTjzoSi1H06R6jbjoeusfVEhARKr4QwR7CVSll1nRSX10phWbUM6hKporG1QZTW1tbJoowyKXZEa4izykGpERIfuXOs1juLAOc4xEQEy5jeMRLpiMPM4iq1vp61R2fpmrBz/84Mw2hb2OulYRitQq+kMDlsWLxEOmqNIkQz15XK1JWFO6wkUVJ08Ia+0tmlNZJRWK2fOyK8+Bw8PEEu2bernL5rZxmYurFDj2EYRnMwwWgYRquA+3d8/zjZpWuEWrVKq+rkmwV5mgizI4gOD5Y4r2Asr66XrOJq7UDTUSGsgizqfQbFO5/Ncm4YxtZhgtEwjFYDC99pu3eRlBhP55W0wmr54M8MqSawsJXBqja4c4SEeMVRdlGlVFZ3XMHoQqLL5uJI80uq5es52VrwnDI8hmEYYILRMIxWA2GSFB0ip41Llohgj0iZsa5MfltasEO6j/RIpMyPZ73r8yulzATQFpm1pkje+DNbHv56jbz7R4bMX1ciRTuhlqZhGP6FCUbDMFqd4d2jZffensx3ZMe3C/JkXV7r93jukRgugV4L4/rCKimpNAvj5sBl/838PP1cWl0v3y8ulBd+SZPXJmfIr4vypKTCelMbRkfFsqSNNkVFRYXk5ORoJjVFvo22Ae7hhMggWZ1bLvlltY5wq9W4xoEp4a1a2oVlz1tdrK0K8YIPS42Q7h2ggPc245yUhIggzWindiNGYLLc1xdUycKMcpm5plhKnHGEGoQGe1zbO6JMkmEYOx8TjEab4rPPPpPLL79c9thjD+0/bbQNEBXaXUTqZXFmuXYeSS+s1C463eLCWlV0FJRWybx0jzUzLjRARvbaeTU+/R3OQ9f4MNmjX4wMSArTfuo1zrmqdNQ25wwROd8Rjt8tzJc0R/yHOoKcguwmGg2j/WOC0WhT0P0lKSlJdt11V4mIiPD+arQFqAmYEhMiGQUVsragSi1+haU1MrpXtIS1YkHtkopa+X1lsX5G/Bw0NEE/G01DG8eUuFAZ65ybXvGhEh0WqO5qBKNLZnG1xEcEybBuUXpuDcNo35hg7KCUl5fL7Nmz1a0bFeWpyYa7d/78+VJdXS1hYWEyffp0mThxosydO1eCg4MlPj5ep2feOXPm6L+//vqrrFu3TpKTk2XRokU6b3p6unz//feSl5cnqampEhj4v2KgtrZWp//pp5/0X0RgZGSkrF27VpYtWyahoaHy7bffyoIFC3SdjIe6ujrd3s6dO+ty2Y6qqirJysqSH374QdeZkJCg87Mty5cv1/GrV6/WbWU6tikoyFNuhUB+1sl+useDfYHi4mLdd5bDdq5YsUIGDhyo44xtAxdxamyI/Lq0UFv25ZfXSEJYkPTv0nriv97RMhMX5ev6Kqrr5FBHMFqHk+ZBKR4siANSImRY1yjpERfi/D3USqFz3ijAfuzIpB3a8rEt89///lcWL14sw4cP9/7SOrz55pt6Lxs5cqT3F8NoGTo5D0xLfeuAlJWVyUEHHSTjx4+Xhx56SAXUtGnT5Nxzz5V7771XMjMz5ZlnnpFRo0apoEJo3XXXXXL88cerCNt3330lOjpaLX5jxoyRO+64Qy655BJt6UeMIWIL8XbMMcfo8ht2b/n666/lb3/7my6P3tFszxtvvKHD3//+dxk9erSsXLlSBR3Do48+qtuLcHv44YflP//5jwq/Cy64QLeH7SgpKdF1n3feeXLLLbfofPzLdsycOVNFZG5urq7zscceU3GIUDz77LN1fWzD+vXr5e6775YTTjhBBSLr7NOnj87Xr18/mTBhgncPjG2ltq5ePpuRJR/PzlURlxgZJNcd3F16JbeOaCwsq5Envl0tS3IqhYTp2w7vIYO7dZy+0i0Jme01zkB/6iVpJbLvkETn76hp6+L383Jk+qpi6d85XHokhknnmFCJDg9UV3ZwYCcJcf7tKO5s7o+85P773//2/rJ1FBYW6n24d+/e+gLP/Y17J/c9wnP4Df7617/q/fapp57S74bRUthrdgcFd+5JJ50kU6ZMkTVr1uhvWOC6d++ub6Z77bWXirpXXnlFvvrqKxkyZIhaDbEqcqPKz89X0cg0Tz/9tFr9Kisr1ZKHsPz999/lxhtvlKlTp6rFsSGsq2/fvnLrrbeqMH3ggQf0dyyIWAQPOeQQnebHH39Ui997772nN0Z3vAvWP8Tigw8+KJMnT1YB+e6776pIdMfPmDFDXn75ZR1/ww03yBdffKHj2QfE55VXXqnzfPLJJ3L44YfLiy++KNnZ2bqf3KAHDRqk+/n666/rMo3tgwSYPQfEyYBkT/JJviPovluQJxWtVPKG5Iw+SZ4XFueUyrq8Cv1sbD2IQ0QecY77D0varFik1uaynAqZm1EuH8/Jkyd/SpO/T1jpiPc18vrkdPloerb8uDDfEZSFsjS9VNbleu4t7RX2bXv278svv9QXcF6KgWXxAnvdddfpC63L9q7HMJrCBGMHBlGGWMStixDDejd27Fi13CEQa2pq5JdfftFEE25ATOPeiLp27Sonn3yy/otV0XXxIrj22WcfdWmTmMIyfAWey7Bhw3S9WB/5F6Hqgvg86qij1IIZFxcnBx54oAq80tJS7xSbgnDdbbfdVARj7eRNHGHrcuyxx+p4XN7EPvImjhBEyGJF5Pvnn3+uwhgLAPO660pMTNR9cvfTaBkSooJlz/6xnraBziU1d32ZLHJEQ10rPOjoakI8HrD0RVkmGHcEReU1UuS8DDRkRV6VTF5ZLF/My5NXfsuQF39Nd4Y0ec35jPW5KbBuljjLzCmq1KG4rGVbPSJw3WX7DmtzymXBumJZmVUmldXb91JDKA5hLh9++KG+DPNi6gv3Y+5DvCBz78XrwX2XUKFJkyZJUVGR3o+Z97fffpM///xTPUCffvqp3r8bg5dmXuBZ5nfffaf3PhfGffPNNzqO9fISbRhNYYKxA4NrA7H1888/q2gjlhAXLGKP+MGDDz5YXnrpJb3B+b7BAuIsNjZW3bq+IPbcmMXGYhddjj76aLXuYf077bTT1ErJjRFwUWE1dCEmcXMwrStYsUa68Y4ubJPr9mI6RC+CkJsvN0z21wXBfPXVV2u8JjA9+9pwP43tg9i4cb1jNlj+ch1h8cfyIimrbHkrY6Bz7pOinPPoLRyeXVKtwsNoXWIjguScvVLluoO6ydHD4mVgUphEOy8IYUGd1B3tLY8pxZV1sr6oWqq20IWntLJGPp6RJfd8uUaHOz5bJTe+v6zJ4a3f03WepqhyBOJHUzM3TH/rRys2LNt3ePjbtfLMz2ny2ewcFcHbA3HWF110kYo+XMe33367hv9w70MAXnjhhep1wQuCt+Saa67RF268Ox988IEKzPvvv1/eeecd+eOPP1R4zps3T39D9DUEr8wjjzyiyyH8hpQFqkwQesM6n3/+ebnttts0Xp2wH0SpYTSFPQU7MAghRCGi7dVXX5VevXqpYALi+LDGcUP5xz/+oZa7lgSr3llnnaUuFWIZX3jhBb1xAiIuIyNDb2i8kc+aNUvjD11RuDkQds2NiXKTY7Bu4p4/5ZRT5PTTT9cYxy2JVGP7iYkIlpPGJKmVEaasKpJFaY1bkbcHrofYsCDN6AXa3eWW7Jh+1h0ZXgq6xIbKmD6xctr4VPnncX3lX6cNkL8f2Usu3itFjhuRKGN7RsnglHDpnRAqfZM3X16JNuB5pTWS4wh+BnqDpxdWNTkUOC8hWzJYk7zjTp9RVLVh2b5DnrOcwopaKavCw+KdcRshWe/xxx/X+x1CDhFI7Dhu5ieffFJf4rEeEkJDqA6hMFgaeYnFG0McNcKS+/K1116roThHHHGEWhCJ624IApUkmOeee06Xx2fiuYkVJ86c+/7FF1+scetYKQ844ADvnIbxv5hg7MAgwHDV8gZLfB5CCRewOw4rHDcXbmq8Ebck3CxxjyxZskTdzSkpKRsskgRy33PPPfLxxx9rbCGxhyTnuNvWUvTo0UOX+8QTT6g7Bksq+8mx8HVpG61Hn84RskuqJ9kFA9Pns3Okajvdfo0RGxkkiZGepACPYGxZd6bRPMJCAqW3c87HD0yQ43dNkWsO6SFXH9xDrjigmxw5MkmTkpqC0ILOUcHSPcYzpEQFbegT3hJ08y7XdxiQFCqjukXImO6R0i8pTC2j2wMZ0uPGjdMXZl7CeSnHpYzlkHhyPD7c57gX7r333iowsf5tC7xws0xCdLiPkkxIfDb3W37HYMD6EKcISkJ0GiYnGoYvJhg7OFgViSfE5Yy10QW3CG+gZBzjyiCOD+sdAzc7rHK+Fj9ucIzzveEwHb81ZhlkOlwgZ5xxhixcuFCzrIkXBG5kxAzed999+laMmwbrH8tzl+mKS+Zx5wPWxba50zH4urfd3/mXmEbcMVhVeVPHusgbOAIaS4fvtEbrQALMwcMS1FUJq/IrZe5aT83EliQyNEgLhwPtAakhaOx8+DvjvKTGh0lSzOYLgIc7YvOwEYlyxUHddbjKEZo3Hd5Tbj2yV6PDMaOTJSy46UccPcYP2yVxw/RXepfrO1yyfzc5f++uct7eqTotHW62B+5P7v2Q+xL3Ol7McR2TMMhv3HOA+xPT4mXZFogfZyD2mnuYO+CePuecc/TzTTfdpPHivCQTk05MpGE0hZXV6eAQx4e7g5sWcTHuzYq3U1zD/OuKQT5zk+GSYRyf3en5DaHFtO4Nken5zfcm6MJNkGUwH/OwLB4Wr732mloXcaW49RDd9TCe+bgJuiKQZTDOd53utjE9n/mX8fzbcJtYv7tMPrvLcscxLctyBarR8lRU18qE6Vnyxfx8TYAZ2DlcrnYe1rFei2BLwLn8cFqWfDbHU8rnkMFxctruKRLaigXDDcMXXL+8hOM6Jv4b7w3xhGQ5Y23kpZgX9Msuu0zvQatWrZK//OUvWtmB37k/33nnnRpfjneEexn3SzwxvFi7iYO8YLtldag+8dFHH2mGtRtmw3zuvY57H+siEQYRyYs6bmrDaIymX7+MDgFZwhR5JQ4GQeXCzYT4Pm48iCtuKvzLNO44/nXh94ZxhownocR3OhcEGOPc5fuum88sh/EMTOuO5zPr4TuDu20uvtvmjnfFozved5v43V0X28K87vrcaU0sti50eRndK0ZSoj0CMa2gUnsWby5jdmvhfPaMD5UIryWzoLxayqs2n2RhGC0J9xHiFV3RRy1YhBtuahL19ttvPxV3xBKSiIgI5N5FNQsYMGCAZk2T3EIcIy/53N8IpSHWkWX6wjV/6KGHqvUSbw7WQ+LViRsnyZE48WeffVaXRS1blk1okGE0hXV66eBwM0EoHXnkkfrW6wqrnQnbseeee6p4MzoGUWGBklVUKatzK6Wytl57Tg9OjVA3ZEtBbOS01SVSVl0noQGdZJfuURIbYeEGxo4BUUanKErnvPXWWxpKQzFvtyQYCS/EEZLAQpY0FkHGu4mIbicsxCRduZiPeyW/ITS5j1OCjIYH7j2UZWA1JKOa0CLmJaaRhgyIVDw5JMCQHU29WaygxE0aRmOYS7qDg0uCwdcKtzNhW3ADY9nzh+0xdhzLM0vlqR/XS05pjQQ7gu7ifbrI7v3iZHPFobeGwtIquffLNZJWWCXhQZ00Bm54t0i7zowdAu5orIzc30jsQ9RR8ot7L+AqxsqH5ZAmCO54Xw8HIUS85PMy7SYB8p36iXxn4DvLcuvGck9FJLJsHvcskxq3LJd1kQTD3wDT87vrfTGMhphgNAzDb3h9cpp8s7BAP5OheuMRvSQidGPIwfby4JerZG5amX6+dN+uWjy8pQSpYRhGe8ZeJQzD8BsOGpIgkd4C20tzKmVZukfctRRDUzZm8WcVVkitvS8bhmE0CxOMhmH4DZ1jQ2R8n40tGH9YXCA1VGxuIVJiNpZYyiiskjrLezEMw2gWJhgNv4LYnldeeUVjboyOB3UZd+sXK7GhnritpVllMntNy9Vl7Ja40cK4Lr+yVXpXG4ZhtEdMMBp+BYHZtMjiX6PjQfB9j4QwGd0zSnBM02d42upi7c7SEiREBUuQ9663ptBK6xiGYTQXE4yGYfgVkWGBmr0cExog2P+WZ5XLutwKz8jthPZyXb31HqGwzDq+GIZhNAcTjIZh+BUBnTo5gjFKuieE6ff0omqZs66kRXpMd3L+653oWS6sybGe4YZhGM3BBKNhGH5HVHiQ7D8gVgI7iVoZ/1xZJPllNZ6R2wEVdFJiN1oYs4qqvJ8MwzCMzWGC0TAMv2REz2iJC/ckv6wvqpalGaX6eXugRndK7EYL4/KclnF1G4ZhtHdMMBqG4ZdEhgXJfgM83Szgh0UF2qlie6EdYLD3zpddWiMVVdtvuTQMw2jvmGA0DMNvGdc3RuLCPLepNfmVMm/t9pXY0RZoYYHS1euWrqmrk4JSS3wxDMPYEiYYDcPwWxIig2Vk90j9XF1bryV2treQd2hQgCNCPe0GWWZeiQlGwzCMLWGC0TAMvyUiNFCGdo2SiOBOUlcvsiyrXDIKKr1jt42wkACJdYQoVNfUS06xCUbDMIwtYYLRMAy/hRI7A1MipE+SJ1ElrbBK5q0v3a4OLSGBARIV6rEwVtXWS6ZZGA3DMLaICUbDMPyahOgQGdg5QhNVqutElmSUSdF2FNwOcRYUGxmkJXYcvaiJLy3Zr9owDKM9YoLRMAy/hv7SY3tGSaS3v/SizDJJK6jarozpuLBAifCmSldW1UmFtQg0DMPYLCYYDcPwe3okRUjX2BD9XFRZJ4vTSx3BqF+3iYTIIIkM8dz+iitqdDAMwzCaxgSjYRh+T2BgJzl8WLz3m8j3i/KlsmbbrYLEMIZ6LYzl1XVSVrX9bQcNwzDaMyYYDcNoE/RJjpDkSE+ySmFFnazMLNPP20KcsxwysKGookaKyk0wGoZhbA4TjIZhtAkiwwJllLcmI9BfeluJCA2SkCDP7a+ksk6KK00wGoZhbA4TjIZhtAmCAgJkSLcoCSa92WFBZrlkbmNNRhJpesaFbMiUziqukqrtcHEbhmG0d0wwGobRJghw1F3vxDAZ1NlTk7GgrFoWppXq520hMcJTWgfIlK6jMrhhGIbRKCYYDcNoM8RFBkvPpDBB55VX18uS7DIp38aEFdoOUhgcyJKuMcFoGIbRJCYYDcNoMxB3OKhzhMSGBQjybl1uheQUbZtbOiE6WLx6UftJ0ybQMAzDaBwTjIZhtCn6poRLYrSnJuOa/CpZlVu5Te7kmHBc0h7FWFCOhdFiGA3DMJrCBKNhGG2K+MgQGZTsiWPEKLgko3SbElZiIzZaGLNKa7SvtGEYhtE4JhgNw2hzjO4ZrXGMMHd9qRbf3lqCAgMkLsxzC0RvFpVZtxfDMIymMMFoGEabY1DXqA1FvHPKamVl1rYV8e4RF+r9JFJYVu39ZBiGYTTEBKNhGG0OSuzs3jvK+01k1upi76etIzkq2PvJEZ7FVd5PhmEYRkNMMBqG0SYZkLqx68v8zDIpq9x6l3KCj2DMLTGXtGEYRlOYYDT8gmXLlsmECRPkq6++ksLCQv33008/lfXr13unMIxN6RYXJr3jPS7l4so6WZtTrp+3hngfwZhnLmnDMIwmMcFo+AUVFRXyf//3f/LXv/5VVq5cKRdeeKH861//kjordWI0QXR4oPTzZktXVNfJtNUlUle/dZnOCZGe8jyQW2oWRsMwjKYwwWj4BX369JFjjz1WwsI8AiA6OlpOOOEESUlJ0e+G0ZCw4EDplRQuoYGdHKFITcZKKSnfOtEXHhro/SSSaS5pwzCMJjHBaPgFERERctRRR8mAAQP0+/Dhw+XQQw+VkJCNFiDD8IXEl54JoZIc5cmWJss5u2jrEldCnGWkeufHOplXYokvhmEYjWGC0fALOnXqJCNHjpQTTzxREhMT5ZxzzpGBAwd6xxpG43SLD5OUWE8cY0ZxtSzPqdgqt3SgIxgjQzy3QWbb1r7UhmEY7R0TjIbfgDXxzDPPlL333luOP/54FZGGsTlwKfdKCJUg505G8e31+ZVSsRWiLyhQJM5bzxGZWWjFuw3DMBrFBKPhVxDLeMcdd1jsotFsBneJkDAUo8PavAopqWi+YMStTSykS+U2dIwxDMPoCJhgNPyKwMBAGTVqlPebYWyZHglhjujz3MpW5FZIdknzy+MEO4LRrcVYV1cvafmV+tkwDMPYFBOMht9hrmhja4iOCJZhXcL1M27pFZml+rk5cK2FBHmuN2IYyyyG0TAMo1FMMBqG0eYZ1CXC+0lkcUbz+0oHBnaSqDCvhdEZMrbCOmkYhtGRMMFoGEabp3fyRsG4KKui2W0CAzp1kuDAjbfB8prmZ1gbhmF0JEwwGobR5iEOcUhnb9cXR/StyGy+lTEpMlCSIjyJL2RYF5ebldEwDKMhJhgNw2jzhAR2kj5JnjhGWJS+dXGMbtwscYy1lihtGIbxP5hgNFqc2tpaWb16tUydOlX7Qm+OrKwsmT59uvebYWwbQYEB0is5XBzdqCzOrpCqZpbIiQgO2FC8u8pRi1a82zAM438xwWi0KPX19TJ58mQ5++yz5YILLpB77rlHCgsLvWP/l5kzZ8p5553n/dY8MjMz5dlnn5VJkyZ5fzE6OtRT7BwdLEneItwFZTWSVdS8EjkhQQE6QI2jFcurzMRoGIbREBOMRotSUVEh3377rXTu3Fm++eYbeeihhyQ2NtY79n+prq6WvLw877fmUVlZKYsXL97q+Yz2TYIjFlNjPb3HSyprtYh3cyDnxc17qa2rl2pq8xiGYRibYILRaFFycnIkPT1dRSLCLjIyUn8vKSmR9evXq3WwqqpKf/MFN3Z2drbOy3wurqBEiOLmxlpJF5hrrrlG9t9/f+9UHlj22rVrdV11dfbQ72jEhAdLQpRHMJZW1cmavErnutrydRAWEijhzgAV1XVSXGHtAQ3DMBpigtFoUU477TSZMGGCfPrpp3LKKafIF198od+PO+44OfLII+Xwww+Xm2+++X/c1C+88IIceuihcsQRR8j111+/Yfy0adPkwgsv1HaBRx99tLqvc3Nz5b777pPZs2frNAjEV199VY466igd6EdtcZEdj+CgAOkZHyLhQZ2krl4kt7Rayqu3HI9IaR0GqKuvVyujYRiGsSkmGI0WBeGHKEQcvvbaa7LXXnup+MMiiHC888475bvvvpPvv//eO4eHjz/+WJ566ikVgj/88IM8+uijUlNTI0VFRSo+Z8yYofPecsstanVcsWKFFBcXq2Xy888/l4cffliOPfZYeeONN3T9iEqj49EnOUyiwzzWwoyCSskv2bK1MDw0UAeoqKmTgq3oRW0YhtFRMMFotCjdunWT6OhoHbp37y5dunSRc845Rw455BD9rWfPnpKYmKhiz5fnn39e9t57bxWap556qvzxxx8bRB/LuPzyy9VKufvuu+tvLiwH8cm8WC5HjBghF110kRx00EHeKYyORFJ0iIR5M54ziqolp7RGE7E2R1BAJwl0BiBBurTaLIyGYRgNMcFotCpYAHEdX3nllXL66afLZZddJnPmzPGO3UivXr28n0R69+4t5eXlUlrqqaUXHx8vAwcOlICA/71ciXdENCJO3fFBQUESHOxp92Z0LKLDg6WbN/GlrKZesosqm1VXMT4s0BGOns/VNbVSY8UYDcMwNsEEo9GqkMRCaR148skn5aWXXpKxY8fqd198E2HKysokNDRUwsI8nTs2h1t0mThG15LEv5b00jEhFnGXVE+iFazOLW+W+IsLdwSjN46xtLJOqmvNymgYhuGLCUajVcH6R3b0sGHDtNROQUGBxiU2BJc0Gc7Lly+XDz74QAYPHiwJCQnesU0TExOj0/7000+yaNEizaj+/fffZcGCBd4pjI5GD5+OL8syK6S6GUksnhcP7xfDMAzjfzDBaLQqSUlJMnLkSHn77bfliiuukGeeeUby8/O9YzdCIsyll14ql1xyiVoXzz///GZZGJnm+OOP11I7LJ9Yx1tvvVXWrFnjncLoaHTxuqQhs6Rayiq3nMQSoy5pj2KkDmOtWagNwzA2oVP9liLCDWMrIIMZ6x4WmyFDhkhgYKBaGOfOnatJLFgDqanYtWtX6devn6xbt04WLlwoffv21UxoXMm77rqrJscQi0htxlmzZsm4ceM0lhFwP1M2Z8CAAbocsqkRiHSNIfaR5e6yyy4SFRWl0xsdC25pd3y0XFbke8IcbjmsuwzvEaOfm2LhumJ5ZmKaFJTXypjukXLeXqmSEL1ReBqGYXR0TDAahtGu4Jb2wZ8ZMmGux5J96phE+cuYFP3cFL6CcXQ3RzDunSqJJhgNwzA2YC5pwzDaHalxod5PIvPSyryfmiY0OEC8Hmkt3G3v0YZhGJtigtEwjHZHcnSoOBpQSS+qltIttPuLCgvcUIuxyJmWFoGGYRjGRkwwGobRriB+NiY8ULrGeFzK1bV1klm4sT95Y1COh/mAkjrWHdAwDGNTTDAahtHuiAwNlG7xHrd0jSMAaRO4ObAuulV1cEnTU9owDMPYiAlGwzDaHcQkxkcG6ecqRzCuLdhYGL4xosKDNrik6SVdXmMuacMwDF9MMBo7FcroUIqHTi+0ETSMliAkKEASIkMk0NGANG3JLK6Wyuqmr6/gwIANLumKmnoxvWgYhrEpJhiNnQb1EydNmiQ33nijFtueMGGCd4xhbB+Ivy4xwdryD0oqaraY+GIYhmE0jQlGY6dBm8B///vf2vlljz32kIiICO+YrYNC4J9//rkWATcMl1hHLEaGeARjUXmN5JVuXjBGBrtRjIZhGEZDTDAaOw16StP7+ZBDDpGTTz5ZDj/8cO+YraO0tFSeeuopmT9/vvcXwxCJDg+S8FCPYCytrJXiLVgYu8YEez85LyFVtVaL0TAMw4fA/3PwfjY6AK+++qoKrClTpsh///tfqayslOjoaJk2bZq88MILsnjxYm3BFxcXp/GFK1askE8//VQ++ugj+e2339TVRzs+Wv7RAvCLL77QFn5vvvmm/PzzzxqH2K1btw3jcTnT5i8kJETb9v30009qWWT8c889p9+BbaLv9KJFi+STTz7R9TF/QkKCJCYm6jRs68SJE+WDDz7Q+RCckZGRal1kHrdFIPvD72+99ZbExsbq/hAn+ccff8js2bN1e3JycnS/+B0r57Jly6R///66jd9++62899572mqQdXbp0kX3ceXKlfL9999LWlqaPP/885KVlSUjRozQbTP8j/CQQJm9rkTWF1RpXGL/zhHSLzl8Q6xiQ+Y50y7P9WRTD+kSIX02M61hGEZHwwRjB+PAAw9UIYSwQqS99tprKgS/++47FYiIKETbYYcdpuLp6aeflj///FNFF/2bX375ZTn44IOlc+fO8ssvv8j1118vS5cuVfGE6EJ07rfffioqGY/l74QTTlB3Mz2gH3/8cV0v/Z4RmcwTGhqqA8KQ7WHbEHxffvmlijfmR7B99tlnct5556nlh2V88803MmjQIJk3b578/vvvKkr5nX7ViMZzzjlH9t13X+nTp48Kw5deekkF7l/+8hdJT0+XW265RT7++GPdz9TUVBk6dKg8+uij8sorr0hKSopu2xtvvKHjBg4cqKL6/PPPl6lTp+r2sM0s3/BPEHvrcstlaVa5YCvsERcqA1MiJCiwccfK7DXFGwTjqB5RJhgNwzB8MJd0B2T06NHyr3/9S5599lnZddddZdWqVXLTTTfJiy++KNddd53MmDFDhRci7+KLL1YReO+998oTTzyhFj8EoguWwgsvvFDnZSCeEPG2JXr06CF33nmn9O7dWy655BJd/siRI1XEsV3333+/3HHHHbJ8+XKNcSwsLJTXX39dTjrppA3rwjI4ZswY+dvf/iYDBgyQq666SkXhXnvt5V3LlhkyZIgui2XgHseyybY89NBDKnYRn4jM4uJinT44OFhFI8fkmmuu0d8M/6V7XJgjED2ir6C0WkvsGIZhGFuPCcYOBpY7LIDdu3dXCxnWM9yq48aNk/DwcHXL4lZmwGKHmxg3NW5grG24cn3L32BpI/YQcYnrdtiwYbJw4ULv2K2DbWMbfv31VxWHWBARoJCdna1JLccee6xaN9k2xBzbtz0giLEmcixWr16t1sbJkyerOEYUsr9lZWXqmgYsjYceeqhERUXp9hr+TZe4kA31FdMLK6ViM6V1wtxegg4av2ja0jAMYwMmGDsYAQEBaiXzdbUh+vgd+Ncdl5ubq+VuLrvsMsnIyNB4QKb1hWl9f8PSh/vXhbhCaiwCD2Hc3k2B0DzqqKPkgQceUIsebmV3u5iP+VvaRYhAdcGqyvLduEdc5KeeeqqKypiYGJ2GY4dYbentMFqH2Ajn2vaeq/wy51qsaVoFdon1dIYBkmRMLxqGYWzEBKPRJCR3EL+Im/rKK69U6x5CqrkgxkhMIb4REITEATYFSSnET+IKRqQedNBBGwQdFkyEGu5yRChgdcRV7UIyjS+4mLEaIjYZRwLP5iCuMiwsTHbffXd1s7vDAQccsImwNNoOcZEhEhPmuc3lV9RJYXnzajEWlVsRecMwDF9MMBpN4lrTSIjBPUxsHwkmzQVrIzGITz75pCazXHrppTJ37lzv2P+FzGzcvF999ZV8+OGHGseYmZmp43B3H3300bqc//znP5qYcsEFF2g8Je5kYin5/e2331YXOsJv/PjxmhWOO/22227brFgF3M19+/aVu+++W9dP0s4jjzyiiT+uS9poe/iWy6Eeo2EYhrH1mGDsYJDk4bpXcfeSdIJIQhwCgo3MY9zMxDPefvvtGjuIcEKAkbGMyxb4lzhCX1gWiTTAsiltgyWQLi4k5DMkJyfreOIAyUx2v1OP8b777lOxxnxnnHGGWhld4UqSCckpiMBnnnlGpx8+fLguh5hDXOFkcSMy2Q9c25T4efjhh2XPPfeUq6++WveffWMe4i19i4UzD0KUTHJK/tCBZu3atbLbbrttmIf9Y1uMtkPvhDDvJ5HV2eXeT4ZhGMbW0Kleo7sNw2jvIKhJ4MG93pToZTzxme3JBT95cZ7859cM/Ty+Z6RccWgv/dyQXxbmyfOTPdMdOjhOztwzdUPCjGEYRkfHLIyG0QHAyouLnzqWbpHzxsB6SwhCc6EwO7Gi/kxyzEZxvKbAk4DVGEGepjCGYRhGI5hgNIwOwI8//qg1Ji+66CKtd9lUljedcKjL2Ryoj/n3v/9dC8H7MzERweIaCrNKaqSyidI6SdEWamAYhtEUJhgNox1DhjiZ5LSCJB507Nix0qtXL603SXwm4pBMdt/IFD5Tf5JxiEJ3HJnmLGv9+vXaKYeyR2S0U8MTWBcZ8SwXi6a/RLuEBwdKvwRPyZw6qZfcosatjEE+7ucy6yVtGIaxCRbDaBjtGGpgvv/++9rJh6Qdio6ffPLJmvWOlRFhSGzjgw8+qEXQyWRHFDItRdNJjLrnnnu0Mw/iELFI6SOEJwlI//jHP7TDDhnxP/zwg/bYZl5uKyQ40bd7Z1NaUSMv/Lxepq0rVUvjrYf1kCHdo71jN7Iis1T++dlq/Tw4OUxuPqq3BAfZO7VhGAbY3dAw2jFkd9MqEUGHJfDcc8/VTjkIPrLQGXAp0x/b5euvv1ZhSQ1KXNTvvfee/k4NTNooHn/88VriiHJGiEQKnlPk/a677lKBSLkjale67RR3NgGOSoyJ2BigWFC2sbC8YRiG0TxMMBp+BW5Nah7yr7H9uKWTKF2EmEM0Um9y3333VUGHa5oaliUlJd45RK2R9OymhSSljKht6UJB9XPOOUdGjRqltS5dqH2JG5oC75QwOuuss7Rkkj+AqzkxyhOfiD9lfYHV1DQMw9haTDAafgXxdFix/MU61R4hNvGOO+7Q+pQkwmAd9IV6lLirGajZ6Ru1Ql1LdxyDixsHmZCQ0Oj4nQmlcSLDPO0r2ZPsEivebRiGsbWYYDT8CuoAIhj512gdSIBhoDPOQw89pIXafVmyZIkef0rv4IamgPuWIP4RgUjCCzA/8ZH+AC7pqNBACfTq1+xSekqbBdswDGNrMMFoGB0A3MfEMwIxjLW1tVqP8fHHH9f2jbilgbjEzz//XK644grt8sPnSy65ZMM4dzoXCnwjFOmggwv6+uuv18QX+o6zXH8hNixQEsI9217tiEUSYQzDMIzmY4LRMDoACMDDDz9cPxObSMYzLR932WUXtejyL5x++unay5tYR0QlLRiZHs4++2zZfffd9bMLdRhTUlLUjc20p512mpbiQWSOHj3aO9XOJzwkQCJCPIIR62JJReO1GA3DMIzGsbI6hl+RlpYmRx11lHz55ZeSmprq/dUwto/Mwgp56dd0WZBRLp2jguSSfbrKoG5R3rEerKyOYRhG09jd0DCMdk9YcOAGC2NlTZ0UmkvaMAxjqzDBaBhGuyc4sJOEBHmyXqpr67WTi2EYhtF8TDAahtHuiQgN2lBap6y6XrJKTDAahmFsDSYYDcPoEEQEB2worVNdUys1tVZaxzAMo7mYYDQMY6sge5o+022tG09SRJCEeBUjLmmrxWgYhtF8TDAahrFVZGZmyoQJE7QVIAW6Z82apaV0/J2YsECNZYRyRzBW11iBCMMwjOZigtEwjK2isLBQpk+fru0bs7Ky5Omnn5Zly5Z5x/ovUWFBjmD03PIqqus1+cUwDMNoHiYYDaONQylV3MO4imnnx3cG9zv/uuVWG07LZ/e77zTud/dzw+W4dOnSRW6++Wbt9OJO6y7Pd3r+9f294fgdQVRYoLiNaoorahzRaIkvhmEYzcUKdxt+RXsu3F1bV69t6bBs1TifgT+/Gud7UEAn6cTg/IbbNND5HOatG7gl6Av94Ycf6uc1a9bIk08+KatXr5bPPvtMli5dKj179pQTTjhBdt11VykpKVF38i+//KKfDzzwQO3U8uuvv8o///lPiYmJUcvhXXfdJWeeeaZ2cKHndG5uriQkJMhFF12krQBfeeUVufjii3V61n3QQQdJcnKy3HnnndKnTx/tKY0lku4yRx99tO6nu14+l5aWyvDhw+WMM86Qbt266ba3NrnFVfLA12skvbBKukYHy2UHdpM+yRHesVa42zAMY3PY3dAwWonq2jrJKaqURetLZOKifJkwM1vem5olb05Jl/9OStPhlV/T5IWJ6+Ul51++vzo5Td7+I0Pen5Yls9cUy/KsMskorJSKzdQNxC2MgIPzzjtPhRqikT7P11xzjYozvhcVFakwfPbZZ2Xw4MEq+BBv9JZGXE6dOlWXMXPmTPnpp59UGN59990qPo8//ngZNWqUxi36UlVVJStXrtR1kAjz2muvycSJE2WfffZRAUm7QMQjAz2maTN40kknycKFC9U6GR8f711S6xMWsjFLury6TqoshtEwDKPZmGA0jBZmfV65fDM7W577eb084wwvTkqXN6ZkyEczc+TbhfkyaXmxTF9bqsPM9WWyMKtCZqeV6fepa0rl56VF8u0CZ7qlBTJ3vTPNmhL5c2WR/LmiUJZllkl55f+KR3o/u/2iV61apZZFLH24gekTTWIK1tsZM2ZIv379VFgecMABcu6558rYsWNl/Pjx8sknn6gA/Pjjj3VccHCwzJ8/Xy6//HI57rjj1OLYsJd0Q6Kjo+X8889Xq+JZZ50lvXr10sQYRC2CEtGJmGQbkpKSJCJio4WvtYkMDZIgbwxjYUWtikbDMAyjeZhgNIztAAsdsXBp+RXy7Zxsue+zFXL356vlnek58sfKYlnqiMGM4mopr6lXd3NoYCeJDAmQ6NBAHRIignSIdwbPbwESHtxJy784ixY81wibnNIaWVdQJfPSSuX7Rfnyy+J8WZNbrrF4uLpxF2OtwyqItS8nJ0fmzZun7mpczKeddppERUWp9bF79+7qambasLAwCQkJkVNPPVUWLVokv/32m1oX+Y7QQ+QhPCEoKEin3xyhoaHqpg4MDNR1YGUEwgvYpvvuu08HsqoHDhyo43YkrocZqUhYAOfPMAzD2DImGA1jG0BoFJVVy8zVRfL+n5ly3xer5LU/s2VBZoWUVNVJNWLEmS4mLEAGJIfJ2F5Rst/AWDl5TJJctFcXuXL/rjr84+heOtx2RA/52wFd5bJ9u8o5u6XI8aMSZVhXR3BFB6vAdEFAEgOJgJy2usQRjgWyNrdCxQ/CEWJjY1UUHnvssXLttdfK9ddfLzfeeKO6nhGVWBqJXySRJSMjQwXm6NGjVQwSr4jIGzZsmC6H31asWKHLReQ1dEk3F5aB9RELIzGTjz/++AYhuiPpHR/i/SRSUFqtx9MwDMPYMiYYDWMrqaquldmOUHx5Urq85AzfLCyQgoqN7s14RySO7x0lJ49Nkgv36ioXOSLwkn27yQX7dJXDRybLuH5xMqxHtA7JMaE6pMaHy9Du0TKiV4zsMyRBjh7dWfYbHO8IzWgZ0zNaRvaIlP6O8IwNC1RLpUulIx7Tiqok3xGQc9eVSHZxlSaTEKNI4spbb72l4gwhSFbynnvuqeLtqquukkceeUQefvhhFY2IQ0QjyUbHHHOMxj8SY7jHHnvIgw8+KA888IDccMMNaoHcFhCexEJ+8cUXasFk3d988426wHckIT5JLLVWVscwDKPZBP6fg/ezYex0cJ8icoiXwyLlT5DEsiKrTN6ckiHfLyqQlbmVUulNnECHdI8Nkb/skiDHje0seziicGjXSOmeECbR4UGabYsLeGtgeuoGRoYGqss6KSpYUuMccRkX4nFVV1GWxpnOmTY2OVUikntKblm9VEuw7L/XbhIdGaHZzbiHEYNY9Hr06LHBFYwrmixpxCWuZFzQxCxecsklmrnMb7vttpsEBARIZWWlDBgwQPbff391bSMA+/btq8KSWEdiEhGdcXFxakXEkokVlnUw3dy5czW2kixq1kk2N8KReMYdeZ7T88o1XhR6xYfIYOcckZEO+aXV8tOSQv08sHOYjO0ds2GcYRhGR8fK6hh+xc4uq8OfA38RAT5CgZ7DWO6+m5crPzuCosprTGSSOEcM9nfExWFDE6RfSsSGpIodAZnTa/MrZG1epRRX1opva2QEbL/O4dInMUzCQwK3KFaJVXzooYc04/nRRx/VmMiW5P7779dMbKyVLPvdd99VyybxjCS/7Ch+X5Ivz/ySrp8PHhgrZ+6ZuqF0jm9ZnUMHx+k4E4yGYRgedtzTzTDaAIVluHaLpc4b3IYV77elBZrx/N2ijWIxJjRA9ncExwV7dZGL9+smg7pG7VCxCNRpHJASKXv0jZGhXSIkKTJog7uaNsmLM8pl1ppSWZ9fuSG+sSmqq6vVWnjkkUe2isWPUjojR47UDOxPP/1ULcmXXnppiwvTLRES5Psi4IkzdSltJPvcMAzD8GAWRsOv2NkWxh/m5shPSwrkzD26SPeEUHn3jwyZsa5Miio8YoI6fkO7hMtBQxJkSLdILdXiD9Q5f8ZljuDJKKqShWllmnTjEhYUIL0TQ2WgIyqbErXEN5LUQpmb1ih1w22G5BqSbYAM6p0RcuBrRRyeEibXHN5LwoI9BdInLcqTZydl6GezMBqGYWyKWRgNw0tVTZ18u7BAVuVXyRu/Z8jdn62SicuLVSwiG7rEBMs5u3WWKw7qIWP6xPiNWISATp20V3Lf5HDZf1Cc9HLELh1joMLZr8WZ5fKLI4Qpw4O4bAhxjq1ZFxGXOLGPJNIw7Kz4VF/BXNUg6cUypg3DMJrGBKNheJm3pkhyy6r18+qCKkkrqtZ4xojgTjK2R5T87YBuctAuSSrMEGj+CNtFks1oMqu7RWqyDKCFCsprZcryIknPr5SaOp+Axw6EGQwNwzC2DROMhuFAj+fpa0o2ZD27hAV1kgMGxsm5e3WRnknh3l/9H5J22N7RPaOkR3zoBqFEcgzdY5Zllnt+6GDERgR7P4nkldVIB9XNhmEYW40JRsMvoIUdcXT8S7yb+31HhdiuzS2X5TkVmyRBAG5LXLpuJm1bIzY8SEb2iJLBXSIEbyylgQorarRjzIzVRfq9I4Ux00/aJbfMud58dt33OMRH+k+4gWEYhj9ggtHwC5YvXy6vvPKKvPPOO5KXl6f/MlB6pbWhbM68tDJJK/zfItIIij9WFMuMlUUbMqfbEsQOUqx6cGqkDEgKk3lrS+Tz2bnyycwceebHdfLenxlSVF7ToUSjS8M9zi3ZeP49pYi8XwzDMAwTjIZ/QPYs9f9oYbd27VrtKvLiiy9qfcDWpqCsWhamlWxibYoKcURWcpgcNDhOThyXrAW4t7bwtr8xuFuUnLNnqozoGqF1Gqki8/PiQvlido6WD+ooJHnjOqGyeuN+l1Saf9owDKMpTDAafgHdR44++mjvN9Es2hNOOEG6du3q/aV1wLK2Lq9SlmRXSHRogIzvFSkX7JkiVx/cQy7ar5uctluKHDIsUfqmRGxSzLstQkIMxbzP2rOL7JLqyYYur6mXHxYXyBezstU93d7p5PyX7ONupu6mYfgTFLh/7733vN82hY5LH330kRa+Ly/f/jjkl156SSZOnOj9ZhibxwSj4RdQzuXss8+WMWPGqCVv9913l7/85S/aWq61iY8IlNuP6CmPnNxfLjmwh+w/JEEGO4IqJS5UXZPtCURvl9hQueSA7jKya4TWlSTR5+sFBfL+HxlS3MHc01sqaG4YOxr6tSMKG4MC+7/88ov8+OOPKh63l1dffVXmzJnj/dZ8ioqKNIyIOHOj42CC0fALEIn0ND744IO1DzGdQeh73NpuYJbfKzlS+qZESmRYkNbpwxLX1t3Pm4N9oz/1OXularmgYHVP18uPSwrl27k5UuHjpu2ohLbRJCej7cMLG0l/TcH4lnqpc5MMt5Zff/1Vzj33XCks9PReNzoGgf/n4P1sGDsVikf36dNH5s6dKzfffLPExMR4xxgtjSsaeyaGS15xlaQXVWs7wbSCSol0FCR9sdsjGBQnLymQHK8rev+BcZIY7bFifzE3V7JLPL8fOCReusSEtOsXB2NTsJbNnz9f1q1bp12Jvv/+exVUsbGxMn36dJk8ebKO55ro3LmzzoPYyszMVAE1Y8YM7ZaUnZ2t8+E1oXPVzz//LLNmzVKLIPMFBGz+ZYT15ubmqreFeYnppjMShe+rqqrUulhTUyOHHHKIBAUFyZo1a3T9s2fP1vni4uIkLCxMXdZ//PGHbgvbiGWS8YmJiRs8Ny+//LIMGzZMPTpYL3/44QcpKCjQUCCOAfNPmTJF50tJSdFtX7Vqlfz+++86bsSIERpnTotPrI78NnXqVD0G7nYY7QcTjIZfwU1m7Nix0rt3b3tYtzIc36iwQG0ZuC6nXLIcsYSlcUV2uQxMDpP4qOB2dw4wpqzILpOVuR533j79YyXJEYbw+Zw8Kfa2gNzHEZIpMaH6ua2CmOFBP2nSJJk3b55a7BsL8UB88KDnXDfnJQ1hUVZWJsHB7ev6QIz997//lTfeeENeeOEF+eabb9Tbgev13nvv1eOJKHv++eelX79+0rdvXxVXp556qgpJhNQTTzwh77//vnTr1k26d+8uZ5xxhixevHhD7OFhhx22xW5KCEYGBCpC9fXXX9fl77rrrirAfAUj23bZZZepyM3JyZEHH3xQheK4ceM0kZDvX3/9tQpDhBwuaITd/vvvr+eO34cOHap93hlH4uGee+6pIvnWW2+VN998U/eR48K6xo8fL88884weA9aJcOS4cc/+17/+pbGVHCfiIjkG3MeN9oP5XQy/gjfYIUOGtDuh4q9wnBOiQuT0PbpI38RQbYFYXFUnL0xKl+UZpdIWSwltDi6rYJ/2gBmF2x8H5q/wIOfB/re//U0FCIKmMZju448/VmHTHBAeV155pVrT2huILax1l1xyicb2XXXVVSqgPv30U3n88cflueeeUyFICTD46aefVFAhlhB2xx57rAq7U045RS2DlAWj4gPCDfGFEGsO/F2y7i+++ELFK+cPEdbQfYwoY92c54cffljFI9vKuWFarISITipOYD3kWmA7EZcuWAgRi6wHz84BBxwgH374ocZSIn5Z9pNPPqnJOJz7e+65R0XjqFGj1Gp533336TXESweC+O6779b1cRyM9oUJRsMwtGzQKeM6S9dYTyeUjKJq+XRWjmQVVf3PQ6o9UlVDEW/PfuKSD/H24W7LYAlEsFx00UUqKnA9tgQIphNPPLHV+o7vbEaPHq37Fx4erhZZKjhgrUMcItoInXHhGOPyxeLHwDzu3wtuWlzJCDGsfIhArLLNAVcv4ovpeYHeZ5991PXMOnzBI4PlGMsnohKr38yZM6W4uNg7hchpp52mVkT2BQsh5813ORMmTNBtPOuss7RSBQISNzQu+qeeekr+8Y9/qIAkXnHhwoXeuTYlNDRUrwsEJlZGRHR7vT46MiYYDcPQ7OlBqZFyxDDnIRcSoEWt56WXyffzcqSmtv0LxpLymg0Z0zFhARLWDgQjFi3igYmtw6XIAx9xcPrpp8sjjzyi1iJf4YDYwIqGhQhXI+NwpeKaZUBQ4FZFIPG7K4yWLVsmTz/9tAoT3Kgtkb27MyFW0Nd1TxzhmWeeqcdw6dKlarVzIVGP36644gq5/PLL1bp3zDHHqFjq2bOnPPDAAxpniOWO40pTguaAUESEuZ8Rngi5hi9vuImvueYauf/++9WSiLu5Iazf9dj4fnbB7Y44ZNv41xXAqampKoAZEL/XXnutiunGIJSB8QceeKDcddddcsEFF+g1ZLQvTDAahqHQ/nDfIQlylCMag5xnSnWdyDeLCmXqisJ255puiO/utZcsecQBAoCHP/uDdeyrr75SYcdvxKgtWrRIp0V48B1RgluWhz8PfMQfblgyYkmEwKKGpeuf//ynCgzE6MUXX6xiBXcswhJXbHsBS90tt9yiFr5nn31WXdW+cXkcI0QSJcGYBlc14hIrJMcc9+5//vMfdeu+9dZbG2oeslyslk1Z7xnP8WU8Qp9Y1F69euk5deHculZFXN6IUmIJtxa2n3PPtn/yyScqGF2hyDJvv/12HW666Sa1ULq4whLYVyyxd955p7q+uYawNhLryjXF/rC9RtvGBKNhGBtALB2yS6KM7Rml33mcfTQzR1Zll+n39kDwFqyHQQGdnOPg/dKGIRmDODNECxYfXJxYFnnoI24QgDzYAQsRsXZYqxCLiCJEIIIA6xa/kx/JMgGxgADAdYk1jrg2xrEMXKTtBfaRJgKIMtyxWBBxTbtgScQFTBb0kiVL5Ntvv9UYSKyQxIQiwhDlxBRiKcRSB8QbIsQRVI3x559/qtWQBBeWgeDCTd0ww5rv6enpun7WS8zj1sJ2HXnkkSp0uT7YzyOOOEIt0GwjVmr2EQsr6wKsnxwTYl/ZVkIfmJZrhmm4JnCXs32IZFzbO6LNq9G6mGA0DGMTwoID5KgRSdIr3uMSyy6plm/m5Um+T6/lNosjBON8WgO6FJXVaE9xiAkLbJd1GHmQ4y7EUoSw8BUrycnJmilLFi4CkQxgRArCkFIwu+222//EpCGmEEKIS+ZBHCA8XVdqW4Ptx8U8fPjwDXGKiEVEMK5erGwkdhDn57pmsRIyLfuNQFq5cqXGjGJlwxqLxQ6xTkeVCy+8UEvlIMLpk79gwYJNLIYuWBJJmsEyx7lasWKFLpMYVLaxf//+up0IPayDe+21lwpQwgUGDBig87pudbaT5blgNeRlwd0/Eno4v+wnLwUkqiAOeakgmQUBTLtWxCvC0bWIcoz22GMPeeyxx+Tzzz/XfUW0YpFkWqyNxx9/vG4Dy8OtzzRG26aTcwG0b1+TYRhbDfF8fywrkLemZklBea1a3U4akySHDU+Q4KC22/2G291PC/Pk5d8y9ftf90yR/YcmysJ1xfLMxDTd19HdIuW8vVM31GdsqyBmbrvtNk2aQHBQMgUX8t///nd1IWIROuecc1SIuG5X2nHiAuXBz3y4onF3HnXUUbLffvvpcsmMZXkkcmBhIuGCZVPfj2xZRBDHmc8IUEROW4BtRqQhbBBc7na7wphx/I5QY1rE9OGHH66W2+uuu0732xWMiDbc167rGaFGhjT/Ijr/+te/aqbxvvvuq+vwhemB5ZM8wjpdAchvrtB3BTzWTKZj2RxvBCkCkHPMOPaDafnOvjE/y0M0IoTZbndZnHum4wWAdfEdKzTTMg+/85n9Zxzzsy4EM/vKwHh+Y1rWRagCJYCwXLfVlwnDg1kYjQ4DN35uoG7cjdE0gY5AHNcnRvbsG6OldmocAfnTwnxZk1vhmaCdUFrZseKqeMgTG4fYIxbRJSsrS2sIvvfee1qHkHFYmxqzgLkgDLB24XIlwea7777TcirEMGI9I+HDt3yLv4NQQnQhfnxFLvuZlJSkWcBYERFCiCemHTRokB4zjh1WREQgYmnvvfdW8YbllmYEXbp00em5B02bNk2tjY2JRXAFIttB4gxubMQisF3ueD4zsD7CANhGfmcb2WZ3HNvLvgFiF+HKeGAdvpZjxvEb45mWZbJswhfc34HlsR62j6QZfue7Oy3rZf1YJTluiGgTi20fK9xtdBh4KBK4zs2bG6GxeQIDAyQ1NlQWrC+Wwoo6Ka2uk7KKGhnVM1pbKLZVVuWUy8y1nkzXLlHBMqp3jKx3hPC01cVauLxvUpiMdvYxNLjtWlIBcUKyBO5lCk0jDKjFyN8BwpEECayLPPCxFCFusJCR9Usf94MOOkgFI107mN/tboIFDOsh7lCWzXIRQQhFRAVCk/g33N5kDCMe2iOIJDqkIMg4RhxDxBIZ0xxXV1z5gtUOUYWLH0HZ3kEkE0NLlxij7WMuaaPDQPmP8847T2NscL8ZzQPX9HO/pklVrUhYkMiFe6bK+IHx3rFtC253vi7pgwfEynn7dZOfF+TKm39mSXlNvRw4KE5O3z1FwkPatmBEnGBRx1KEOHEt7GQ+8yDHSsQ4BjcWD/cjxwiRh0WIZTCOz66FiPmZDnGIFYnvLBd3J/OxnEsvvVRj6/h725yVsq3DseK4uvF5HMv2vL9Gx8Zc0kaz4eFBRhzWB1xRWCS4QRKjglWCshF8JiCbN0pipdx4G+KeiIm64447dF5EG9l4xEyRQce/1P2iRhwxPgRgE1hNUDbzsm6g/AdB6ARlE2xP5wKCwrlx05kBVxDuIbL+CADHFYJVhTgrRCKWD9bFZ6sT1jxG9oySQwbHC8nFFTUin8/Lk/V57cs1Ta1J99XZ671r87guSdeShZBD5PF3i+sSyxiuToQj02EpJA4R67srDlkG8/i6E/mM+5Fx7nfcpvzNu1ZMMnqJj2zv4oljxz4iwBlMLBrtGROMRrMhsJrgdoQYcU5kz/FwoWAtDxxcUtQjI6aHMhu0oCJzzoUG+KtXr9byHPQyJZaQeSgWTEYdIpKyDIhAHkJ850FElwqEJ24w5uWBRAYf7arIwCN2CAsHsD6KE5988ska8E8JDFxjZArSDxbX2vXXX6/LQbgaWyYsJEj26Bcr3eM8cVTrCypl0tICqcDk2E7IK6+Ram8xxsjQQAmhEKWxTRDXR4KDG3dnGEb7wASj0WwIlkesIfYoqYA1EUGHpYL4pquvvlpbamFd4F9EJDFRLlgvEJc05PctAEs2Ib8hGomJQsj9f3vnAd5WdbfxNx6atrz3tuMMZ+8dEsKGAAHChrLKKKu0pYWWtl9LWwqUUqClZZRZ9l6BJEDI3ns7cbz3lmVN2/nOe+SbmBASJ3hI9vn50SPpLsmS7rnv+U9aJ2nJpJWCFkTW8GLsFfub8nVZtoE15hg4zsxPxmoRCli+D+534YUXSosj3zPfC7fl+6WrjPFZtLQoOkdylAHTsizQCyHV0gasOWBFSf13O0/4K1ZXG7SGNozPDGy3nikUCoXCixoVFZ2GYouurDfeeEN2dGARW7pkaHGkcNi5c6dsfs9aY2eccYYs7EqroAbdVbT0aa4sDS7T3GXchlmFFHiEWXuMEWKcFI/H8ha0XrIWGoUje5zyPWnQVcaG/Dwe3eW0VJaVlbWvVZwswUJETR8UgfRIr3uzurkFK3IbxHfj/4KRXWy0TjY0LBqVdVFxAnDs4zjHMao7J1D0yHByrHlTThTuT0+NFt6jUJwoSjAqOg0HGw6KtDTSHczOAo888oiMXaIVj5ZCije6oikmWU6hIxSXvH0fx1vPWCyKVhappZuZN7qcmflMkfh9HDlAUoAqThyLKRhzR0bKWEby5d5G5PeBDjAsrWNvL69Dd3TUUQp7KxTfB8fETz75RJYW6jhB7moY0sOQH5YsOh4c81gTsWOxbGayM4acx1EoTgYlGBWdhtY9zm5ZwPf666+XxX2ZeMKZK+MbmTlJty+TXhirqCW8dBV8LZatYFIMhSmTZHjP1z+W0DwSilu+NxbiVZwYgxLMGJVkbn8GfLGzDm76qBV+AQUNE78ocOgR0LKmeQ4xaYy3vmSBcrq6vzsRPy9mknf1ePdD4FhMcaj1Cif8njlO87tWKE4GJRgVnYbxgRRobEHFhBcWn2VHA86sKeQYo8iOB8xsppjkDLcjR7qiyZHLjmZl1Lahy5rlOmi9ZG0vxkGyFhw7VnCAJMc6nlaUlgkvV199NXbs2CGXKzoPS83MHhIBU7D3M82tdGBfuc2vYxmdnlY4xI0YgwMQ1octjCykzHOXwpCVA9gq8Nlnn5VigucxC3r3lbhUUlFrxU8e/wi/e34RnvtwJT5dth3LN+3D7gNlKKmoE4LSg1Yh+Pg/n+z/Tc8HKy/Q+sdEHx6HooxCkt4MPua9dnzecx2Xd1yn7adtR7RjHA1upx2fN26rHZvilV142A5SOyZrRjKRkGO1tv/R3ocGn3O9ts2R6xX9D1WHUdFpmH3MDOMFCxbIpBOKNJaw4XIOTow7pPWPs1gW76VFkgKNlkG6Qdg9gqVyWH6CcDs26GfmslZIm1YPCrycnBz5nAMeM6n5eoxP5KDF49Atw+LDTJJhDCXFKmf5FIHM0mQxYrpjWIaHgx0L6fK47DzBOCCuo7DldooTw+ZswZtrK7B0nxUcPCamh+CGaYkIMfq+0OJwd2QdxjNGROH55WXIrXYiKUyHW2YmIjPu232T+woUiBSLDBthjC9LSzFpjecXhSSL2rO6AM8zip8jJ2A8lyggtAxobscbj3XkRM8XoCD82VMfY09ZQ/uSb8N3PCwlCvdcNgPpCZEn9T9wHPztb38rE/MovjmmsfUfe0izzzI/7/Hjx8uxkmMhE/T+9re/yWoSLMNDj82///1vafnlfi+++KIcP8lzzz2HV155RYb/lJaWytjwl156Sa5nAiDDcVjqjN4Stihk72lux0oTHEs5vlHQcluOo7/73e/wwgsvyOLh9AKxMw/7PDPOm2XPuB/b+DEGnMYAjq38ztnFh8toCGAxdpUB3z/5rslHofgeKAAJBygKNloreKMLmskqvPDQ4sfZNgckZktzgCSMc+Qgp4lFQgHIWa8mFgmFnSYWCd3O7IrAbQkHLSbFsLctM6uZrU2xSGj95HNNBPIixvdGkapdCPhaHHS5vxKLJ0eIIUh2Qgk3egtb76OVsbLZb60PrMHIGwkQP5OgPjgq8rvhubpixQopaGiV5ySOXoCOIondSpjU9oc//EFaHLme1sfPP/9cChoKFK7nclZAoNB58MEHZQ3Wk03G6E7cYmKYlRjZ/uy7xISZcMms4UiJDT9pwcvPlqJZ83JQYHFCyoQ8lvdindnc3FwpEgnHz3feeUcKQX7GWnkv7sN9O8ZBasc8GqwaQU/Lm2++KUUgvx++JsU/vSgc61jPlt81Y78JJ+B8HU62//73v8sYcIpAilDGnLM6BWvqEn6/fJ+cIPC9c3LO2HUKTUX/RAlGRadho33GLnKAYtkaJrywlyhntRRriv5DTlIIsmK8GdP1jlbsLG3221hGu6cVze01JVl/0cx2Nn0MihpOtmgZolWLkzsKpHfffVd6BTT4nBZ4bkNxwFhHChgup8WM1jIKDooVFtCnqOC5TxHJccEXoHg7UFKNtxZvwkOvLcPa3PL2Nd9GFxSI684YjYk5aeL/7fquPmxC8KMf/Uha5C655BJp5SMUgRSGfJ8jRoyQ4ye/mxOF4zHHYZYX40R91KhRUpjSSszSZ5zEcwLNJgb8vjtCayi/ZzY2YMUJxp7ff//9csLA71iDYTz33XefPP4dd9whjQZMelT0T5RgVHQaWgl5kWDRbmYo0/1CFweteEeLT1T0XRjLeNqQCFmGhqzIa0SFtfsTDLqaOEswPK0H5Y0ECBEVpKWB9yEoDnme0jVKCz3FDK33R0L3KK2LtDTROkbLoQb3++tf/ypFCq2V9DJQRFAUseYpXakM+ehpWlrb0GhzIL+0Fh8t3YZ7nvwEP336C7ywaCvW7i1FjfW7VjqzIRj3XDQJp00cBIM+uH1p10IvC4UgxTcfa2MkrYJXXXWVdD9TSNJ6SwF5otDSx/GXNWX5vXJM7iwUlpwo0Gqowck/XdtfffVV+xJvL2jNg8Nau5x40OKo6J+oq7yi0/Cio7UFo3ikm4MDysm6chT+zZCkEGRGe62MNvdBrMr1hiz4MvSau9oTXIhRH4hGRysand5l+uBA6XLva/AcpWDRbhQyRztvGU9MiyHPc8YCs2i+hhbuQSslXdI8huZapZub4SS90Rpv4+4iPPy/r3H3Pz/FEx+tx47iWticbjEJaJMxillxYRicFCm/WxJqDMaNZ47B7HHZYnLQ8/3C+RlSlHPizQSUu+66SwptjqX8bGl5JLxnXPbRoJWS4p1xiux6xRhyWhI7C62PtB52dHkzUYbxjgwBOhrKKKBQvwCFQnFSsCPK7MHe2FKyvtCGepvvWxnrmw9bcygg3UJYaPXH2ckmkIGM/RS6G7VY1Orqaul+/j7o5qRlkVYyFuyntUsruN+TVNZasSa3AjaX93vlt5cQZsSckWm4+dzx+MVl03HreeMRH2GGUReEC6YMFmIxC7rg3pkY7N+/XwpuCrPLLrtMfsYUa5yAU8TR8kdL35o1a2SC4dGg65gxi4wBp3WR4p1W345QhLKsDmNLj/weaVkcM2aMbMBA0cjX+/LLL+V3z9hzheJoKMGoUChOmkEJJgyM1svH9fZWbMq3HhIcvkp7UxcJk10a7d6LKQfD5LDucU/6C4xDZNksihHeUwweDSaSUbRQkGgJFczOPZlYvGPB39Lxfk/jc1IRFBCAEH0wZuQk4f7Lp+Ph287BHZdMw8WzRmBwejxyshIxLDUGl0wbjMvmjEZYSNdmwWuuZ0LLLR93tODSOqetZygPM5pvv/12WSuR2ckMD+Bt3Lhx+Oc//ynblzJ2kOs6Wm21x/zMmbzHpCMm8DF8gNZJ7fPnYx6DZXQYn8guWdr7InSRM5SAgnHGjBlyW5ZEY6k0xkQSbtvxtQmfH80yregfqLI6Cp+BwfWcebMUDzOcFb4P48cWbq/F2xurpZVuaLwRd5yahDCTb5bdYAvA11eX44vd3jIr106IQYOrFR9vq5MdbC4dE41zx8bKdX2R//73v7LUFK2BdD+yzSZFCd2ZzObleccyWcyMZlUDlouhJfEf//iHFDTXXXfdIcHAeqhMfKPrlMsoLik6ugrGJRaU1yHUpEd6QpQQXUcXKoyp27S7CMlxEYiJCBWi6eh2kNr6JkSEmbvctcr4Qyb/cPxinCgzkJlpTCue1q+e61lGjFY9Cm12XWF5MMYNUqDRTc3PkJZAWhhZAocWSLqpaellQgutkHRB87iMK6RVkNvSKsxQAn5P/C6YJc3LOhOTmBVPkUdxyf1p3aQFUatWQcHPeEZ+30zAYca2JhI3b94st+P/RGiJZEIMS+1okwRF/0IJRoXPwCB61h1jID0HQIV/sK/ChueXlaPU6kGkMRDXT0vAmHRL+1rf4kjBeNW4aJRZ3ViyzyrL6dwyPR5TBvXdiyFFA0UFxQWFEydovOdzui75mOspRhjLSFFJuI6XCm6nCUYKNa1TDOlYHutk4TFrG5uxLa8C6/cUY8PeMkwdnoqb505EiMn7XhQKRe+gXNIKn4EzaWb69UampeLkSY4wIjXKezFvcLYit7JZdk/xBzhb1jKkKYQM7YkRfRUmOzDOULOy8TFFIOE9LUoUihR/mlgkXMflmlgkPAb357ZdIRbtThc+XLodf3xlCf754Ros2pSPumaXEI/lqLX6f89yhcLfUYJRcVxoWaCrhJYHul9oVaD7RTNOd1zP5VzPx4QWA1oraNk4MvCacDu6OmilONLYzdfquA+PxePzXqPj8bXXJDyWdmyu77gPl/O4vDEL8WRKWigOY9AFYHxaiGyrx/jA7SXNqLN5vvN9+gJ8R20d3pdBvOfyBq+FjFIoLkx1sOhJ3J4WFJTX4tXP1+PHj36AZxZsws7CajTa3TL5KDLUgORoizhH/WMColD0ZZRLWnFcKLYWLVokrQwFBQWy/R7jmRi4zdIbFGtcT2sD4164PbuwsPQOOwloratYUJbFZuluZnA2Y3nYcmrLli1yXy5jwDcD7xnrw2NS3F1wwQXyfTA26K233pLxVuxKQPG4bNkyGafDx4ytYZFcxvewowH3ZywRA8AZw8NjslwI43A2btwoLSh8b5dffrnMNlScPE12Dx78rABljV6Bf9spCZg68OS7Z3QXTHL595dFWFvs7Upy5ymJ+GhLNYrE+2aG9MMXZyI61JvEo+g+WlvbUFxZj5XbC7Bowz4U1x7uEqMLHIDU2DCMyIjD7NEZGJwWh+BeymhWKBSHURZGxXHhnIJ9T1kv7IsvvpDCjs8fffRRWfmfFkU+v/vuu2XRVy14m10iGDTP7Em6wliglr1sGexNqx7dz8wSZB9TZvGxrRXblREKTIpDBuBr0BrIfqzsUkCYycm2VhSwdI/x+BSC3JdB/Tw+RSEDyNnFgMKUsPwEC5AzXpLvk8Hoih9GqCkYY5IOd5NYl9fY/sj3sLbXXCQeMbmpsWvlWAYgzKiSrXqC3YWV+Me7K/DS4q3fEotDkyJl9xWWwrnlgskYPjBJiUWFwkdQglHRKejaZSkG9ihlF4if//zn0rLHrD0NWhRpIWQDe9YTY/9RtpRiJuW9994ri9Vy+6+//loG27PY7JQpU2SmJtexgwTjpDoDrZgUhSzvwdf8zW9+IzM5mU24cuVK2VCfIvGee+6RpSUoDNm1gv8HobWUJST+/Oc/y+4Wih/OpKxw6dYl28ocsDl939Xv8rTB7vE6Wcy6AQjui42kfZAQgw6tbRC3g7Ke58D4MNwzbxJ+f/1puGjWSAxKjeu1OokKheLoqNFR0WnYyYFuX1oL6d6lW7hjX9FLL71UlnzgepZ0oAuZ7mSKR7qC6Ypm6QZa/CgYKThZsoHubZaVYHkPdpHpDEyQ4WvMnTtXuroZrM+uCRStu3fvlq/NOnLshkCrJK2gtDxq8Yp0pdNNzffWMbhfcfLEheswuL2/tEcIga2FVvnY16BI0Wh2HbY2pkcqV/TxYIgIy7CwLR0nbbT683aikU3piVGYN20oxmTG4s65E/DY7edh7ozhiI0MVUJRofBRlGBUnBS8cPCC0TFhhLGCWswa1x8Nuo55ceF+jDP8Pridlsn5ffA4R7tQ0cXM19cKz/LGwrbsn6uJw46FdhVdgz4oACNTDluI1xXY4Gnxrb6z4heDStvhRKqOv55wk/o9HA/GCrNnNENFaK3/8MMP8e6778rJ2IkydWQGfnnFTMydORyhZjVpUyh8HSUYFZ2GVj0mqlAosscsE2C0xvRHohWsZRKMBi2CfE4rIJNc6I5mCR1eeHghYnFbWgYJLYaapVKDRWc1gUrXNcUiL1zaMh6Hlku6qWmpZJFhxkjy9utf/xqzZs1SBcG7EWa1pkcbEarzDivlVjeqrN4MZF+i0XVYxNo7PI4wqd/GicAJXUZGBtLT0+UE7EQx6IMRFxXW/kyhUPg6gf/HoDSF4hhQmNG9y84OdEXRMsiWVMwsvuqqq6SAZDIMXc50VdPKyBhBxg2yDRaFJhNfnnzyScTGxuKWW26RopEC79VXX5XbMVnl+eefl9tR6DFekkLwjTfeQG1trVz/n//8Rx6LWc1paWmy24C2nmLzX//6l3Qxs0MFW16tWrVKClG6wJlQQzHKLghMemGmNDtTaB0PFD8cfu/BQjQW1TlQYWVZHSA5XC9rNPpKtjRL6ny05XCdT514W9XtvaXnDIlAcqR/Wbr4++ZvmecNf/P8nDmJYxF89gbmb51ijucK13HCx8oA7FHMyRonXjy3aG1nhyXCiRnPc+7DrjA8LvfhOMB6i6xMwAkfzzOeozyH+JqsSMCENk4mv1y6Ck1CjEdFhCE4yFsRgbHFPBaPzfOV74cTu+N5EhQKhW+gBKPiuGiCkfGJSUlJ2Lp1q4xnvO2222QcIwUjRRvFGC0OvBDwlpOTI93UtCru3btXCkpmNXMbWvp4PG7H9RSPTHrh8djblBcrikZaGXlB44WRHWB48eN6XqDYxoqxkdyfFza20mJcIsUoe6PSAsoLHS+ohMktjHeky5qvO3XqVPn+FF2HLmgAiutd2F/tgLv1IEL0ARiWFCITG3wBl6cVn2yrlY9DdAGyHaBmcZw1KBxxYf4Vx0iLOi3odAuzwgDPKa0qAAUhz1VWD+D5ysnUM888I5PDWAqL6zix40SNAo7nB8Ubz1GKOp6LrHzAmEVWJmA7O/Yt1gTj2LFjZSIZzzGebzwOKyds3bkXSw64sLHQBnPwAGQlx4iJ3esylpjn8TvvvCM9A+ybzHNYCUaFwj9QdRgVx4XxgFdffbV0PfHixEGfQo03QsHIwtsc+DvGMRJaICgGuQ2tGUe6rrT1tHDweHxMi4V2EeFrM6ieApPxh0xe4b3mWuZ6Xvx4fF78OsYl0nLJdYTH1MQh36tmGVEXq65n7f4GvLy6AlYhxIbGGXDjjETEh/uG5a6szolfvn9APs6K1KGk0Q0t7+XP8zKQFuVfFmdOfljuiklcN998s1zG0lU8F1jSilb1W2+9FWeffbacTN10000ynpdWfIpNnqvLly/H448/LoUczweKQopK1jGl54DlsSgQKUQ5iXvwwQdlotqPf/xjafXnZJEhH4899hje+3QRJpzzI+RbB8gi7qlRZtx35Uw89bc/y/d4++2343//+58UsfQ+aFZNhULh+6irpaJTUIhpoo2DvCYWCS8yFF9c1lEsEu7Hiw2tG0eLc9LWa+KNF7qOIo77cF9aGrmc23aMQ+R67fgdxSLhdlzOW0dLIt/nka+j6DrSovWwGL3fRUGdCxWNvtP1paVDhjTLumg5OWGGAOhpbvRDGOZBazndxTz/KCJZ/H727NmySgHrj9L6SHcxJ2S00PN8oiWe+06ePFme17TUM4yD5xErFtCySKsjt+P2FHxHnt8a/H714fEw55x+SCweFJO4WIsOFrN3XFi7di3WrFkjLZU8/442HigUCt/F76+YtCIpuhcO9rQwMuZPoTge8eFGpLWXqHF4DqK4zvGtUja9SQtV4iEOv6cYcxB0PuI2P1E48aHI43nKG4XYDTfcIC2GzGJevXo1fvnLX8ptOFmiVZ4Cj/e0tFNo0j1Mt/Z///tfGWPM2EKKuo5Cn5b5o8G40H3F1dhaLY4fkSTFolkfiHB3BWIOViPEECzHaQpQ1k6ll4D3PL5CofAf/FowMpCabhAGWyu6D16Q2AZw5MiR7UsUimMzIuGwGCisccLT6huCsb758ASzo0AMNwULQeWfFsaO0BLI2GHGJGpdk9hJiWMlQ0pYq5Txg7Q60gqpdWai1ZGdk1jwfubMmVJ0zpkzR8YnchnjiFnT9GiW4tIaG579ZAPKbV4xrgsKwCXTh2BMYiAcDZVyH7q/mahGKyWPy/fD0BaFQuE/+JVgZGIDEyM0OENm1qyyMioUvkVW3OFYwNxKB9wtviEYO74Pu6f1kI0xMiQIwX7qku4IXcuMUaQ4ZIwhXdIUekyAYcLX9ddfL5PArrnmGrz88ssyrpiWR5aiYkIb4xx5T9j3naWoaK386U9/KmOJjyQkNhX5nijsq/AWabcYgvDjs8fighnDoQ8+7HLW3M98D5zgM9eSLmqFQuE/dHvSC5MRWEuPoo7xMxy4WHqFVisOHOwUQpcIM2cZx8Ygbd44iDFTj/FyzPzj/osXL5Yt6VgihfswtobH4L50tbAcBOv/MVaH23M/rR4gX4fbUmRyWw6s7FrS3VmybW0HxUWqTbYgc7TfN9hb0OxqQZODt8MXrY6wQ1mMRQ+jLgBhpmCE6ANhCA6Qs3feBwT4/8VN0XfhsPLT13NRK37f5IGzUzEkqXNtH7uTRVur8Mp6b1mdaGOgfH88/+aNjsLc0THy/PIn+DlzTON4qsXkchnHXbqb+VhzWfOey7k972lZ1JZzzGTyzEUXXSTDT7hMOw7HUs3VzRv3J+U1TfjHO8ux6UCVXJ8YYcaNQizOGJ0ltgs4tB37xJ9zzjmy7NX48eNl8sx9990nC+nzplAo/INuF4x0O/z973+X2XYUebxxYGJmHgUgByRuc/HFF8vZL7PnWK+PYo8CkPEuLPPAEg/M+luyZIl0mdBFyrZwnEGz80BqaipOO+00Wd6hvr5e1gLj4MQ+xhy4mDm4Y8cOOUCyHtjpp58uM/z4froaxmvVtBctLmt0o7qJj92obPTILhMRpiAYhegzCRFIaNkw6byPHe5WWY6EOMXjJlcrrM5WRJmDEB8ajOhQnRCSOsSLW0KYTj7XdZjJKxS+wvNLivFNXpN8fPnYaJw3NlY+7k1eX1WGBbsa2p8d5rqp8Th1aAQChPDpb3AM5vj89NNPy/7vbNd5PFpb2/DXV7/CV9uK5HODENr3XDQZp04YLMViRzgeMzubYpOTewpZuqQ5rrOsjkKh8A96TDBS1LFGlzbD5ADCmmAcMBiY/cILL8hisnRT0F3BGSjrfP3zn/+UVkkOZhR6DMimaKQrhSVT6DbpKBj5nK4Yuqr5Ggz85oDImSxfhzPhK6+8UloqmcShuUp+KPwY64UY3FPejJ3ldlQIoVhrc0vxlyBEXWqUHnHhBpgNgTLAnm3UKBQb7S3iIgUY2wWj09MKT8tBmWV6UCy3C9Foc7WhXmxXJ4RnWYMLBbUusMVZdIgOsZZgDIs3ITvBjFghIIParQz+Ci8u/J3ce++9sr+0wn9ZsqsW/13ljaMbIX6jvzovXT7uTY4mGFkr8qbpCRif0T+7jnB8ZLgPPUFMfqH35Xi0in0+Wb4TLy/aLCa2Lbh01nBcefoY6HXf7ZbD4zOOkkXE6elhLCNrstJDpFlFFQqF79NjZystf9OnT5dB1xyYWJh56dKlstPH7t27ZXyM1o+UZR7owuDAMmrUKBlwTXc1S0CwVArFIfc/crDhc9YbYwFpHoNikJl9HLB4Y+A1hR2PwViaHyoWaUmkW3lPqQ3Pf1OCP35WgLc2VAvRaEdquA5XTozFvWem4roZCRibGoqQ4AEorGjG4h21eHJJKf7xVYm4oFbguRUVePLrUnl7dnkFXlxdiae+8T7/cFMN9pXZ0CqEJPv0zp8Yh1+dk4YfTYmXNe7KG9z4YGstHltYhH+L463f3wCreE8tQqh281ygW2DYAq3MJ9ObVuFbpEQZYWyPCyyzutHs6P1Y433V3830DRWTtdB2a39/hOMmw3M4RndGLJJAsc85U4fipxdPwy3njsf82SOPKhYJj08PEcdmdobidYB1HJVYVCj8ix47YxkrqAk0xsQwNpG1wzhIXXbZZdLCqFmUGGOobctBhdt3RIuNORItJodwfz4nHAT5eiw6TeslW1rR0nmyeFraUF7vxJLddXjsi0I8KYRaSaMHE4QovGZSDO44NRHDUkJRVOfGexuq8NCCQjyzvByf7ahDvhB4bCyRFW3EpPRQzBkUhjmDv3ubnmlBRrRBfG6ByK93Y1V+E55ZWoaHPivEKyvKkF/jRFqMCT+aGo9bhCCdnhWGRmcrXlpTib98ko9FQpQeYLcNrdCcQtHDWAyBSI5oL5be2oaS+t7vK+05SnmfUPE+tbqRis6jCw7CKWOzcOGskQgx+VdLRYVCceL0yhSPlkO6HinuKNxYroVikVbE40GrGet50QJFq2FnYDwjX+u8886TQd2c5WrCkn2Rv/76axkreTz42iW1Dny6pRrPLyvD+5uqEWfRYf74GFw5IQaZMQZsL3PgNSHanl1Wim0lNoSbg3H6sEgZI/VjIexun5WEu+Yk4w5xmz8xHueOiT3q7cLxcbhzTorc9vbZSbhlZiKunxaPC0ZHIyHCgL0VdryyugLPLy/D0n2NCDMF4ZIx0bh2chwGxZuwaGet9z1urJLv2Vfq4Cn6D4zRTYzw1mPkJKukrnetxs1OWt69YwYNn1remEFMygwqDlihUCiOSa8IRtYJu/DCC2WsIRNY2JGA1r/jwf7BtD6ybASDszvrtmSsDHuh7ty5U8ZBskTEH/7wB2m5ZJ2xBx54QGZmHwsKLrp76Sb+YmcdwgyB+MnsZJw1PBL1dg9eX1+FV4RQpEjMjDbgNiEMf3JqMq6YFIfzR8dgfGYYMuPMiDzBJBVmbUaE6JASbcSY9DCcMTwKl02Mwy1CRN4pxOSkdAsKaxx4c0O1tC7uq7Rj1uBw3Cbe2+hkM5bubcC/lpTigw2VsIr3eSR0qRdW2WWPXYWiK2E2f5T47RK3+HkdqO1dC6PT0watHCSjNbSIDb5PViNQKBQKxffTI2V1KMaY/ELBp1n2+LKlpaVSyLHiP7OiKQYZZ8hkFsYr0qXMNleMb2QMDPfh+r1798o4RloltXhIxiXyMdvAMSGGsJwD17EOGYOumThDF/fHH38sBaPWz1QrAK65sDviFkKKmc67y5qxLLcBKRF6zB4SDn1wEFbuq8fK/Y0yYSUjSi/EYxRShbDTiwsQOdrxuhLtq2OnhbwKO9bkNWJ3pQO1zR4MjjViTk6kjM36ancddpQ7MAAHccm4GIxKtUg3nMPVhvc3VWFHqQ23C4GZHGXo9vd8PPg9sZctE6AY56TwX/j7XL3P21e62XMQo5LMuFVMpEJ7yf1LS/vfvyxGVVNL+xJxjorbqeJ8vm5aQq//9hUKhcKX6XbB6AtQKPLGWEnGUrK8DgUpm/KztA4L0w4bNqx9ay8UYewKUVTrRGGtCyZdACJNgQgODMAuIR7XF9oQIpblJJoxJjUEmbEmBPdyDTdaQasaXVh7wIrNxU2obvJguLhIT80MQ4sQ7pvEe95cbJPvl27y3aXNeGdTjYzrunpCDM4c6e1F25sowdi3yBWTkedWlqPc6kGWmFTdPDMRSVHHDz3pDvaK9/L00jLU2g8LRvaPvmxcNM4Y6a3Xqvg2LS2t2F9SjUiLGTERIUpUKxT9mH4hGGnhZAsslvMh7GTADgYUj7RgUpjQQqnBkhEldS7sq3Sg2d2KgbFGxIYGY12+Fd/sbYDb04bp2WGYmGlBQrjB54r9Mk6rosElLYdL9jQIsQiMSQnBpMxQ+T8t2lkHszEIdUIQNzEDR5ASpsMf5mX2+v+iBGPforLBiX8Lkba/2onYkCDcOC1BJoT1BhvzGmRVAmv7b56EiknfzTMSMKafltQ5HvmlNfjT/75BRlwYrpgzCpnJMUo0KhT9lH4hGAld41p2tZZBfeTAx4+CdRO3FjWhqskDQ/AADEsMkZnGO8tsWJbbiMGxBswZFoWEMD2CAr97DF+CwpEldhZuq8W6wiYEBgzAlRNjUNbowQebq+HqELbI/+JXZ6RgeGrvXMw1lGDsW7D4/FNfl2BrSTOCxe/vR1PjcMrgiF45b5bsrJWxxo4O7QEjTIH4xekpsuKA4ttYbQ78/sXF2JpfjUDxfY3OiMYjt89VglGh6Kf0m0hvxi7SisgbHx856LGFHy1ujAOssHpkrCLFYlWTW7pxWXfs6omxuH5mMlKjjNL97OsDZ1BgACJDdLhscjx+MisJSRE6/HNJGb7YXvstsUh4Cf1cXFBV8ouiK2EGcqQpSE5IGPrAtpitWuZJD8OyUy3iPXSEk74I89HrB/Zn7E433vxqC3YVedsohofoMX/2KPlYoVD0T/qNYDwWFIulDS4Z48c2fMMSzYgKCcbeimYU1DhlPcRJmRbk9JIr7YfCvtPsBHPx2BiZJdrQwSXXkdIGNwqqHO3PFIquISVcj6D2GjbsbORpL23T0zSKWZLniJcONwTBYlKCsSP0xKzdWYjFm/LFd3UQxuBAzJ00CCMGqsQghaI/47eCUeveQjdyx9uJwn0qrW5ZDoeJLmNTmWF9UDxvRpMQj3w+VIitcHFR8dc+s/wf6RpkPOOxjDt14mK+scgma+YpFF1FVEgQtPbCTU4Kxp63MLLlJs+BI0m0eMv+KA5TXmPFB8t2orbJO3kckxWPc6YMgVGvPiuFoj/To4KRTedPpOD2sWB/avabZis51ldcuHChfHwiyNjEUhvWFVgRYQqS2cPMLN5e2owwYyBmDgqX7c18LanlRHGJ//OL7TVYvu/YtSbprWOiTEmt86TEt0JxNLR4X1Ja74LD3fMTEp7rrMN4JIPieidj21dxujx4+YuN2FFcK58nR4XilgsmIjrCP70rCoWi6+hRJcSe0c8//7yss9hVUHzm5+fLftMn0n+YVrR9lc04UONCtDkYGdFG5Fc7UCDEUlaMAWPSQhHWR1xVjBljx5nJWRYMFRdIi/77v/bSRjf2VdlVZxhFl0GXr2adr3e0wtULFkaXEItHE6phqiXgIVgdYtG6vViyrUg+N+uCcOXs4UiJi5TPFQpF/6bHBCOLb2/atAkvv/wyCgsL5XMW866urkZdXR22bNkiLYQul0uWv6EA5PKOfaPZvm/fvn1yHw1mPE+ZMgVXXnklQkND5f7cj9uyhSALgx95DArXbzbuxobdBTAfbEZ2rAH7Kx0y2YVdWobEm2HS9Z1WYWZDEGYNicTVk+Nx44xE3HFqsiwlctbQcGRE6NDRgMpr+eq8RjiOYo1RKE6GECHKGEdLbEK0HZl40hPQHW13Ha6/qBEfoXoga+zMK8f7K3bJ0Bwye1Q6po/OlI8VCoWixwTjmjVr8OSTT0qxdsUVV8guKxR0Z599tmwTeOONN+K9997DH//4R5x//vm46aab5P3ixYulK5sik4W22Quatw8++EAel0HYS5YswRNPPCFF6Icffih7RrMYNwt1X3rppYeOwde+5pprMe+Sy3HD5RfiV9eejW8+/h825dehwdmCnAQzhiaaD7nP+hrMWI0P1yMnKQTTB4Xj0knxuO+8DDx0URbumpWAWVkWJFqCUWtvRWmdSn5RdB2Do709pUlVQ8/3lG52tcF2RGmAkOAAhBhUD2lS22DDRyt3obi6SWa0j86IxbxThsFsPPy9KRSK/k2PCcbp06fjnnvukX2k33zzTcydO1fGydFiOGfOHLz//vs466yzpMBjPOKyZcswfvx4fP3119KFTYHIIttvv/02HnnkkUMtBgktlbQc8ni0MBYUFMjXo3gcN26cbAXIloKLFi2CrSUQD/zzbdzy898he9AgDJt+LjzQYWi8CVmxRtnJpT9kAtJFyNhMsz4QCUJEThwYgZtmJ+OPF2biV2elINyoMkcVXUdH1y+TyXoam7sVjc5vW80zow7HVvZ3WGosMToMESEGxIaZMP+U4chI7P3OTwqFwnfoMcFoMBhkn2d2V4mLi5PPCQXkJZdcgrS0NERHR8tizXRdP/fcc1i7di08Ho8UhBSBY8eOlT2nJ06ciDPOOEPufzQoEufNmyf7TbPlH93STqcLTlcLbA4nDAPcSIs2ocHugdXegsFCLGbGGA+5zfoztEImRRqVq07RpcSEHs6wrW/+rmu4O6GL1e5p+07sZGKEXhakVgARFhOuOG007rpoMi6dNQxjhyS3r1EoFAovPSYYvw/GHYaEsJQNUF5ejt/+9reyy0d6ejqGDx8ulxPGIdKqyJmwVoT7+6Ao1bq58N7W3Ayb04NyRyC2r1uGB26/Co88/BfMOnMepo7MFGLRoMSiQtGNRJgPWxhrmtztj3oGJnA1Nnvanx2GtVaVXjyMyaDDdDEenjNlKPQ65WFQKBTfpkcFI4UerYW1tbUyo/nI0i20Iu7duxfz58/HtGnTpEWScL+oqChZPocJMYxFXLVqlVzXGdgib21eA0oKC3DWGafjtp/eh2t//hdceMFcDIxnzGKv62aFok9j1h8WjEfGEnY3rBJwpFUzWJzySZEGde4fASfOSiwqFIqj0aOjZUZGhrx/4IEHsHLlyu8IRrqQs7Oz8dRTT0lL4/bt22E0GqXF8LTTTkN9fb1c/vTTT6OysvKQW7sjtCgeSbNnAFhRIz0pFktXrsVHn36Kgi3L8cYzj2LN6tXfyqJWKBRdj7lDckn1Uax93QktjHW2b79mtCkIoTolFhUKhaKzDBCircdqXDAeccOGDdL1PHr0aGk13LNnD0aMGAGTySSFGy2ILLFjNpsRGxsrl1Nost5iXl6etC5SWHI93dJcxxhFWi2HDBmCmpoaeXzGLgbr9Fi3fT+Wby/A1LE5+PfDv4UhNgvnnT8PA6MG4Im/P4b4+Hj8+te/lq+j6H3Kyspw7rnnyrAExrMq+gbVTW7c89Z++ZhGvZdvyJGPewK2I/zHwkLsq3W1LwGGxhlw04wkxIWrLGCFQqHoDD0qGEnHl/u+DDxtm6Ot57rOZu7xIrX2QCPCTUHIigzCVdfegBaPCz++/hoEoQVvvPEGLr74Ylx11VXfyrpW9B5KMPZNGLd47zt58LQdBBOTX7huKAJ7KEO50uqSr92x/OMpAy24anI8TIb+d957PC2yFqZRr1zPCoWi8/S4T4ZiT7t9H8daf6z9OsJOLrvLmmWMEru4FDa04srb7sWUiePw9aIFWL16NX72s59JwajEokLRvbCEU2r44UzpOlvPJb7YnK3fEoscQUKNQdAxkLGfQU/N0i15eG3hRhSW16K1VRXoVygUnaNPjpht4uqwv8qORkcr0qMMMsiePaInj87BX/74O7z44ouyiPisWbMOZWgrFIqeoye7vdRYD7uiiSFoAGJDg/tlwkt+aS3eW7YTby/fhX+8sxJ7iqra1ygUCsWx6XMjJl3WNTY3iupcCDUEyoLBhTVO2epvULwJgap8jkLRK2hnHqViT0bC1Nm+nSFt1gcgrkNdyP4AP2+b3YkFa/dif3kDWloPwt3SBmOw6nSjUCg6R58TjC5PGw4IgegRA+LwJDOK65xiYDyIMamh0i2mUCh6niAxUYuxHI6Za7T3XKZ0iRgDOhJiCJLdjfoTFIzrdhXhy40HZNZ4qCEYF8/IQWZyTPsWCoVCcWz6lILioFjV5EZFoxvp0QZYHa0obfA+tnRoTabwPXbs2IH/+7//w2OPPSaz3P/2t7/J5/n5+e1bKPwZhh7rOriA7axz1UOUWr8dLxmiD4TF1L/Gg0abA29/swNNLq9Qnzw0CZOGp8nHCoVC0Rn6lGBkWNSWwia0tR6ULqfNhVYZ5J0UrlM9Y32clpYW2S/873//u6yxyfuvvvqqR12Xir6H092KqiNc0ilyPOhf3oYFq3Yjt6xePo4y63H5qaNgNqqSQgqFovP0mVGTwmJVbh0W764XYjEYq/c3YMX+RgyMNiDcrMpH+DqDBw/GRRddJIu0ExZlv/TSS5GSkiKfKxQnA7Ox6YLVYAhzToK5/Vnfh+PiltxifLJ2n3weLITyFXNGIiU+Qj5XKBSKztJnBCM7OSza1YCsGAMihUBcnW/F4HgjhqWEdroUj6L3YEefefPmHeofPmnSJJx//vnH7BmuUByPsnrXtwQjh4LEfhS/2NDkwKerc1FttcvnozNjMXVEGoKO0hFLoVAojkWfEIwso7NBCMQqIRpnDAzD3ko76m0tOD0nsl+WzvBXaGU877zzEBkZKa2NSUlJ7WsUipOjvtkjBGP7E0GYPhCR/SRDuqWlVSa6bMgtAyM7IkMNOHviYMRGhLZvoVAoFJ2nT6ipaqsLG4uakBGpQ0SIDmsONGJGdhhSIr/ba1rhu+j1elx77bUYOnQorrjiClVQXfGDoDs2lxUTOlgYM6MMCO4n1RKsdhc+X7MHVodbljSaOiQJU0emIyBATaIVCsWJ4/cjB91Nu8vtKK5z4czhUTLRpVVcKKYODINO1RjzO7KysvDqq68iJkaV+1D8MOyuVjQ5W9ufecmKNbY/6vuY9MGYJgRielwY4iNMuO7s8WJMVJMwhUJxcvi9YORFgRbFQXFGRJiCsWJfI0YmhSAhQmUA+isZGRntjxSKk4e1Hjk+dCQlqv8IRoMQjPNOGYFfXT4Dd1wwCZHhqquVQqE4efxeMJbVO1FQ68TIlBDsLW9G60FgVHIIDMq6qFD0axrsLWjuIBgjDAGIDulfSVRMbhmcFocpIzPblygUCsXJ4deCke7o5bn1SArXIzVCj2/2NWJIvAlDk9RMWqHozzB+sbLJgwbH4RqMWdFGhBjURFKhUChOBr8WjEx22VJqR3acCeWNblidLZg+0NJvgtoVCsXRYa/kGpsHHT3SsWE6GILV2KBQKBQng1+PnpsKrQgMGICceBN2lDUjwhiEwYnKuqhQ9Hcc7lbUNB1uCagLhOwfrfrJKxQKxcnht6OnzeERItGB+NBg6MXVoLDGiSlZYdCr2EWFwufp7lL6rpY2WcxfI9wQiNiQYASw1UsfhXUXVStNhULRXfitYCwQArG8wYUpGaHYX22H1dWKHBW72OfgBdBms8Hj8V78i4qKsHbtWrjdh61HCt+nTXyPtPppdHe7zmZ3G8qsh38jkSE66ZLuq7jcHny2ahd25JXD6ToslBUKhaKr8EvB2NLaJjOj2eElPdaEHcU2jEg0ITpE1RjrazQ0NOC+++7DihUr5PPFixfj4Ycfht3ubXWm8A/YbaW22ZuAQhufkT7iboKTDLqjG52HW7yEGoMQbuq7GdIUiq9/vR2PvrUc732zDfXtrQAVCoWiq/BLwWhztuBAlQPpkXq4W9qQV+1ElhCOZr0SjL5OaWkpfvKTn2DLli3tS44N+4BTHLa0eMWGdq9QHIvSemf7I4B5LmkRuj6bDGe12fHlpjzUNjlQUmvDgfJ62TNboVAouhK/G0FpPai1ebCn0o7R6RYU1DhkbbVsIRj7cnySL0LxVl5ejqamJlRUVEh3cVtbm/yOrFYriouLUVJSgsbGRrmcbuSCggKsX78e+/btk+uam5vlutraWrk/b1VVVXIZCQsLwx/+8AdMmTJFPj+S1tZW1NXVHXotuq+1OC6Hw4Hq6mr5+jwuX0M7rqJnoUvaKSZ3GmHG7p3cHah0tD8C9EIxDok3tz/rW/D3v2JbIZZsLRCfMRBjMeKM8QMRFtJ/CpQrFIqeYYC4uPpVlDTf7tLddfh4ay1um5WEdzdWScvBrackIaSbL0KKb1NTU4N7770XaWlp2LZtm3Qff/zxxygsLMRLL70k4w7r6+sRFxeHG264QfaKvuOOO7By5UrZAjA7Oxs//elPYTKZ8K9//QvBwcFS0FHo3X333Rg9erQUmVdddRXuuusuzJgxA8888wwWLlyIF154ARaLRcYzvvHGG7I/LsUh+1Bfd911SE5OxqpVq/D222/LntSbN2/G6aefjjvvvBNmc98UD75MdZMb97y1Xz4OFNPUl2/IkY+7A4as3PHaXtjc3qEt0hSEv8zL7JPjQ3V9E/7w0lfYVVwrn8+dNAi3XzRFtQBUKBRdjl/6aPaUNyMxQocBOIiyRo90TZv0Kju6p6F1Y/Xq1VKwjRs3Dtdee620GD7xxBPS4nfJJZfgvPPOw7p16/Daa68hPDwc8+bNQ3x8PObOnSu3z8zMlFbB8ePHy+e85efnS2HodDrlBIGikNscCZf97W9/k8L08ssvx7nnnouvv/4aH374oRSaFLSvvPIK8vLy8KMf/UgKTp2u7yY+KLzUWN2HxCJJFWNFX51MLtucd0gshogx8NLZI5RYVCgU3YLfCUZ2d9leZkdcmF5aLRiWNDzJrNzRvURgYKC0Hv7iF7+QYo/u5KVLl+L8889HamqqFJK0JL733nvSsjd79mzExMTg1FNPxTnnnIPY2FhMmDABV155JQYPHowhQ4bIfelepqXxWNCtvWvXLpx99tlISkrCmDFjZB9qClQtKYav9fOf/1xaKadOnSqtmIqep6rB1f4IGBTVvX3eC2u+/bsZndw3qyeUVNTh3RW75WMOf/NnDkNiTJh8rlAoFF2N3wnGYnExYL/ojEg99lU7EBQ4AKlRKl6nt6C7d9q0adLdTLcwYxkp9pjJfMUVV+Caa66Roi4qKqp9j+9CS+Bjjz2GP/7xj9I1TVdyZygrK5Oxib///e+lhfGmm27Cnj17pAVTg+7wxMREKWyZQKPoHTxMk25H383JJ7vKmtsfeYXUkD5YzN/hcuOD5TtR0+gVx0OTo3D6hMHqN65QKLoNvxOMLNBN10uEKQiljR6khOlhMigXjK9AK2JCQgIeeOABGceo3ega7mjd0+oqEopLxiXOmTMHF110kbQ4dgbGMDJW8U9/+tO3XovWztDQ0PatFL5Ag/1wdntUSPdZeZ3uVhQ1HK6/mBgajDAxVvQlGOe7dX8ZVu0uEZPngwgxBOPMiYMQHa5icxUKRffhV4KR8Wz7qx0wCsHIFl/NzlZkxxra1yp8gZSUFCniDhw4IO+Z3MKkmCMtjMyW5oWP3yldyHRbUzByf1opOwNd3kyqYake7sfXoliltVNZWnwLe4emzt1Z/qq+2YNm12FrZnacUYwVfeu3YLO7sGJrAaoavGEXg1OiMXV4GoKCVBy3QqHoPvxKMFIgFtS5kB6hQ11zC2rFxSE7Qc2qewuKMsYI0t2rQRcw3dAvvviijG2km/iCCy6QpXGYJMPtR4wYgQcffFAmorAQ9y233IINGzbg5ptvxo033iizrCMjIw+JPh5Ts04aDAZERETIxxSJdGPTqnjbbbfh1ltvlW5wZkaz5A+35XHoKlf0LuUdrH6xlu6zMDJ+0eY6bM3MjDUhiGnZfYhGIRiLqhph0AUh3KzHNaeNQmSYGgcVCkX34ldldUpqHXjiqxKcNSQCbOKwYHsN/nJxFsL6cAcHX4aJJaypyGSVjnGDLpcLu3fvRm5urrQ00sXMZBbGElIEMu6QApHbnXbaaVIAfvPNN6isrJTicODAgfIxy+owRpKZzyyXQ4slE11YvmfkyJHSkshM6p07d2Lv3r2yHiQtlcOGDZPClGV2GNPIZBi6rxW9x18/zceOCm+83c/mJGFsRtcnZzAh7p31lViwo07WJAzTB+D2U5P7XMtQWuZrG5vx1aY82JqduO7cCUIUK+uiQqHoXvxKMG7Kb8QLKytw84x4bC1pRkG1Az87Kw1mFcOoUPg0d7+Re6g14P/NTcfAOJN83JVYHR68LMaHtQVN8vnwBBNumJ6A2LDuzcruLVpaWuF0exBiUmE5CoWi+/ErX02NzSO7RUSag2W3l6QIfZ9zNykUfY2GZg88LG0giDUHwqTrnnO2TowJ5Q2HWwLGh+kQ3scSXjrCmEUlFhUKRU/hN2qrre0gKpo8CAwYIAbKACkYE8L18rm/woSNTz75RLa2Uyj6Ko12j3QXkzBDEHSBXX/O0lFSJcaHcqs3+94cHIDMaAN0wcpVq1AoFF2B3whGl6cVDncrkkKD4fC0obq5BaHGIPhzPgPrD37wwQeyx7FC0VepbHChpV0wRoYIwdgNdRhbWsWEUryOGBokFmMgMqJVfVaFQqHoKvxGbjncbbA5W5AaZUCzeNx28KC4KAjBeILlU2iJYAYtkyWYdMEAcj5nKzktnJM1Annjc974mNtwW27XcV/Cez5nFjDvj7eOjwnLwjB7mPfH2o7wMV9Xu3G99n4VCl+mzs5zx/tbjTDruqXMjVsIxtyKwwW7w8XYkBDRN2MXFQqFojfwG8HobmmTojHUEIjaJre4IATKAt4nCku23HnnnbKvMPscs6vIs88+K9vRMeuXwu3SSy/F7bffLkUZ3cYsJv3yyy9j2bJluPrqq+W+06dPx//+9z+5/bZt22SpGHYr4TFnzpwpy8pw/x07dmDUqFGy5zHXMSv43//+txR9dEXzdWlpZEbx2LFj8fjjj8tlU6ZMkdvx+OzP/Oijj2LixInyWOzJfOaZZ8Jqtbb/VwqFb8KJXX7dYcsfi2gHd0PcMb0PuysPxy+OTjL3mfjm4sp6WG2OQ6JboVAoegP/sTCKK06zqxUxFp0sAkyxaDgJS8XKlStRXFwsa/U98cQTsoQLy66wBAuLSVO8Ma6wvLxcuorZ5o6FpCdNmiTLuNx333346KOPZA3B559//pBoo7BjKZg///nPuOuuu/DII49IEUjrJIUjj/3Xv/5V9jV+8sknZbu8jnA7HmP79u2ytiBrGD711FPy+Fu2bJGu67feeku2zmPpmHvvvVd2Velr8LPKz8+XllyF/+OkZ6C9aLdRnK/s0BTYDUKuosEJV3tiDRmT3jc6/dTU2/D4Wyvw/CfrsG1/KdyewzUmFQqFoifxG8HIoHlmWjJukUH0huCAk4qFYi1ACsH33nsPRqNR1uujAOM9aweybh+thSEhIbKDCAVcdHS0LBI9efJkhIWFSfGn0+mkyHQ4vLXlWC+QxaNpBaRFki7kvLw8uY5C84477sC4ceNw9tlnSzHEWoRH4+6775bi9Nxzz5Xvj1ZP1he02WyyY0p6eroUiqxXyNfsa7DG4m9+8xt5r/B/mCHd5PSKHIshEFHm7vnNbsj3ltIhofqAPlFKh2PIwnV7saukBp9vzMN732xHQ5O3u4tCoVD0NH4jGJtcrahztMKsD4TL04YQQ5AUjScK3cm00rHYM7uCLFiwACaTSYq5FStW4NNPP8V1110nW9mtWbNG9jimAKSApJuZXUyWLl0q9+8YY8iC1Fo3EgpEoq1npxGttzFFHoUfrYlHQ+ti0rG9XWxsrDw2Xdq///3vpcDlrS/Cz4zCveNnq/BfGh0e2aGJcLIX3g1F9lta27Cj/LCQmpga6vfuaLryd+RV4KtNB2Q4jl5MjkcOTEB4aNfXr1QoFIrO4DejKmOgaGVkkktpg1uKKU1QnQi01NEN/Y9//EO6ohmXSHFCwciexi+88AJOOeUU2b1k0aJFWL58OWbNmiUtfU8//bRsXUd3MPsed7Tw8RjsesLj00rJdnlJSUlyHRNm2NmEsYjsVEI3tyYMOwPF6aBBg2SbPcZXPvDAA1LAkqqqKmzdulU+Vih8jSqbB42aYBSTvO6oi5hXaYfN3T45E0PCmAz/7+pjszvxxbpcFFRbwVFuWFoMZozMgC6479aVVCgUvo1fTcMjjUHQt1sVgwIHnFQNRsYfsmfxT3/6Uyne6H6mNS8nJ0daAplQQnHGdnZ0PTODme5ouqDpkqaVkb2P33zzTRl3qEHByJhIHpvu5zPOOEO2syPc7rnnnpPrGN941llnSYHaWdh2jyKUcY9r166VgvGdd96R6zZt2oRf/vKX8rFC4Ut4WtpQZWWx/YNS9ESaA2HUd73g2VnaLGMlSZQQpNEh/t8qdNeBCqzZUyIf63VBOHfyYMRG9o24TIVC4Z8E/p+g/bHPwvIxJfUuHKhyYEpWGLYUNiHaoseY1NATtjLSshcZGSlv8+fPx6mnngqDwSBdxhRxc+fORUZGhoxVpGikG5iikdZEPmc8I59fcMEFMlM5KytLxkS+//77+NOf/iTXM4OaSTF8DSbPUKTyY6abe9q0abj++uvl+6AVklnPmZmZ0mLI16ermeJUW8f+ya+99pp0m//qV7+S29CqyGVXXXWVzKTmtvPmzWv/D08O1rHjR3kyVtuuhPGar7/+uvzfNDe+wj+xu1qwJq8RxfVusKDBtMwwZHZxS0CK0iW5DfI1yLhUMyZmWPy6YLfT6cFDry9BWb3XzT51SCKuOH2sGINUEXKFQtF7+IWFka7oGmt71uxBb4kduqZPRtwwfpAxibQSMp6RQo3HoWikGKOgo6XRYrFI4dfREsjEGMY9Mo6Ry+mqppAj3IfWSrqNKUS5rQbXDR8+XK675JJLpKgk3JcleJjEQsvm7NmzD7matXV8XxSELO9Dtzbdz0yYYXLN/v375bb333+/vGfcEz+bJkeLbJNW0+SWN5YhYqKQ090q472OhPUt31lbgcoObdUUih+KzdmK4lrvb4oJapmxXV9Ie3+lHYXV3sQzNpDJjDUhxOi/Fkb2h/54xQ7kVTTK51GhRvzonPHKFa1QKHodP4wMP4jypsOuYF+AlkTGFmrisSO0Kn7fus5AwUihSYHImEom5dAiSdc2X5fld1JSM1Bc58TusmZsL7FhQ6EVaw40YlWe97b6gBXrC5qwpdiG5bkNWLWvXnbfYF03isglu+qwZF+jWOe9SCkUXYHN3YaqZm+GNENI4rohc5ntAGvt3vjFSFMQEiw6+dhfOVBagwXr94vJH2Siy7xpg5EY5f8xmQqFwv8ZcNAP2oXQKvbF9lqs2t+IO+ck4973DuCcEVG4clJc+xa9i9Y5hqKQ1sSOHGvdicD6hFo3GopIZk0zW/xAjQPV4qLZ5GyV3S5CdAGIMAch4ohsVNauZMeNnSVNMqM0KiQYY5NDZCHl9zbXwCr2T4vQ4aenpyDG0nslScrKymRJIWavJyQktC9V+CPL9tTh2RUV8vHYJBN+dna6fNxVcLLz7oZKfLHLW4JpVLIZd5yaDKPOP123THR56fON+HjNXhkiMiojFj+bPx3JceHSC6JQKBS9iR9aGL2uJ1+C8Y10JR9NEB5r3YnAxBzG9PHWikDsq7Bj0a46HKh2yvqUg+KMmJltwYQMCxLC9dI93ehokTenEJYR5mAMSzLj0glxuHN2EgZG67FgZx1eXVspxSKptHqwId+qOkoouoQ9ZYdb9Q2J7/pyMHXNHmwu9NZfZP5baoTeb8UiKapsxOpdxTIEx2LS4fwpg5VYVCgUPoMfCsYBSLT0z3geXkgqrW6sE6JutxCMMSHB8kI8VNwoGreVNOObvQ3YWNCE/Bon6u0t8lbW6MKWkiYs39eIBdtrpGs6JdIo3YQtHUIaneIYO8vsqBcXYoXih8Df6k7xG9XI6uJkF0LLelWzd7LDrk9j07zxv/5KZmIkbj53PCZkJ2DykGRMHZmhxKJCofAZ/EIwcsjUa20AxV1oN5Tm8HXoit5fZcdWIfbYInF4khlpUQZpQdxWYhPrHLKQ+QixfGxaqPeWevg2TjznLSFML4/x2roqcZzvJsDsr3agqM4pX0+hOFnYqk+LLYwwBHZL55U1+xuYAyeJMAYhPabrRWlPYtAHY8boTNx98TRcd9ZY6HX+Xx5IoVD0HfxCMAYEDECoMVi6WTUh4/K0ypIaneXrr7+WySO+COs0srsJS/AcTajRWrO33I69FQ6Y9IFS+HHZluJmlDW4EWvRYdbgCLHcIjNRUyINiAnVITIkWN6ixePEcIMUmCxFxOQAxjseTRIyUYFli1wn8NkqFEeyt8zW/ggYFGs4qb7vx4K//01i4qMxTvyug/28uwth6EpCTBjio8PalygUCoVv4DrU3uoAAFJZSURBVB8WxgEDpGisbPLAwZYvAsblsYRMZ2EHFnZY8UVYMoeFvb/44ov2JYfh/8js571VdiSF65ATb5JWwF1CQEYI4ce6lLQmMnmFRc1Zbuj78LS2SevidiE8j8U6IRhrfCwTXeE/MElta+lhd/TgxJCT6vt+LDbkNcDu8U55GNM8NVsJLIVCoehO/GpKTq3YJq4RIawCfJIwY7m0tFQWiO4Is5nr6uqklY/baDA72Wq1SsFZUVEhrYF8zOUs2M192OWFlsGamhqZ5ctjs1c0j0kxqB2PWc7cXusjzWPwORNZfvzjH8sOMFynHb/J1oz1uwqxt7Qe8RYdkiP02FnejOKKekQG2pFiFsd1NcptO0Nlowu7xf7Ho8nVJi/ICsXJwLqfFe11U8PEuZoYrkdgF1v/NhbZDlnIk8N0sk+1QqFQKLoPvxGMoSwXYwiQyR2R5iA43K0nZGEkFHPslnLhhRfi6quvxubNm+VyCjl2TGFXF3ZwYZcWuojJkiVLcOedd+K+++6T6w4cOIDHHntMPr/44ovx5z//GY2NjXjrrbdklxgem+KP/Z8pKNnhhf2oyd69e3HrrbfKY5AtW7bgtttukwLxgw8+wLZt26QgfeWVV/DQQw+J41+EH19zCRa8+iRi9S5sKW7CqlWr8eTv78QvbroMl8y7QL5n9rDuDMyUnjs6BtdMjMW09BBY9N//9a8ptMmyJQrFiVJU65RFu0lSeDBiQrpWzFXUO1Fcf3iSNDHTApMfZ0crFAqFP+A3glEXOEAmddRYXdL1SjFzooKxuroagwcPln2g2Z/54Ycflha+Dz/8EG+//bYUgu+99560+FHosQUfrYZs+8dOLBSVLG+Tl5cnj3HvvfdKwffVV1/hkUcewVNPPSV7PLN1IAUprYUOhwNffvmlfMw4StYX5Pa0SnI5W/+xrmJ+fr4UmLRU0nX+r38/g/FnX4sbfvpbbF79DV56bxGqKqux+J0XcNn5p4vXeQvDhg3DmDFjZIeZzmDWByEt2oDTR0Th5lNT8PfLs/Hg+em4bmIMxqWYkRCmQ7gxEMHis66xubFmf71KflGcEDwnd1Q40Ohqk8lqSZEGRIZ0XTFt/h5ZDaBK/D5JqJj0pEd7M/79CY+nBTUNNrS2exsUCoXC1/EbwWjQBUhXNC2LzLi0u9vgajkxMZOTkyP7OLP/M1v80cVMkUbrHvtCs5tKSkoKrr32WhQUFKCyslLuxzaAbCU4duzYQ637fvKTn+C0006T4pCxh3PmzMH48eNl60GKSFotadFkr+ply5ZJsUqr49ChQ7F48WL52qtXr5avebTSGWfNvx4Tp83GGTMnY2D2IHGsEqSEB0IPhxSt7HXNFoNa68DOIuNBxS0wgAI8EBmxJpw2Mgb3nJmG+85KxS0zEjBvVBTGpVpgdbZJi65C0VnqhZArr/OGYJjExC4jyoDgLoxf5PlfWOsU5773eZaYAKVE6I96DvkqnDyu2VGAR1//Bks25aHJfjgERqFQKHwV/7EwiosOLYwNzS0IMQTC5mqViS8nArujGI3efrYRERFS1NEFvGvXLmnp04QXt2H8Ia2A2nNNKGqwLR+3Z3wib4mJie1rvO38tAvYpEmTpMt51apV8vVplczNzZVuZAo/itCOUJ4xTjPYaEaWEHO6oEA0OFoRFtSCYWlRiI2JkZZMtgTcuHGjFK0n23bwSKJCdRghhOL5Y2Pxo2kJmDk4XAjL9pUKRSdgYlpBndddHGYKxKAurr9Y0ejG3kpvQg2LdSdGGBBm9q/yM6VVDXh/xS6s31+Jf320Fmt2Fh21x7tCoVD4En4jB4xCLIYYgsQFw4VQcd/gbJUdSk7EZUprIuMImSTC+EW6ns1ms7QOMp6QySoUkRR07AFNK97xoJCkpW/dunXS/cz96V7WrIC0QA4fPhz//e9/ZQLMlClTMGTIECn6LBYLYoQA7AgtKExOYcwmy+XsKm+GRyjI6NBgNNua5DHvvvtuKRj/8pe/YObMmbIUh5a009kEmOPB8j3hZp0QjEoxKjoHRc+BKjvs7RO59EhDl9ZfZCmd/GqHFKUkXEwcRyWZpLXcH+BYZbO78PGq3dhZWCOXxYebkBob5jf/g0Kh6L/4lYXRKERUja0FZl0g4kKC0Gj34ERCgPbs2YNf/vKXMqHk2WefxaxZs6Rl8LLLLpOC7/7778fjjz+Of/3rXzj77LOl1fFodGzzx8c33nijjHX8+c9/jr/97W/ydt1112HgwIHSCjlv3jwsXLhQPo+NjZWu6xUrVkjrIgVrRyoaXLC6WmUtxcI6p+zEog9sdyOLY+3bt0/GVG7atEnGS7744otoaGiQcZXswcw4SYWiN3C427CtQ23EqZkWWQ6rq2B85PLcw8W644UYZckef4GCce3OQixav1+c1wdh1gdj7pTBGJgc41cudYVC0T8J/D9md/gBLMtxoNqBzcXNOHVIOPZVOGRyxpAEs1h3/MGWwo7xg6NGjZLJLBRxl156qRRsTIAZNGiQjDOkG5rZz/Pnzz8UH0jhyAQT9oXmcWhVpJUwISFBDvS0MDLxhHGJtDAybpEiVKfzBvvTfU1hSkGXlJQkrZcUj+ecc47cl9DtnTUwG4XNRkRaTBg2OBsNA8IRG6rHsNRIDMsZCrvdLuMhKVBPOeUU+dovvfSSjLGkaKTbm++d78tfoZX39ddfx1VXXSUtwAr/oaDajk+21YFzOHPwAFw1Jb5L4xdLap14f0tt+zPg3GERGBj/7QmXL1PbYMMT761GRaPXpX7qqHRcduoo1dFFoVD4BQPErNdvshpW7K3D/9ZW4VdnpuDL3fVwultw06wUGE+gpAYFId23FHNHzuq5nFAknsyMn8dmQDtjFU+GghoHtpbYMERcBG3OFpQ3ujEpw4IYi05aJ5gsw2QblvJhsgzL9Tz99NMye5sZ13zfTLjR4jT9ESYKUVgzm9yfhW9/5L01FfhgR518PDnVjNtPT+1Sy9lLy0rwZa5VPuYc8fFLByIytOsysLuTlpZWPPHOCny2fr98HhWiw6O3noP0xCj5XKFQKHwdvwpQiw/TwaQLQGmdE+GmYJQ1eqRr50SgqGJ84dEuZLQg8nayFzke+2TFIuO/8oVgtBgCZWmbuuYWcVFhW7/Dx2P8Iw3CrNN45ZVX4vPPP8ejjz4qLaeMZWT9R1pFFYqepsHmxtIDjfIxjYpTsiPk466izubClg7dYyalhSDM7B/Fuj1CLC5YtQtLtxfI5yZ9EH587gSkxHftZ6RQKBTdiV8JRs7KWYOx3OqWQqrK1gKrvW+0sKsW/xNjwGLE/9hgb5FZ4NmxxkPilfd00bK+42effSZL8rzxxhuYMWOGFInMxub6rrToKBSdZUepTZa6IhlReqREdm2pm82FNnlOELalnpAZdsw2mL4C+9/vLarCJ2typddAFxiA00ZnYGJOapcnlDHhjeXAGLqiUCgUXY1fCUa2/wrVB2J/jQsx5iBpiStpL+Hhz/CiUidEIutKxoXpUNvsQZj430INqnuFwvexu1qwpaT5UF3UrBgTLOL321VQaLElprP9+GlCjCZ3sSDtLpgV/e6Sbciv9LbaTIwOxfnThsJi7vqwEcZg//rXv5atT7sLliFjk4P//Oc/32qhqlAo+j5+JRiDxOx8YLQBVkcrdEEDEGYKQmGN/8+mXZ42NImLolkXIGvLVTV5kCouiP7WvULR/2BsbXGtE0U1Tpm9HC0mciOSzNAHd41g5PH3V9rFzSGf84wYlmiW4Rr+QJ3VjgPlDeJ9D4BRF4Rbzx0v4xa7Mntcgwl3LA/WVaW1joYWo+3PcdIKheLk8JssaY221oNYU9CEnAQzqm0eFNa5MH0gC0x3j7hqbm6WlgzGJ3YX9c0e7Kt2Ii3KAHfLQdSJ/ysjxgiLsf9kT1qtVmkhYaY52zOefvrpMomIn7uWba7wPdgJaGluAzYUecvpDI434rScyC4TjK6WNizd24DtZd6JIT0LZw2LREKEf8TqWkIMGD0wHrZmB6YMTca504d1m2WUdV4Z3zx16lTs379fnk8Udizsz3Fs6dKliIuLk+cTmwls375dNjCgwGQTAO6/Zs0auay4uFjWdWVFCS7juci6sYz/ZmUJJqSx2gP74rOVKc9flgrTtmMsOAUs696uXLlSHoc99yk4WWVChc4oFP6H3wlGkz4AH22pQTJ71JqCsKvcgVFJZlhMJyautm7dKsXIkXUQj+QPf/iD3IYtA08WDpIcVFmrkYW3O9ZxpAWlqsGGVRu2Y2iSBaXWgzDoApEm/j/Ga/YXdu/ejQcffFD29eZj1szkd8Re2byAKXyTWpsbn2yplt2IWObqjKHhGJLYdeWQKq1uvLuh+lAx8IFiInXG8EhZl9UfoDCKsJiQkx6L0YOSEBzUjRNPIfhYA5b3jGVctGgRCgsLZdktTsSYFHfGGWfIUl4Uen/84x9lDDTF3OWXXy6bGVBEZmdnyzjpJ554QtZ95XJWLcjMzJTjIPvos4QXKzXQPf2nP/1JClRu9/HHH8syZLyxqgOrOLCRAY+3YcMGZGRkyGN0HAMVCoV/4HdnLbu9JIfpZMmZ9Ei9UFxAYY3XXXUisFsKZ9XHgwKGRbF/CCzXwyLbjPthnUHe+Nqc5VMwlpeV493/Po59O7eg3tEie2azSHl/gh1v+HmwPBCtFbzY8HNTYtG32VPWjKJ6t3xsDB6A8RnH7450ImwvakJNs7fcFY2WUzItMIsxwN+IDg+BydD9lnK6i6dPny7F4K233opPPvlEij5a/jjWcPJK+Jy1W/mc5xnLWU2YMEGKRNac5XJaJdlXn8eiZZGWRsKkGq7TjsdYRtZ/ZbkvWh1Z7ovr2USA9Wa5/IILLpDbUTD2R7HI6wibOXQH/B60m0LRnfjlmTs6NQTFQiQa9cFigByAHeX2E+7F+txzz8nMYsKBk239eM/ZNh93hIMrZ+1c1zE+iCcoRQ5dP1yvDcYMDOexuI4ze+7PQtR33nmndBGxSwt7SlOINjRa4dZF4M5f/BYjxor3I47Z6mpGi8ctj0GrZMfgcg7uXM42h9pNqx/pz7B4OjPAtdqLvNDwYqUEo+/Cziufb69Fa/t16uycCISdoKX/WLBN5hc76w91dokwBglBqoq5Hwu6nM8880zZKIACkPfsYnU8Bg8eLK2MbGWqeV1ofWQ3qqysLKSnp39vbCQtjZMnT0ZaWpo8Dl3RmnihpbOyslIKSDYw4LH7ozua144dO3a0P+taeB1Zv369vM4oFN2JXwrGQfFmaXVgNvHYJDPKGlyy//KJQFcJ3Z6EtQzZYo9tA++66y7885//lAMcoRhjdxW6Xdj675lnnjlUtoLxOY888ojsC/3AAw/IGCGetHTB/P73v5fuodtvvx07d+6UgwXX0zXNWTz35cz9o48/QXV9E1Z+8wX25RfD7XLgsw/elq/zu9/9TrrEX3vtNSk+ORDTzfSPf/xD3n72s5/Juoy0Dvg7DA+gZYS1JhljxbaNdEcrfJftRVaUWr1lrcIMgV1uXdycb0W98/Bk6JSBYWKS6H/Wxd6CYxEtjhRqR9Idk0yew4xdJBSFtDYWFRXJPvqcOHPSHB4eLtcrug6WV+N1iIYKhaI78TvByIEoJlQnszELax2yNWCNzYOKRq9brLPQRVBeXi4fv/vuu/Kko0BhWz+KNW02SOse43rYUpDt+Cgmd+3aJU9Oik6KOMYFcRZOUckZNS2OFHmM66ErRosZohuaAeicubOnNPcbNXoMmuxOrFu9EgeKhPBra8HubRtl4gdjj2hp4/vh/jzuW2+9JQfdadOmyfgkvr/jxWH6C3RLsyA5rSK8uDDeU+Gb2BweLNnbCK1u/oS0EISbu9a6uLbQCs1xYAoagNHpFu8TH6RVvFG3p+WQl6G3oEeCE1OGvTAGmN4Ijk1MRKEXhGMSJ8MffPBB+x7dA62RtHyNHDlSjp0c6zi+dmfyoK9Dkb5t2zYp7njt4Jiuwd8NQwfY6pWGAsaMMkmIcD/GdXMfurWZ2ESDA69Ba9eulbGjvO7wmsOQHs3Y0REuY6MHhmI9/vjj0giiWYzppWKMKY9DAwQ7hzHhSaE4Er+0MFqMQciKNWJjQROihHhkzcKiOhc8LSc3WDM+54orrpBB4ezTTJHGGTGhwLvpppukgKGLlIKVLha6GHhyMkCcM3n2luYAqcU7Uvz86le/km5WBoBrUATNnj1buo7OPvts5OTkHHK5sWA3ixEzeeCaa66R4unCCy+UFgIO9BSnfP3hw4dLN9D48eNlTBCzDvsCjG0666yzcMcdd0hro8I3Yd3QrcVNyGuPHY42BWK8EHOGLkrSojszt7wZBTWHQzFki8wOXY98iVZxsV+3qwgPvrAY63YWSvHYG1CMcSL61VdfyQnl/fffLyes7ATF8ehHP/qR9KJwHbOgOfHkOUerIEM/OsYWchLacVzhY62UDu811zLHx44NA/icN46pDC/h5PqFF16Qr0uXNxNfeltUa7SIcXt/USUq66wypKm7YwD5mVMM0lBBUcY2rpz0E4YNcLynUYHjPMfAv/zlLzKem9eiv/71r1IcMvGIRgN6u3gcikpODhhGxeecMBzpmubxGM/KWFJ6b2j15XN61Whw4DWLnjBeA/kafM5jKhRH4peC0aQPRHacWRa7bmz2YFRKCEoaXHB4Ti6GQxv4OHBy0B09enT7Gq+I4TrN3cIBmHDmzpOVWYG0AP7vf//D+eefL4Ug4YnJQZr7a4Pp0eBAxYpALLnI4Yqbsv4ihSXdSdrrcpDlPQeQJ598UrqkOQukC/dk2xH6IrwQcTDk/6rwTVgGas2BJjS5vL/dYUlmpMcc7kr0Q2l2tojjW1Fr957PoboAjBTnOKsH+CK5hVV4ddFmrNxbhj+9thQ78nonRIQCjWKCyXUvv/yyzGBm3DTPKY4R9913n1xGS9Tf//53KUjo/aAI4XMtfphjFye6nChrrUavv/56zJs3Tz7mPSfPFI6c0DKMRxOX8+fPl5Nrjo+0YnEdLZ4fffSRfA/01vgKbW0HsXBdLv7y6hIsWLUbtY3e0lDdBa28tPAxVOnZZ5+VFkbNykir4aBBg2SlCAo7eqt4bWF4Ew0G/K7o2qfg5EQgNzdXClBabtkWlpOCX/ziF1KU83U6wrJGTERi2BSF50MPPSS/N/4WKEZ5baFw5UTi9ddfl++P8agKxZH4pWAkaVF66ZreVmJDRrRR/iP1QkD2FJyRU9Rx5syTjDcKObpfOgOFn5wZtrdTI+yLLcVjh5l+R2jVZPwkX4OD+y233CKDzTtaBhSK7oQX2f0VduxtL6RN6z7roLJ6QVdAK09hrRPbSw+71TKiDcgSgtQXWwHml9bg2U/WYU+p14VnMeq6vOVfZ6HQY4YzrYx0/9IV3XHiReFIFzG34dhFgcLJMIUfl9NSSDieMCyEiS6aC5nJMHzOSQET1LRjc4JMwam9DvfjcwpNHpeTaYoddqDhd0uPSldNLLqCVvF73l5Yg6c/Xoen3l+NbzbuQ7O9ewqfU/hR3PEz5efXEWazMwyKoo6ikiFJjE2noONnSbH9zTff4F//+peMmWd4AV3JnYEiXQtj4mvT+strCIu8M8xJg+FYKsZUcSz8VmnEh+uRGa3H1rJmRJqCkS4uKnlVjk67FTqKrCMFV8cB7fvWcVCm25SzNZ7cnEHzsTZjPNp+2r6cjdMVwBnj4sUL5TKu0+LBOm5LtMcc0Dkb5GvRgsDZKJNgvi97UaHoapgZvSy3/lBdxNFJZmTHm+TjroAX8I35VjQ4vdZFU/AATMoIRbiPdXbhOFNdZ8XLCzcJweG96Jp1gbj69NHIyfRa6vozHB+Z3EdLJR+fN3cuHn74ESlkOZ7x86Prnh6Wju5gW7MTBUKE81ZV543hI5v3FGPx6l14+dM1UqSThiY7Pl2+Hc9/tApvL96Iyhrv9g1NDrmMt5c/85YCIvkl1Xjh49Vy+cbdhfJ1Ndzi8YodxXjig7V44p3l2FdYKUMNOns96Qz8vzUBfiQUhrQMMsSINxZfpzVwxIgR0oVMFzWtkjwGRTknBx3h+/y+98pYR75uxxADClBagTteO3jMjtcdheJI/FYwsk3gpIwwaaHLq7YjKcKAJnGRaXJ0zsrI4F7GHRK6ajjD1mCMIWffhDNjnrSEJxNnYYxx5Iya2dV01TCYmLM/zto4OHImzmNy9q7txxI+dOVwP87WafZnLCQthgajGVf/6DpkiePqxWzy0ksvPZQhzJOcsZV8D+wRy9kmE2+YpHPeeefJLOqOwdMKRXey7kCDmKR5rYum4ACcOypGnotdRZXVjSX7DguFeIsOo1MtPmddLK6sxz/eW4VlQmRwohcZYsAd8ybj9ImDxWSx/150KbKcLo/8TDi+XnLJfMw8ax4GjpqGhhYDHC7v+LyvqBIPvbIYv/zXx/jry19K8UfWC2F4w2MfyduLn66Xy8g3m/Pw0Dur8fLXO5Ff2SjFkd0hfitbC/D60t34bH0eGmze32WTwyWX8fb2ily5jOzKr8Aby7zLdxfVoI1iteVwGBPlVqPdhS+3FuKOpz7DE28tw/6Smm9t010wnp3XlZtvvlmG5Nxzzz244YYbpAWXFkLGgjImnrGHdCcfmRDIpJjvy5KmRZhVNngcGhwY08gkGZZfUq5nxYngt4KR0LLBbi+7KxywGAJlf+n8GqcMyj8eTCqhe4Rcdtllst6YBuNCGBNCGAisxTRS+PEkY60xwpOWBWuff/55mXl2zjnnSIGXlJQkj6nFktDaSMFHdwRncbxReDKW6PwL5sEUEoozzzoXCeLENhlN8jU4eBC6CBgbSQFLFwRdCJwZUmjSSknXOF0MCkV3U2dzY9Gu+vZnwIwsJqJ0XTFqWhe/2lWHduOlZFZ2OMK6MPu6K6ipt0k39OrdpfK5LigQF8/MwawxWd3aycWXoYCjIPvfos14YcEG7C3wJg0yseThN5bhV88twqNvr0RhVXvmrxBreRWN2FJQi8omBzzHEWWRoYdbQVqbHVL4nCjWI1zNvE7UNHqF6pFw3YGKeuQWV3/LEtldXHLJJVIU0iq7cOFCGRPPjGnGyfMawGsPPVms6MEawkxu0eD1hu7rxx57TCZiamXfNFjdg9cqeqQY48os7ffff19eZxjDqlB0Fr9rDdiRwMAAOWPdXGTDsEQT2jAAVmcrYi066P2kdRh78RbUOhEn3jNLibQIrZsaaTiqRYUuaQ4GWrA0SyVQ+DJr+vtcHQpFVyDF3M46rC9skoW6kyzBmDcuFpEhwV3mxioW5wHbfja3x/Uy2eXaqQk+lezCmqnPfrIey3YUtS8Rk8pZw4RgHAFjD3Ry8QVqxGewZns+Fqzeg/1l9chJixFLB2Dhmj14afFW7CqqRnp0KIZlJSBICOhPxHYNNqcMZ5g9JhNJ0RY0O9xYv7cUNVYx2TfpMHlIMiIsZtQ12lBV24j4cBMmDU3BoDRvEqHd7kR2UjSm5iRjmFgWFebN0g4z6zEiIxYTxf5DM+KgCw6SAp6tGE8dm4XZozOQHOO1xkVaTEiPC8P47ASMzExAWKgRi9fnorLx240asuPDcOmsEZg/eyRGiP/BoP/hExbW32UMKQ0FhKVymLRCz5MWL8q6lawNzEQXCkB6qzi200JIbxUTXWgwoPFAc1tzX25HowT3pcGCBo6OLmsaLmjtpWubx6bhYe7cudKTRSFJwwNjItm/v2NFD4XiSAaImeHxzXE+TE2TGw8vKMDkrHBMybJgbX4TBsUZMTTR7JNB8kdCkfj5jjoMF++33uaGVVwsp2aFwaz/7kWSXxXdDprrgYMErYtHxksqFF0Jf3d7ym14aUWFLNTNn+aFo6Nx1oioLrOouTxteHNtBb7a2yDdmTx1Lx4dhbljYhHoAy5efgYsv/LvD9di5a4SaYEy6IJw2cwcXCKEhdnY96z8tOI1O91CxNnF/96EIWmxsIQYsWxzHv714RrU2lwYkxWPX191ihBfJixcuwd/e2eVEG2BuGhyNn48b5o8zqufr8fK3SUYKMTauVNzMCQ9Di63B+XVVjg9LYgXAtJiMkgDAC2S7vZqF/xtab8vzcrHXwKFoja0S29S+++lM+Mg/yfuwmM4XG488Ozn2FZYixCjTghLC+bPGIrRg1IQYtJ3aagF3cB8bS3rnL8nCjXGEjJMic81dzHv+f60dYQCUxv3uZylc7hO25exiFymJbUcOYnTjs1tuI6CUjs2l3H/jssUiqPh94KRg8unW2pQ3OjGVZPjsLXIWxphfHpol7Yp6y6c4kLJ9mpD403wiEGxTPwfEzMsiPAxN5yi/8K44JdWlmNtgbc2W068ET+emYgYS9eIJA5Be8ub8d8V5Shv7xyTEq7DbbOTkBrlrf3X2zA7fHNuCf729kpUNjTDpA/CpTOH4aKZwxFiPuwu7QuwADktdXaHSwjk1Vixo0hamP/y4zMwLCMeecXVeITxfeWNGJIUiV9ePgNpiVHYV1KDT1fvQXJkCEZnJx6yDvoqdiGG//HGN2gRMvSUUemYMiJD/t8KheLo+LVLmjDAnHOp+uYWWZ8xMUKPgloXTLpARJiCvjPT8jU4EOfXOBBqCJS3SnHBjBRikcXJFQpfYGN+IxbsqJOuaF3gAFw2IQbZ8V1XLJ6TpkXi+NtKvbFXQeKUPWVwGManWaTVyRfgOBJlMcnklt2F1bh4+lDME2IxtI+IRSaq7C2sxOIN++Bxu5EU6y3k/d7SHSisbpJZxMNSo5Cd4k1yam1pRU56DE4ZnYXMxEjodcHSTTxlWBqGZSYgKtz3mwnw0pAcE4454wZiUGqs+L98J/RBofBF/N6XyYE8I9aIQfFGFNU5ESpEY2xoMPZV2qXFztfhoBUuhG2zqxXG4AB4hIC0tWcS9gVoPaLLw+sK8hqz+ZjLNLRt6HbpuB3hcy7njcuPPAafc532WNG1MNHl7Y3VQjB4P9sxSSaMFkKuKymtd2L5/sZDHY/iw3SYkG6Rrk1fgqLolDFZ+NONp+GSWSP9WizyXGFZG3kvzqWV2/Lx4P+W4tUvt+KNb3bC7W6RYn3OmAzoxfeQkxwlxLLX2htqNuKCGcNx1WljMWNUhnzuj1AgZgkBTDe7rxsWFApfwO8tjIQzXrYlK5HtAQ/KpJdCIR6DxCDAdmK+Phg0NHtQ1uDCwFgT9lc5YNQFIkFcNPvCIMZsPmb3Me6GnW/4P7HHLQvVsrUhhR6fM2N8yZIlsuMAs9C5PTMEFy9eLDP62DqLMTgM8macDXupvvPOO/J4zCjUgsFVPGfXwY4rb66pwN4qb4u+pLBg3DgzqUtDPSha3lhdgcJ6by94fnunD43A5IG+WUCYIio6zOy32dB0rdc2NmPr/jKs2V4gY/UiLWbphl6xPR8Ndjf04n8cPygB4aEmxEeFYu6kwZg/ZxSS4yLk+cYb/39fsf4qFIqeoc+c8RHmIOjEf7Mst0EMfm3iSnQQi3fVybpuvgwlIQ1jmwptslONy9WCPeXNaO4jVkYKOfZNZWN7DZaPYGtDwuxB1h1jhh+DwCka2ReVGeDsQcvitRSO3Oc3v/mNLBtB2BWBZSJYh3Lnzp2yRiWtjoqugdb5VfsbsbmkWVr+QsTJdfbwSER3cT/n3WXN2FJ2uAxIgiUYc3Ii2p8puhpPSwve+nor/vLaUm9Gc0GVPG/iIkIwc0QaZo9Mw8WnDEdYuzXRYjYiNqprLcoKhcI/6TOCke24RqVakFvpwIZCKwbHG7G7wo6vdtWLQdJ3hQRjMBm7SDd0UY1Duqd3l9pQ03T0Iqx9DZZ5YLN7FqWlAGRPW5Z6oKWRNcdYyJZ9VbmcpSVY8FyD1kTWGKP4vO6666RVUvHDoZuysMaJL3bWweZmsSpgRJIZY9PDujRz1OZswZe76+FmLal2Th0SjlBj732PzNJlBm9fgZbDXQfKsH5HvnzOMjdmXRCcYkx0idvWfWVodrhgCTXiktmjcMdFU3He1KEIt5jl9gqFQqHRp3wKMRYd5o6MxOoDVrSKy9yp2WFYV2DF9uImb/kFH4W17JIi9NgshO6gRDMqbS0oqHP2C4sZ3c/sbctC5yxUy6LkdHlt27YNGzdulC2zPvjgA+maZi0xln+gxZFQILKWGIvPstYY91P8cKyOFry2uhyV7ZOWtEgdLhobIyc2XQWTvVbtb8COMq8FkwyONWBcxrc7WPQk7Dby/Cdr8cBzC2X7OX+PiS2tasDvnvsCP39mER58YzmsTQ45sT51/EBkJYTjkqmDcfHMYTDqvf2vI8PMiLCY1HnUxXC8Wr5cfP5Wa/uS7oXldxgK9H2dXzQY+83tGOqjUHSGPiUYWa9tXIYF0eZgLN5Ri4lZ4QjVB2DJ3no02n3XasCM6JRIA3ZVOmAIDMCQOCP2igupq4PlxV/hxedYRcUTEhKk65mdDp555hnZBpEFZimWWeiWdcu4P29s2fi73/1OLifHO7bixHG6W/HJ5mrsq/F2xTAHD8Bl42OREGHoMiFBIVbR4MLK/Y1wtv/G2TN69pAIWSGgp2FcX2F5HZ79eA3eXrYbG/Mq8eIXm+Dy+FdYCGsVHiipRlm1d0JlNASj2ekR/0erbHCwclueXJ4aH4UHrz8dP7lkOgalx0uro6L7YLgMe0GzGPcPgSE7DOE5nhDk+MnWtCz0fSzo2fnlL38p48EJw4B4/I4JiQpFR/qUYCRsVXaquPCUNLiRW27D6TmRsl3gir0N7Vv4HnTzDRYikVnSxbUO2fJwR5ndp0VuZ6G4Y2srzSrIjgIrVqz4VvsqdjLgwPXnP/8Z5eXl2LJlixSS7FrA9o0Uk9qNPVdVcdnugZ04VuQ2YJkQcoTlbU4T59LQpK4tkSL0Gdbsb0B+7eFWbaxDOjwxRIZo9CRMutm2vxT//GAVvtxc0L7UG1vsT1AovrxgPR59awU+X7tHutVDjHpMGpaGUEMQzhybKYWiRmxkaPsjhb9Agff73/9eemGOBSfZqampMBqPnb3OAt9sQau1sGV4UGeOr+i/9DnBSPE1ITNMdnv5WohElugYlRwqe+Dur2j2WTdTRqxJFutek9+EgTFGmHQBWL2vwe/dYhSLbHv16quvyhsTVxibSHcIYXY04xKZFMPZLeMS2Z5q5MiRMj6RfU8/+ugjrF27Fq+//jpefvlluZ+ia2FplR0lNny+oxZ2z0EpmManh2DOsEhpue9Kqq0ufCHORwpHYtEHYNYg9ozu2YlAS0srVm/Px2Nvr8DmvEq0iDfECgUXThmEn8ybAr0PF3HmuMD4RFpHSVFlPT5ftw97S+uwZmcxiivqZSbzOVMG4x93nIdbL5yCnMx4ua2i66FHhBY6ii5a9jhB/r6QIn53TOxjnDate5xEd9yWFr66ujrs3r1bikRaFrk9LZWrV6+WbmQen9s1NTXJsB2+NhMBOeFmNYorr7zyUJs/vh7Xs50skwe198Ye1AwFYuUJvgb35fErKyvlcbmsoKDgkMVRe99MZNTGb0X/os8JRsIC3pdPjAVPwc+212JmtgVRIUF4c30VKhu/3YDeV6AVYHZ2GArrnTK+a0i8CauFeKxv9m8rI2ev99xzjxSAjFGkxfHNN9+UvUwJ+55yoLv33nuxYMECmfgyatQo2Vf14YcflqLxqaeekhZIikXOiAmtktOnTz/Uakvxw9hXYcfLK8tl/CwZnmDEhaNiEBnSteWd2Arzg41VcHQIt5iQHooxGWE9FjtHkVVV14TXF23CH19bhtK6ZileEyLM+Ml543HLhZMRFxnaY+/nRGGs5bqdhXjq7eXIK6mWy8YMSkZaXDhCDMHQ64PRYHeJCzz7J5uRkRgly+f46v/j71B8Md6aff0pwObPny+9IZzkHg32kGZliPPOO08KuzPOOAPffPONPA5vnCDTk3LBBRfgwgsvBCvfvfLKK7j77rulIOVrXHXVVdL1zJJl5557Lq6++mq57J///Ce2b98ul61fv16+HifiTB7kWHrFFVfIBEG+B1am4HugEOVx7rzzzkPH/9nPfobPP/8cc+bMwZo1a+RxKBLfeust+b9xf0X/w+9bAx6LJbtq8c7GaswdwaKzwXh1TQWmZFhw4bhYmIVA8zVYj/E3H+TJC+iEtFD8Z1kFTh0Shrmjvd0V/BkONjabDaGhoTLukMkrdIlo6zjrpfjT4hM1tNkxt+e+HZvqdzyG4uQpqLLjlVXlyG2PW4w1B+L2U5ORFde1mbIUaiv3NeC1tZUy+5pEmQLxq7NSkRjZM8Wf+R52F1bgra+2YX1umcwUJoOTInH16aMweVi6+H369rn2ybLtePnLraizuXDW2Az87IpTxPgQiLU78lEvlo0dlIjo8NAed+/3V2pra6XAoneE1R5oheMElwJ90aJF0qpHoUaxlZaWJifFtCw+8MAD0m385JNPSvFGDwrHwosuughTp07FxRdfLNczhIePV61ahd/+9rf473//K62DtAxy8n399dfL26233oqIiAiZXEMhytjwCRMmSK8O69hy4p6ZmSkF5eTJk2VYEJMGKQw5sWdiId8Tj0/rJMfb008/XQpg/j/8vzix5/j90EMPyWoWiv5Fn7QwatA1PTolBJ/trINFCMRTBkVgWZ4V6/IapRXP1wg3B2NqpgVbS5oxQAw+tPKsO9Aky+30NLywMgGiq2DcId3TWpJKR6HHdbQoHikWCQddxjJyfUexSJRY/OEUVtvxxrqKQ0kuwWJEuGR8HDJiTPJ5V1LV6MLy3IZDYpExkmfkRCI2rOe+xw27CvDImyuwaneJFIscAMcPjMddF0/xWbHIUj+MUXQ4vdmsbLtnd3o9Dxv2V6C8Pcll3NBUnDV5CGIjLUos9iB0CbP5wJQpU+QYxrFq1qxZ0nNyZDwg3bkUb0zgY3UHbn/aaadJK19VVZUUc5w8M0lmxowZGDduHG677TYpEBmXqMUdUvhp4yEbIHB7isPs7Gy5TIOT9JUrV0rr5/nnny89PZdffrkUrh2JjIyUoUOctGvH5zJaIGkppZua/yePNXPmTDkmK/offVowmvWBOHdkNJIsOry6uhzj00MxUdze2VQtax1q8T++xKwhkfKi/dWuOpw+LAqOllYsFIK3JxNgWIJo2Z46/H1hEfZV2PyixeLJQgumXVyIN+8txpdr98ieuv0B/t8V9U68L86FnRVOWdomzBCIaybFYXxG1wsOTj6+3lOP3ZXeyQ+PTiv61OywLo+RPBZucT5V1Xtd0GEmPa49bQT+cMPpGJIW53Ni0e3xYMWWPPz0iY9x//OLsGZnoXRZDsuIwzkTs3HaqDT86bo5su8zUb2QeweKKZYBY61YWuNotaNbmaKL31dHGBfIG13H3JY3ht6wvBjFIK2VnCQz6Y/wMZcfq4MVxR+357ZHQhFKDw2tkdoxOGnvTOKgVueWjREofil0KYYpUFV1iv5JnxaMPIGSIg04dxSF10F8sb0WkzNCkR5lwCurK5BXaZfiyJeIDdNhzpAI7C63o0xc0M8eFontJc1Y3Z652hMUVDnw/pYaeXH/bGut/NyaHH1TSDFx4MUFG/DXN5bhnx+tw44Dle1r+jZldU68sa4SG4ub5XOWn7poTDSmD4qALqjrh4W95c34JrfhUM3FKHMgThkcjghzz7bAnDIiA2eMzcCgpEj85PwJuPLMcTAafKcNJ5OPbHYh4MW41Np6EBtzS7G3rB7VVidW7ihEY7ND9rC+7pzx0hU9KD1OWRN7GVrb4uLiZNcpuo0Z80dxRVcyrXQdoVWQ9WPpJuZ2vNGC9/HHH0vRSIsjRSYtjoS/A7qptcQT3tNq2BH+dr/v90u3MgUn4x01eMzvq73I19bW8ZgjRozA2LFjsWzZMhnnSIunlkyj6H/0acGoMTw5FBeOjhYXRxv2Vjhw3sgoBA44iHc2VKGw2uFTojE4MADjM8KQEW3Ewl31yIwxISfJjAVCtO0sbmrfqvsol1anKtQ7WqWIKGtw44PNNcgVF/w+iRhn88tr5QXZ6vTglcWbUVbVc+K8N2DM4mtrDotFwv7NMwYLsUjzdhdD6/hHYgLC7GvCS9v0zDAMTuj5biK0mlx15ljce9kMzB470GeschyDquqs+HjZDvzr/VVwuDxSyM4anSE730SGGDAwIQJBAYHyfwgxGWDQqc5GvgBdxXTTsm0phRnrJDLRhOXBjoQCkj3vGSfIDGiKM1oVmZ1My+PQoUPl/mxWwCzq/fv34z//+Y/MWmanK8Zt87jMaD5ePUZCiyDd0KxQwcQcJqsw7lFLiDkSHp8VK2iZpFDl+500aZIUtBS2TFZUiYb9l34hGDkDnzwwHHOGhGPh7nqUChF0/uhYlDW68PHmatTbfMt6xgSdeeOi0eRslUXHzxoWiTBTEN7aKARuTfdZRRubPfhcCNPtZXYYgwZIV36dowWe1oPYVGSTBYD7GrqgIFwyaxT0wV7hsKuwGk9/tAZFFSx14VvW5x8KrVd7ymx4bW0FdlR462CadQG4bFwMzhoR3S2WRZenDQu21iCvxtm+BEgMC8YZYtIW3A2vdzxoNYmNCEVWcnSvF6ympYc34nR78LsXFuP5LzZj8eZ8bM0tkctzMhNx14WT8LfbzsKFp4yU2c4K34JlbJjBzLI1FFQUWMxSZsILkQI/hDVGA6TF76677pIJI8yA5rbMRGb5MIpHxg/+9Kc/lSKRx5g3b55MkKFVMisrS4rNX//61zKLmq/H5RSSHS2MdBfz9XhPcXf//fdLFzQzqc855xw8+uij8vU7vi/C+Ed202JiC/dhvCUtooyl5O+U+4wZM0Zuq+if9Oks6SNhFvJ7GyqxodCGqybFSUvHe5trkBoejGumJSIq9NtJFb3Nkp21Mt5y5qAwjE4OxQurKmR9xkvHxWJIolkK4a6C5XveWVcpk4IshkAMidZjV5VTJijkxBtx55zkXu3x253UWR145rPNWLIpVyYYkMzEaNxy/mSMGxjbpZ9zb8F+6usLrHhrbSVqHd7/MVx8z/PGRGPG4HAhFrtePNGluu5AA15fW4V6MfkhjJO8dWYCRqR6iwV3JRzKahuapfhKjvPG9fkqDIXgpKTZ5cHwzHjpCnxpwXq88c0uBInf2/mTsvGTi6f3id9ef4HZyVrdRFrmGMNIQccYQloK6XLWrHPMOGaNQybFULRxWy3pj25nuqSZZMIsaYo4HoewZiNfQ9uH7mkuo5tYSwLksVkLkuJSK97N90aBSashhSezqWlNZHY2rZpaAg2PxWVMUOR2XM73yaxrJstQ7Cr6L/1KMBIWDWYduF3lDlwoLpYMuH9vYzUGxRpw/pgYJEYYfGaQdnpa8e76Kqw90ChEYzgGx5vw9oZqaWG8SLzX0WmhP7jcDq1o7C5Dy+KKA03SspgZpUdVkwfV9lZkRhtw3dQ4ZMb2vPuwJ9lf1oinPtmMHbkHDll90pPiceO5EzE+K/KQBdIfsdo9WJpbj8+21R3KUA7hxGN8DKZlR4j/rXssfcU1Djy/ogx57RnY+sABOHd4JM4ZFQ2Drms/T3Zs2Z5Xhg9X7JZ1CpnIEhba9ZneXUFlrRUL1+di1Y4imI066R6Pi7JgV34F3l6yDRnxkZg1JgMpcZE+l4ij6F9wIvPGG29Iqydd7qyRq+i/BP4fq4L2I8z6IKRFGbCxwIrtpXYMTzRjeJIZi3Y1oLDWicwYI0INgd8bRNyTUMwmR+hR1uDC6nwr4kN1OGVIBHIr7Vgnnre1HkSSWH+yrkRagLYUWmVB8x3ldumeHCQEYlmjBzWOVqRE6HD1pDhZjy/ABz6P7iTcrIdRb8C6PcVyFk4ammzIq3LgYJAZqZEGvxSNVWKC9Pa6SizZ23gohjDSGIgrJ8dj6sDwbolZ1HhpeRl2VhwuCZUjJjwXjo1FmKlrLdV2pwufrdgp3bm7iqpR2WBHsPi5jshKOORu8yXqGm3431fbsK+sHg02J1Jiw5CVGIUIiwljs5MwdnAyosLoQVBiUdG70E3OOpLMwqYLXbNiKvon/U4wErb/yhFCcV9lM5bta8Qw8ZjFsjcW2bDxgBWJ4TpEmnW9bmmkaDUKETcsMQT1zS1Yvr8RusABuGB0DGxO8TzPio35TTCKqyNLCAWJdccrUUKLYpPYt7DGibfWVuD9rbWos7fKY2QLsVjU4EadEIvpUXr85JQkZMaa+oVbjJ91emwI1u4pQ1X94eSixqYm7K2wo6BhABLCDXIy4etF1GkhtbtasaO4CY8uKpYWPtanDhbf44hEE26anogRKYxx6p7/g+7vL7ZUY6EQqRqxIUG4cXoCEsUEp6smYyyHtGVvCZ54dwU+W5+HJoc3u5PiPzsxUrp6eztOkckrtHw+9/EaFJXXYlR2MiwhRtQ32FBc3YjUmDCMyoxFShzFe5BMdOHvyxcmrAoF4yCHDx8ua0VSLKrfZf+m37mkNejWpSuWSS/7qpyYPz5Giq6FO+pQY2vBvLHRGJcWCqPeNzrCeFpa8d76KqwSgjZDCLtTh0TA4WnDKiEi91Y5kCUE3qAEM9IiDbJ/Nv8Xuv0oIm2OFrkt4xSLal3IFUJ5jxBBFBF2sZyuwjhxQS+ztsAtBGWGONZ1U+O7vNOHP/DRmgI8LS7urS0etLV4BUhAkA6W2DQkxsfitKERmJQZhrgw1kbzvcGTBekPVNllgew1+dZDVkW6oKdlWXDOyOhujdXl628uaMRLqyvR0B4rKX5euGaS+OyGR8vnPxQm75RVNeDjVXuwbFsBqq1eK6ZeiMOctGicN2kwZozO7HWxSPYUVOBXzyxEk6sFsaEGPP2zCxEZZkZVrRV7i6qQkxEvC3ErFAqFr9NvBaNGbZNbWtp2VTpwVk4EhgrR9R7L7TS4MWdwGM4YEY0QH2gjKK1G7lZsEILx8x214jmEcLFgaLwJVlcbNuY3YpcQgZwBRoUEwxgcAF2wEIxC1NjFxYpdLZrEBbxBiMe0SL0sxl3Z5BHLD0qrpbv1oBSQQ+KMuHhcDLLjzT1aUNlXqLE68e/Fedha1ABrdTFanN7SM4HBBkSmDEaI2YwU8fmdkm3BjMGRPmVtZKzisr31WJFnRVmjW0yKvMvjQ4Nx3ogoTBC/l+5sicnfaGGNQ/ak1jrHkOlCqF4jJiAMB/mh0Kq4ctsBfL52H7bkV7UvFWJR/NavnDUcc8YPlPGAgb3kzrXaHNi0pxgpcRHISomRPat//8JiWUuR5+Jfb5iDsTnf7rKhUCgU/kC/F4yEdeLeFyJxXaENY5NMOHNkFFbsa8QaIc6SInS4bEIckiMNPiEOWoTQo8j9dEsNNpc2wxAUgAmpIRgvxADfX53NjdI6FyoaXfC0KwbaWehijwsLhskYjKV76rC93CFjGHld5XpuOUyI5avFhT0mtPfd8b0FT4fcsma8vEqIntJq1Bbt4VK5TmcMRURythCPevG5D8CQWCPOGB6F9BgjQvSsj9fznxktevz9bi6w4uu9DSi3eqT4J3rxHseI3/MFY2KREMHfb/e+P76Pl1eUYUOxt5MKX21YghHXTOkaVzSTRZ58dwW2FlTDISZB/C8pFEekRePas8ZiUHIsdLrem9wt27QfLy3agupGO84UwvWm88ZLK+eC1XuwcW8JLpo5THaU0av6iQqFwg9RgrGdZmcLlu6tx6KddYgLDcbc0TFSfH25px4NjjacMzxC9qaOCvGN0jsUjvsqmrEqz4oD1Q7pRk8T4jZDiJfkaCFgdIEyiYXX6GZ3G2yuVtndg6KCzyOMgVJQsLRiS1sbxqWE4qppCd1Si8/foAjbkNeIJz9ag/Iyb8cFEmoJR0bWYNS7A9CuycCPa2CUQSYjDRQCMlqI7e6uL8hTlhbj8gYX8iodWCJ+o7SIa9BinBqpx6mDwzBlYESP1Dvk+fPO+kp82SFuMS1ch2vFBGRwYte4XAvLa/HLZxYeckEPTY7CaeOzcMaEQTAbezYYnyEtzMYuq27EoFQhVIODsFwIxsc/WIOGZhcGxofjV1fMlFZGZnBz0qHaqSkUCn9GCcYOuD1t2FrShA82VIPRVyz0zSzlpbmN2FVmQ5oQYmflRIoLoLlXig4fDSYYsIUgywSVNThRIUREaaNbuppZ846CsdHZCqd4Tlgyh0k+DnGBz69zyRjGM3MiMCkrHCE+kh3uC7BI+Qcr9+HZT1ZRoSFIZ0RixiDMGpaAQPEZrT5glaEAGkw2Zgmi7DgThiWYMDDODKO+awUChSxribKl5ZbSZuSLiQJdz5p4JSlCpE3NCpN903sqztItfoNf7qzFu5tqDlk3eXrcNjMR48Ukq6tCG2Qc75Jt+Hj1bkwYkoILpw1FanzvlJ5ZuGY3Vu0qwf6SGtx/1SkYnpUo3dEP/HcxAtCGCUNTcebEQYhW8YkKhaKPoATjEdBykF/FZJgq7K92YUSSCeeMiEKxEGUfbamVwmtsaohcFmPxWht9QWQx+5l1G+1CxDS7W+WFm+Ji6Z56bCmzI0KIwTlDwzEyOQSr8xqxJr8J0aYgXD45XlollWXxuzQ7PXj0rVVYm1eH0JgkBBvMSBKCbP64WJkt/dWuOmwoskFo7kPQ6xtmDESEORgZYrIxOiUE6bEm2annaHT87XzfqUhLN1szbisRIrHejSZHi5wEdIQW41nZYZgoxGK8EIo9NaFpEWJxxf4G2Waz0Xn4g7hwVCQuGBMj3kfXiWZ+PnWNdlTWW6VQNPdQD2i+Lr8ap8t9qO/0k299gw/X5sn1543PxD1XzJLLdxdUIiLUKG4m6HvRPa5QKBRdjRKM34O7pRUrhNj6fFe9uCgeFAIxUhbOXp9vxSohtmzigj1rkAWTs8KlJYflb3ri4nU8aO2pbHRhW1ETvtzdgIPiLY1MMuOUQeGos3vw+tpKtIqFsweFyQLK/lyQuiegWHtjTYUUhk53Czx2IbQtBtxxZjaGp1hQY3XhSyEctwgxV29vgd3d1h7xeBhKN5aVyYwyIFLcM56QWeyhhiAM6GB9Y0wpX4/t9Gqa3Cird2F/rQsNR4hDwr3YkSdcCNEzhoRjdJoFYUKk9iScXPF8eGVlBRpd3vdId/iZOeEypMN0gkkuLvH50nXrSzF+zQ4XNuwuwtJNeagR58/vrpmF6IhQbN1Xit+99JUUrcPSYnDPpdNhMqgadQqFou+iBONx2Ftmw5I9DdhZ1izjwmYODocpOEBae3aUChEhxCQFGS132UJQWrq4KHFn4FfocLfiQJVDlsvZUGCVLmkWJWdpIKqLtXlWbBHvd3CcEXOGRMrWgr7iVvd1yuudeHF5CdZu3w9bfYW0NE4YmYOb52QiJcrbequywYm95Xbsq3agqNaJwjoX2qMAuhRz8AAkigkKrcJDE4wYFGcWvzkhPHt4skL3+I4SG15YUYZau1cs0ro6NdMis+yjLZ0XT4zxK6mqx6odhTJxa/6po9vX9Dws2dNgtcMgRKvJqENBWS0efWs59pTUIdKsx53zJmPmmCxYm51Ys6MAiVEWDM3o/XqPCoVC0d0owXgc+PHQBbirtBkLttfIi2OOuFCPSwlBZKgOO8VyZlM7W9qQGK7HIHEhH50agtQYU5fFbn0fvGjTErVHCME1hTZpWaSFkRftkakWBOKg7BCzs9QOGhJpZWRplehQZQk5EWhJW7enAn94aRFcHm8XGEt0EqaOHoLLJ8YhNdorGgmFO7PYSxrcsjUexePuSgecHQMNT5BoU6C0TjIbOyXSgFiLToZD9FYYAX9324qb8Pb6KhR3SLYZm2zCtdMSZeJPZ3G43Phm4358vGYvCisbYRA/1L//5GykJ3ZNzcYT4UBJNRauy5UdWE4bk4EzJw+VAvIf76zAwg15sizQj88Zh7OmDO1SV7tCoVD4A0owdhLGCLIO4srcetkdhjFkyeE6nJkTiShx8a6od+LrPfWoaGqR8U6MYxsvhCM7pcQLIcm6iLToUURSR56IRYivzYu0R4gOZscyNnEfLYmFVpSL1/PGzQXhlIEWZIjXswqBu0y8T62HL2PbZgyOkHF0fH1fcJ37Gy2trXhz8Wa8tmQHEGyGJS4depMZ2VE6jIs/iBkjUxBqMrRv7Z1otIjvi9+Zw9Mqv7PyehdqbR5UCUHpbjkou+q4OghJdmIZFKOX9fpYfD3cFIwkIRDDzcFC8A+Qt97+/mgN3FLUhDfWVcrfOuHvOT1Cj5tnJcnyU8eDn43NLoR0QRXeX7YT28U9PyNCwXj+lMG49cIp8nl3wf+DXVisdhdiI8wICgzE2u35eODlJfJcG5wQjr/fOVfGLO46UIYdeeWYODwd8VEW6IN73qKrUCgUvY0SjCdBo7j4rznQgPUFNpSLiz7j08ZnWJAVa5Q1DQtqHdhR7pCdVeqaW8QF9SDSxYU0KYIX/yDZS5cZzBQAJtbvO+LiQ4HICyjFBkvgNNpb0GD3oFQIjoIaJ5rFukghInij5Sk7ziguYgGyi8vOUht2CjFJt+WIRDMmZ1mQ1O42VfwwKHI+XZ2LrdUBKG0OgMfjQXNdubhV4Jyxabj27PGIiQht37rvwd/lliIrXlhRjob2BBeKRdajvGJSHNJijN/5LR9JsxBo+4pr8MmqnVi5q6RDVvUApMWFYc7oDJw7NQeh5uMLz5OFVs21O4uwfMsB7Cqpxe+vmY0hGfGobbThx3/7AC4xMUyOtuDBG09DbKSlfS+FQqHo3yjB+AOobHBhf5Udu8ubsaXYBmNwIJIj9bKTCoUcRVyzp00IPTeqm1yoafIKyHJxz6xWXWAAQsX90QQj6yZSMPLerAtEtBClcWE62dYtTtwiTYGypE5powdFdU5Zi7HJ2YpBcSbZJ3iIuGcyTiDNj4oug+7p/UKQv7KqDFv37JdiEQfbpHv4jDGZuPrMsUJk9D3RyJJTGwoa8d7GalTavJZFMijGgKsmx0nL9rHEIkvibNtXiqVb87FhbxkqGu3ta4CoEAPOnjAQ00dlIDMpSlr7uhJah/NLa6WFnx1YbA4Xnv5gDRZvzheTtgBcMXs4rjlrnDzvFq/dg4MDAjA4JQrpCeK9KNezQqFQSJRg/IFQQDiEqKtr9sjM5E3ixjqIJhbO1gciNVyH7FgjEiMMMiGmVWzvFBffZrEPXcf8+BuEiGTsG+E112IMku0I6faiO5uuSnE4aWmkS7Ow1oGdFQ6Zkcts7RghJqdkWmR9SHZp4b7dHT/Zn+F3/s6SnXh2wXqhFQ+XkmEv49kj03DLhZNhMRv6jNuSE5OV+xrwrhCLHTO2B0Xrcf3MJCRF6I9rWfzP+6vw9bYC1Dc55TlAjOJHPXNYCs6fPgzpiZEw6rumKL42pPHzL66oxf8WbcGOohqMyYzFj+dORqhZj09W7MJzCzbK9zJ3UjauP2cCDPpgtAhhy7qOAb3UWlChUCh8FSUYu4G6JhdyK+zS6khrIsWhnTchFBOlhTAY0eLGQtkUd0e72FJA0g1NqyE7ehQJEco4SMZ48Z5WxhGJJgxOMCE2zKAsiT3M7gPlePC1paiob5atAls9h3snj0yLwd3zpyE1LqJXikp3JWz399nWGizYWd++xFs6Z0KqGZdOjJcW787w5drdePjtVbLIeGSIQZaiuWRmjnQFBwf98HqFHMaaHW7UWptRVNmAEZnxCA81ScF4x1ML0CTWhRt1ePiWs5CdGoOK2kbsyivHiOykPh1GoFAoFF2FEozdDFumMXu5yupBtYxp9EjLIJezY1iTuGcJnI6wZR+tk7QSMsaRwpJCMTNSjwhzkGxPyESI/trv2Rdg9uy6nYVYsaMQzsBwrN1TCHtDjVxH/T8kKRrzZw3DpGFpMOr9r3cwraiFNU58sb0Gq/ObxHPvcs5L2BnojGGRJ1Q6p6bBhsffWgaDQY+ZI9MwWXwuXVlv0e1uwWerdmLB2n0orLbigSumY+a4QdId/cunF6C01orspChcf/Z4ZCX3fAa2QqFQ+DtKMPYwLHvDG4sz86LsFOLRo12N26ELmvGP1IOMjTPovAkyKjPTt/C0CLHvaoGjdQA+3FCKD5ZuhbOprn0thKAy4ZQRqfiRECkhJv8pZcRYvk2FVnywuRrF9e5DYlHMY3D+qCicOTwKZsOJWQXZ+7y6ziqzji0hx0+OOR5Wmx1rhWCnu3zmmIGyAP2bX2/Fiwu3yPXTh6Xgd9fNkfGQzHJuOzgAcZEhiLSY/d7qq1AoFL2BEowKRRfAjNuH3lgBp8fTvsQLrcTpceH42fxpGJIW69Oin0Kx3u7BN7vqsGBX/SHLN99xgiUYF4yOxviMMDmZ8ZalcaOwsgFLN+6TSS03nj9ZCOOuz27WSuCw1R7rH+4tqMDj761CYZUVaTGh+PmlMzAwJQZb95fhKbHcIUTk/GlDcNbUoTIukhOzHypQFQqFor+jBKNC0QUsXLMb//18E2qanAgPMcHeFgyPowkHD7bBbInArIkjceaIONlhh91MfA3GzDJpa5EQi7lVzkPtDSmzxqSYcd7IKGTFmaVVtbiiHrnFNVKgfbW1UG6rDwrAP24/F4OFKO5KiirqsGV/OXbnV+KsSYMwalAyGmx2/P6FL7G9oFpa3n9x6XTMGZcNp9sjrZhRYSEI6cayPAqFQtEfCfw/QftjhUJxkiTHhMtkDnbXueiUkYiNjUelrRUulxPmmFTUuIKxr9IuM+MTwnQyNtVXYEcaup8X7qyTZZo0QoIH4NQh4bhoXCwsuoNYv6sQH67YjU9X7cHiTXnYV97QvqW3+8vgxHAMSotrX3JyuD0tqBKiz2TQyRjdr9btxdOfbBCvVQ+9eD55eLps21dZ0wiDEKkzR2Vg9MBERISaoAsOkokuOt0PT6JRKBQKxbdRFkaFoougW7bZ4ZIdX1g/893le/HeN5sRaI5EqBCNAwICpEUsKVyPU7LDMGVgOMwGr3CkJa8n3dUUeCzT9OWuWqzNt6La1nIoVpHvIjlChwtGRMAIJ9btLMCKPWWyf7LV7j5kfaSbl6VxxmXFYdbYLIwUwo0xgp1FG3r4f9c3NmP19nx8vvEAws163H3xVERHhGL97iLc9/xi8Z4GID7ChGd/MU+ISb18LyyBYzbqhVAMVPG9CoVC0c0owahQdAN0pT76xjLsLK4VYgYIj06EISpZiMbDlsUIIRbnjYkC3E3QBRxEdko0osOYlNE91kee6g53GyoaXdL9/PG2Woinh6Dkig4JxphkE+ZPiEd+aRUefnM5imuavBu0Ex1qQExECCYMjMdpEwYhOS6ifU3ncLrcqKq3oby2CSmx4UiItqCsuh5/e2sFtuZXI0oc/56Lp2DqyEzUCiH5yoL1sn3fpJw0DEztWpe3QqFQKDqHEowKRTdQVt2I5z9Zh5W7SxAXYcK5M8aiwqHHlhKbzJKntZG0up2wlueh1WnDqKxYcUvAsLRYZCZFd2l7vBqrCztKm5FX48S2Yhvq7C2HLIXEGDQAkzIsmDIwDIPjTTLOkq0QH3zla6zPLZfZ+gPjwzEkPQ5jsuIxND1Wun87W+Da5WbSireMzsrN+/HaV9tQVGPFJTNycNWZ7LLShqfeX4Uv1u9HcqQZ15w5FrPHZVPlygxrupsVCoVC0XsowahQdAM8rarrbfh05S6kJ0Zg5qgsNLna8M7S3fh8cwkMEfEICNbD0ViDhvIDYgevqY8u69gwM6JpUctOwOjsRLF/FAwn0QWlyeHBhgON2FPpRIXVjbJ6JxqbmuBxO9DicsguNeFxqRieGILTh0VhSILpO+VyFqzciVIhfgenxyNdCEa2PWQMYWegi764og6b9pYit7we91wyTZbVWbklD7995Ru5zajUaPz5lrNhMuqwObcYtY2OQ1bHUJNeuZoVCoXCR1CCUaHoRhhnNyBgAAIDApBXXIX7//slaqwORISakZE9VCbBlJeVwGlvQmuLW1rUNILEfrT00Yo3OCkKOUJcjc1JR3x0ePsWXrgH4w+rG1woqW3CjuJGFNc2w2p3we6ww+1ywi3uWz1OeXz+8Z7u77suno4JQxJl95ajiTNa97gtaxceS7zx/2TpG5vDLWtOUuyVVNXjoVe/kQkrZiEIH7phDoZkJEjL5Y2PfiBjD8dmxOK2i6dJEUorIx3jqiC9QqFQ+B5KMCoUPcRHy7bjhS82o8npwaDECNx/9Ww0eYKwPr8ReeUNyC0qR1NTk7T+SXF3JEI4hidkISIyRhZ112gRatHTHotoqymFtarI++Q4xIaZ8Iv5UzE+J619yYnBjGbWRaSQ3LCrEF9t3I/tB6pw7rShmD97BBxON575aC0WbMiTnYpuOXssLpg1UtZ7zCupktbKsBBT+9EUCoVC4cuosjoKRQ8RFxEiS+80NzswV4gqWQ7GHIjKygoY0YKzJg3GwJQ4BOrMcA7Q4+CAIGnda2ttlfsHBulhCosBxH2LEIjaTctuJm57E1zNje3Pvk2gEHbZ8WHSUjl9eBpOH5+NQSkx0vrXWVhEe29BOVZvL8DqHYUYmZ0oLaAbd5fg3ZV7UG93I8KkF/9bgiziTdEYogvEnHED27OoTVJgslZiZ13bCoVCoeh9lIVRoehBGNfXaHMgxKiXnUu27y/Hn/63BE5PK6YNTcZN509CQKAOdk8Lapuc2HagAQeqbSiusaLZ5YYhNAoBQTpppdNgNxl6i2l1bGmqRWXJAViEaEuLDsGg5ChEWIyIi7QgLsqCEINOuoIN4rWP1cuZwwL7ZbP1XkOTXYpKi9mIJocLNz/6PpqEMKS7+rXfzEdUeAhyCyrw25eXSJc0y+zceck0xESEwunyiO1aZQymLxYsVygUCkXnUIJRoegl2LLuqbeW4ZP1+6WVkNnHf77pdCmuWJeQCSIG/XdFHTOeq6zu9mdAerQJpvZ6jicL3cvNQuxxOAgLMcr39vWGXLy/bAdKaptx7Rmjcdmc0TJO8cEXF2FNboXc70/XnoKpowdKIbx+RwFS4yOQEBPWbaWBFAqFQtE7KJe0QtGLmI3BoOGtvsmO2y+YJGsaNttdeOHz9diZXwna5MJDjTJWUMOkD0KMRX/oFhx04pY7Fhhn4W26kytrG/HW19uxZFMeCstqkZ0aI4Xq+j2lWLq9EK6WNoQLETlpSDKCxGu1tbXCpAvG1OFpsgwQy+swqSclPhIWsV1nS+0oFAqFwn9QFkaFohfh6WcTArGwsh7ZyTHSTc2yM4+9txpNDjcmZifgjoumIC4qDI02u3TvRlpCZNZyZ3C7W2ShbIsQdayF+M2GfdiwrxzVVgfuvXQakoRALSqrwe3/XIBmp0fWQPzrLWcjMSYMa7bn4/H3Vsn3cfHUIbh0zmjZo5luZndLq3Srd/Z9KBQKhcK/UaO9QtGLMAGEBbqHZcTL2EKKsR2F1e0xhAcRGWYW641CoLXgw+U7cc1D7+Pi37+GjTsL248AvP7FBry6YB1eE7emZm929Tcbc3HZH17HBb/9H179aquMR2Tc457iany1tQDb8yuxXzwmKQlRCGWMokmHFjF9tIv3QIZnJuDhm8/Ee3+8Cj86b6IUi3y/dJXTba3EokKhUPQf1IivUPgAFGK80RV82akjcecFE3Hm+CxMzkmWdQ0pJAvK66Vlz+VplUkuhMtf/no7XvxyO9bsKfHWTRRQHLrFdty2sckhs5XpNg4LNcr1Ifog1Frt8jFf95o5I3H3hZPwhx+diqRoi1xOgZieGA2jTFhR/ZoVCoWiP6MEo0LhYzAmcPb4Qbjr4qkYPyRFLqPYS4oMQXyYURb0jgjz1i9saGqG1uOPrmNaEoks+E0BGhyImFCDFJCMP5yck4q75k3GL6+YiakjM+S25OypOfI1s1NjpQVRoVAoFIqOqBhGhcIPoOCzO93SXdwiRGFsuFla/Wg53JFXLru3BAlROSwrQZbLYTZzg43u6YOylA5b71F0spsKT3g+VigUCoWisyjBqFAoFAqFQqE4JsrMoFAoFAqFQqE4JkowKhQKhUKhUCiOiRKMCoVCoVAoFIpjogSjQqFQKBQKheKYKMGoUCgUCoVCoTgmSjAqFAqFQqFQKI6JEowKhUKhUCgUimOiBKNCoVAoFAqF4pgowahQKBQKhUKhOCZKMCoUCoVCoVAojokSjAqFQqFQKBSKY6IEo0KhUCgUCoXimCjBqFAoFAqFQqE4JkowKhQKhUKhUCiOiRKMCoVCoVAoFIpjogSjQqFQKBQKheKYKMGoUCgUCoVCoTgGwP8DJALJNvDg740AAAAASUVORK5CYII=;" vertex="1" parent="1">
          <mxGeometry x="-150" y="400" width="205" height="160.04" as="geometry" />
        </mxCell>
        <mxCell id="MKfo8vcPE9JE-lZwbTAb-38" value="Polymer-Recyclings von Baumwolle (chem. Aufschluss)" style="whiteSpace=wrap;html=1;fontFamily=Verdana;fillColor=#f8cecc;strokeColor=#b85450;rounded=1;shadow=1;comic=0;labelBackgroundColor=none;strokeWidth=2;" vertex="1" parent="1">
          <mxGeometry x="990" y="-40" width="120" height="60" as="geometry" />
        </mxCell>
        <mxCell id="MKfo8vcPE9JE-lZwbTAb-40" value="Ãsterreich" style="edgeStyle=none;rounded=1;html=1;labelBackgroundColor=none;startArrow=none;startFill=0;startSize=5;endArrow=classicThin;endFill=1;endSize=5;jettySize=auto;orthogonalLoop=1;strokeColor=#B3B3B3;strokeWidth=1;fontFamily=Verdana;fontSize=12;entryX=0;entryY=0.5;entryDx=0;entryDy=0;exitX=1.008;exitY=0.319;exitDx=0;exitDy=0;exitPerimeter=0;" edge="1" parent="1" source="2c924340bb9dbf6c-3" target="MKfo8vcPE9JE-lZwbTAb-38">
          <mxGeometry relative="1" as="geometry">
            <mxPoint x="742" y="123" as="sourcePoint" />
            <mxPoint x="784" y="50" as="targetPoint" />
          </mxGeometry>
        </mxCell>
        <mxCell id="MKfo8vcPE9JE-lZwbTAb-41" value="Ãsterreich" style="edgeStyle=none;rounded=1;html=1;labelBackgroundColor=none;startArrow=none;startFill=0;startSize=5;endArrow=classicThin;endFill=1;endSize=5;jettySize=auto;orthogonalLoop=1;strokeColor=#B3B3B3;strokeWidth=1;fontFamily=Verdana;fontSize=12;entryX=0;entryY=0.5;entryDx=0;entryDy=0;exitX=0.967;exitY=0.356;exitDx=0;exitDy=0;exitPerimeter=0;" edge="1" parent="1" source="2c924340bb9dbf6c-3" target="MKfo8vcPE9JE-lZwbTAb-42">
          <mxGeometry x="0.0048" relative="1" as="geometry">
            <mxPoint x="781" y="146" as="sourcePoint" />
            <mxPoint x="870" y="110" as="targetPoint" />
            <mxPoint as="offset" />
          </mxGeometry>
        </mxCell>
        <mxCell id="MKfo8vcPE9JE-lZwbTAb-42" value="Monomer-Recyling (PET, PA6)&lt;div&gt;T, p, t, cat&lt;/div&gt;&lt;div&gt;H2O, MetOH, Glykol&amp;nbsp;&lt;/div&gt;" style="whiteSpace=wrap;html=1;fontFamily=Verdana;rounded=1;shadow=1;comic=0;labelBackgroundColor=none;strokeWidth=2;" vertex="1" parent="1">
          <mxGeometry x="1000" y="20" width="170" height="60" as="geometry" />
        </mxCell>
        <mxCell id="MKfo8vcPE9JE-lZwbTAb-43" value="Polymer-Recyclings von Polycotton: Solvolyse &amp;amp; Filtration" style="whiteSpace=wrap;html=1;fontFamily=Verdana;fillColor=#f8cecc;strokeColor=#b85450;rounded=1;shadow=1;comic=0;labelBackgroundColor=none;strokeWidth=2;" vertex="1" parent="1">
          <mxGeometry x="1070" y="80" width="120" height="60" as="geometry" />
        </mxCell>
        <mxCell id="MKfo8vcPE9JE-lZwbTAb-44" value="Ãsterreich" style="edgeStyle=none;rounded=1;html=1;labelBackgroundColor=none;startArrow=none;startFill=0;startSize=5;endArrow=classicThin;endFill=1;endSize=5;jettySize=auto;orthogonalLoop=1;strokeColor=#B3B3B3;strokeWidth=1;fontFamily=Verdana;fontSize=12;entryX=0;entryY=0.5;entryDx=0;entryDy=0;exitX=0.983;exitY=0.381;exitDx=0;exitDy=0;exitPerimeter=0;" edge="1" parent="1" source="2c924340bb9dbf6c-3" target="MKfo8vcPE9JE-lZwbTAb-43">
          <mxGeometry x="0.0048" relative="1" as="geometry">
            <mxPoint x="776" y="148" as="sourcePoint" />
            <mxPoint x="970" y="90" as="targetPoint" />
            <mxPoint as="offset" />
          </mxGeometry>
        </mxCell>
        <mxCell id="MKfo8vcPE9JE-lZwbTAb-45" value="&lt;div&gt;Hydrothermales Recycling von Baumwolle und oder PET&lt;span style=&quot;background-color: initial;&quot;&gt;&amp;nbsp;&lt;/span&gt;&lt;/div&gt;" style="whiteSpace=wrap;html=1;fontFamily=Verdana;rounded=1;shadow=1;comic=0;labelBackgroundColor=none;strokeWidth=2;" vertex="1" parent="1">
          <mxGeometry x="1070" y="130" width="170" height="60" as="geometry" />
        </mxCell>
        <mxCell id="MKfo8vcPE9JE-lZwbTAb-46" value="Ãsterreich" style="edgeStyle=none;rounded=1;html=1;labelBackgroundColor=none;startArrow=none;startFill=0;startSize=5;endArrow=classicThin;endFill=1;endSize=5;jettySize=auto;orthogonalLoop=1;strokeColor=#B3B3B3;strokeWidth=1;fontFamily=Verdana;fontSize=12;entryX=0;entryY=0.625;entryDx=0;entryDy=0;exitX=1.017;exitY=0.369;exitDx=0;exitDy=0;exitPerimeter=0;entryPerimeter=0;" edge="1" parent="1" source="2c924340bb9dbf6c-3" target="MKfo8vcPE9JE-lZwbTAb-45">
          <mxGeometry x="0.0048" relative="1" as="geometry">
            <mxPoint x="776" y="148" as="sourcePoint" />
            <mxPoint x="970" y="90" as="targetPoint" />
            <mxPoint as="offset" />
          </mxGeometry>
        </mxCell>
        <mxCell id="MKfo8vcPE9JE-lZwbTAb-47" value="Enzymatisches Recylcling Polycotton: Glucose, Ceel" style="whiteSpace=wrap;html=1;fontFamily=Verdana;fillColor=#f8cecc;strokeColor=#b85450;rounded=1;shadow=1;comic=0;labelBackgroundColor=none;strokeWidth=2;" vertex="1" parent="1">
          <mxGeometry x="1110" y="190" width="120" height="60" as="geometry" />
        </mxCell>
      </root>
    </mxGraphModel>
  </diagram>
</mxfile>
